<svg xmlns="http://www.w3.org/2000/svg" width="120" height="119.997" viewBox="0 0 120 119.997">
  <g id="_2nd_Position_Badge" data-name="2nd Position Badge" transform="translate(-1603 -4017)">
    <g id="Group_95" data-name="Group 95" transform="translate(1002.697 3646.554)">
      <path id="Path_513" data-name="Path 513" d="M647.361,377.3l5.737-6.856,7.32,5.21,7.227-5.21,5.635,6.856,8.375-3.24,3.944,7.74,9.058-.969,1.912,8.743,8.742.446v9.6l8.367,2.4-2.664,8.743,7.854,4.834-4.815,8.194,6.249,6.343-6.249,6.686,4.713,7.714-7.718,5.211,2.561,8.468-8.264,3.086-.068,8.846-8.776.823-1.912,9.051-8.913-1.68-4.166,8.331L673.382,483l-5.737,7.44-7.227-5.28-7.22,5.28-5.837-7.289-8.216,3.625-4.1-8.328-8.881,1.47L624.116,471l-8.686-.98V461.4l-8.3-3.135,2.635-8.524-7.905-5.1,4.782-7.741-6.343-6.859,6.539-6.075-4.977-8.426,7.905-4.605-2.635-8.916,8.3-3.037V390.17l8.783-.392,2.049-9.014,8.783,1.078L639.34,374Z" transform="translate(0 0)" fill="#bac6d3"/>
      <ellipse id="Ellipse_46" data-name="Ellipse 46" cx="39.318" cy="39.452" rx="39.318" ry="39.452" transform="translate(621.101 390.613)" fill="#9eadc4"/>
      <path id="Path_514" data-name="Path 514" d="M695.466,409.717a39.283,39.283,0,0,0-63.139,31.442,39.459,39.459,0,0,0,8.033,23.941,39.439,39.439,0,1,1,55.106-55.383Z" transform="translate(-3.763 -3.581)" fill="#8094af"/>
    </g>
    <text id="_2nd" data-name="2nd" transform="translate(1644 4096)" fill="#bac6d3" font-size="48" font-family="BebasNeuePro-Bold, Bebas Neue Pro" font-weight="700" letter-spacing="-0.007em"><tspan x="0" y="0">2</tspan><tspan y="0" font-size="27.998" baseline-shift="15.99839973449707">nd</tspan></text>
  </g>
</svg>
