<svg xmlns="http://www.w3.org/2000/svg" width="120" height="120" viewBox="0 0 120 120">
  <g id="_3rd_Position_Badge" data-name="3rd Position Badge" transform="translate(-411 -4017)">
    <g id="Group_94" data-name="Group 94" transform="translate(94.125 3646.554)">
      <path id="Path_511" data-name="Path 511" d="M363.932,377.3l5.737-6.856,7.32,5.211,7.227-5.211,5.635,6.856,8.375-3.24,3.944,7.74,9.058-.969,1.912,8.743,8.742.446v9.6l8.367,2.4-2.664,8.743,7.854,4.834-4.815,8.194,6.249,6.343-6.249,6.686,4.713,7.714-7.718,5.211,2.561,8.469-8.264,3.086-.068,8.846-8.776.823-1.912,9.051-8.913-1.68-4.166,8.332-8.127-3.669-5.737,7.44-7.227-5.28-7.22,5.28-5.837-7.289-8.216,3.625-4.1-8.329-8.881,1.47-2.049-8.917-8.686-.98V461.4l-8.3-3.135,2.635-8.525-7.9-5.1,4.782-7.741-6.344-6.859,6.539-6.075-4.977-8.427,7.9-4.605-2.635-8.917,8.3-3.038V390.17l8.783-.392,2.049-9.015,8.783,1.078L355.912,374Z" fill="#ea875d"/>
      <ellipse id="Ellipse_45" data-name="Ellipse 45" cx="39.318" cy="39.475" rx="39.318" ry="39.475" transform="translate(337.672 390.593)" fill="#c77864"/>
      <path id="Path_512" data-name="Path 512" d="M412.038,409.7a39.417,39.417,0,0,0-55.106,55.327A39.415,39.415,0,1,1,412.038,409.7Z" transform="translate(-3.763 -3.55)" fill="#ba6352"/>
    </g>
    <text id="_3rd" data-name="3rd" transform="translate(453 4096)" fill="#ea875d" font-size="48" font-family="BebasNeuePro-Bold, Bebas Neue Pro" font-weight="700" letter-spacing="-0.007em"><tspan x="0" y="0">3</tspan><tspan y="0" font-size="27.998" baseline-shift="15.99839973449707">rd</tspan></text>
  </g>
</svg>
