<svg xmlns="http://www.w3.org/2000/svg" xmlns:xlink="http://www.w3.org/1999/xlink" width="222" height="87" viewBox="0 0 222 87">
  <defs>
    <clipPath id="clip-path">
      <rect width="222" height="87" fill="none"/>
    </clipPath>
  </defs>
  <g id="Repeat_Grid_1" data-name="Repeat Grid 1" opacity="0.9" clip-path="url(#clip-path)">
    <g transform="translate(-1621 -2254)">
      <path id="Path_55" data-name="Path 55" d="M43.909,616.442c12,0,12,13,24,13s12-13,24-13,12,13,24,13,12-13,24-13,12,13,24,13,12-13,24-13,12,13,24,13,12-13,24-13,12,13,24,13" transform="translate(1580.091 1640.558)" fill="none" stroke="#fff" stroke-linecap="round" stroke-width="4"/>
    </g>
    <g transform="translate(-1621 -2232)">
      <path id="Path_55-2" data-name="Path 55" d="M43.909,616.442c12,0,12,13,24,13s12-13,24-13,12,13,24,13,12-13,24-13,12,13,24,13,12-13,24-13,12,13,24,13,12-13,24-13,12,13,24,13" transform="translate(1580.091 1640.558)" fill="none" stroke="#fff" stroke-linecap="round" stroke-width="4"/>
    </g>
    <g transform="translate(-1621 -2210)">
      <path id="Path_55-3" data-name="Path 55" d="M43.909,616.442c12,0,12,13,24,13s12-13,24-13,12,13,24,13,12-13,24-13,12,13,24,13,12-13,24-13,12,13,24,13,12-13,24-13,12,13,24,13" transform="translate(1580.091 1640.558)" fill="none" stroke="#fff" stroke-linecap="round" stroke-width="4"/>
    </g>
    <g transform="translate(-1621 -2188)">
      <path id="Path_55-4" data-name="Path 55" d="M43.909,616.442c12,0,12,13,24,13s12-13,24-13,12,13,24,13,12-13,24-13,12,13,24,13,12-13,24-13,12,13,24,13,12-13,24-13,12,13,24,13" transform="translate(1580.091 1640.558)" fill="none" stroke="#fff" stroke-linecap="round" stroke-width="4"/>
    </g>
  </g>
</svg>
