<svg xmlns="http://www.w3.org/2000/svg" width="220" height="62" viewBox="0 0 220 62">
  <g id="Apps_Store" data-name="Apps Store" transform="translate(92.29 -224.558)">
    <rect id="Rectangle_55" data-name="Rectangle 55" width="220" height="62" rx="31" transform="translate(-92.29 224.558)" fill="#392372"/>
    <g id="Group_136" data-name="Group 136">
      <g id="Group_132" data-name="Group 132">
        <path id="Path_601" data-name="Path 601" d="M-11.625,243.724l-.735,2.406h-1.608l2.735-8.489h1.988l2.772,8.489H-8.144l-.772-2.406Zm2.443-1.171-.671-2.091c-.164-.516-.3-1.1-.43-1.586h-.026c-.126.491-.253,1.083-.4,1.586l-.658,2.091Z" fill="#d7c7fe"/>
        <path id="Path_602" data-name="Path 602" d="M-4.145,240l1,3.111c.177.542.3,1.033.418,1.537h.038c.114-.5.253-.983.417-1.537L-1.284,240H.349l-2.355,6.134H-3.538L-5.829,240Z" fill="#d7c7fe"/>
        <path id="Path_603" data-name="Path 603" d="M6.563,244.657a8.222,8.222,0,0,0,.1,1.473H5.259l-.113-.68H5.108a2.26,2.26,0,0,1-1.824.819,1.827,1.827,0,0,1-1.937-1.827c0-1.536,1.381-2.33,3.659-2.317v-.1c0-.4-.164-1.07-1.253-1.07a3.275,3.275,0,0,0-1.659.453l-.3-1.008a4.455,4.455,0,0,1,2.228-.541,2.3,2.3,0,0,1,2.544,2.594Zm-1.519-1.525c-1.1-.012-2.152.215-2.152,1.147a.815.815,0,0,0,.886.881,1.278,1.278,0,0,0,1.228-.844,1.037,1.037,0,0,0,.038-.34Z" fill="#d7c7fe"/>
        <path id="Path_604" data-name="Path 604" d="M9.537,239.115a.839.839,0,1,1,.886-.831.827.827,0,0,1-.874.831Zm-.773,7.015V240h1.558v6.134Z" fill="#d7c7fe"/>
        <path id="Path_605" data-name="Path 605" d="M12.561,237.175h1.558v8.955H12.561Z" fill="#d7c7fe"/>
        <path id="Path_606" data-name="Path 606" d="M21.157,244.657a8.337,8.337,0,0,0,.1,1.473H19.852l-.114-.68H19.7a2.257,2.257,0,0,1-1.823.819,1.826,1.826,0,0,1-1.936-1.827c0-1.536,1.38-2.33,3.658-2.317v-.1c0-.4-.164-1.07-1.253-1.07a3.271,3.271,0,0,0-1.658.453l-.3-1.008a4.458,4.458,0,0,1,2.228-.541,2.3,2.3,0,0,1,2.545,2.594Zm-1.52-1.525c-1.1-.012-2.152.215-2.152,1.147a.815.815,0,0,0,.886.881,1.277,1.277,0,0,0,1.228-.844,1.037,1.037,0,0,0,.038-.34Z" fill="#d7c7fe"/>
        <path id="Path_607" data-name="Path 607" d="M23.358,237.175h1.557v3.665h.025a2.238,2.238,0,0,1,1.976-.982c1.506,0,2.582,1.247,2.569,3.111,0,2.2-1.405,3.3-2.8,3.3a2.124,2.124,0,0,1-1.95-1.059h-.026l-.076.92H23.307c.026-.416.051-1.1.051-1.713Zm1.557,6.423a1.733,1.733,0,0,0,.038.366,1.422,1.422,0,0,0,1.38,1.083c.975,0,1.57-.768,1.57-2.015,0-1.084-.519-1.965-1.557-1.965a1.445,1.445,0,0,0-1.38,1.134,1.79,1.79,0,0,0-.051.4Z" fill="#d7c7fe"/>
        <path id="Path_608" data-name="Path 608" d="M31.319,237.175h1.557v8.955H31.319Z" fill="#d7c7fe"/>
        <path id="Path_609" data-name="Path 609" d="M36.23,243.5a1.673,1.673,0,0,0,1.9,1.587,4.984,4.984,0,0,0,1.709-.278l.228,1.059a5.581,5.581,0,0,1-2.152.39,2.91,2.91,0,0,1-3.179-3.1,3.044,3.044,0,0,1,3.014-3.3c2,0,2.658,1.637,2.658,2.985a3.852,3.852,0,0,1-.05.655Zm2.709-1.083a1.321,1.321,0,0,0-1.279-1.5,1.518,1.518,0,0,0-1.43,1.5Z" fill="#d7c7fe"/>
        <path id="Path_610" data-name="Path 610" d="M48.09,246.269A2.974,2.974,0,0,1,45,243.107a3.036,3.036,0,0,1,3.191-3.249,2.95,2.95,0,0,1,3.064,3.149,3.044,3.044,0,0,1-3.152,3.262Zm.051-1.122c.885,0,1.506-.856,1.506-2.1,0-.957-.431-2.065-1.494-2.065-1.1,0-1.545,1.07-1.545,2.091,0,1.184.6,2.077,1.52,2.077Z" fill="#d7c7fe"/>
        <path id="Path_611" data-name="Path 611" d="M53.088,241.823c0-.706-.025-1.3-.05-1.827h1.354l.076.92h.038a2.266,2.266,0,0,1,1.975-1.058c1.076,0,2.19.693,2.19,2.632v3.64H57.114v-3.463c0-.882-.329-1.55-1.177-1.55a1.3,1.3,0,0,0-1.215.907,1.422,1.422,0,0,0-.077.491v3.615H53.088Z" fill="#d7c7fe"/>
        <path id="Path_612" data-name="Path 612" d="M65.846,238.422V240h1.481v1.159H65.846v2.7c0,.756.2,1.134.8,1.134a2.047,2.047,0,0,0,.607-.063l.026,1.171a3.439,3.439,0,0,1-1.127.164,1.789,1.789,0,0,1-1.342-.5,2.4,2.4,0,0,1-.493-1.725v-2.872h-.874V240h.874V238.85Z" fill="#d7c7fe"/>
        <path id="Path_613" data-name="Path 613" d="M69.061,237.175h1.557v3.653h.026a2.042,2.042,0,0,1,.772-.693,2.207,2.207,0,0,1,1.076-.277c1.051,0,2.152.693,2.152,2.657v3.615H73.087v-3.451c0-.881-.329-1.562-1.19-1.562a1.3,1.3,0,0,0-1.215.869,1.38,1.38,0,0,0-.064.466v3.678H69.061Z" fill="#d7c7fe"/>
        <path id="Path_614" data-name="Path 614" d="M77.959,243.5a1.672,1.672,0,0,0,1.9,1.587,4.985,4.985,0,0,0,1.71-.278l.228,1.059a5.581,5.581,0,0,1-2.152.39,2.91,2.91,0,0,1-3.179-3.1,3.044,3.044,0,0,1,3.014-3.3c2,0,2.658,1.637,2.658,2.985a3.852,3.852,0,0,1-.05.655Zm2.709-1.083a1.321,1.321,0,0,0-1.279-1.5,1.518,1.518,0,0,0-1.43,1.5Z" fill="#d7c7fe"/>
      </g>
      <g id="Group_135" data-name="Group 135">
        <g id="Group_133" data-name="Group 133">
          <path id="Path_615" data-name="Path 615" d="M-31,254.363a7.548,7.548,0,0,1,3.617-6.339,7.785,7.785,0,0,0-6.128-3.3c-2.576-.269-5.077,1.537-6.388,1.537-1.339,0-3.365-1.51-5.541-1.466a8.17,8.17,0,0,0-6.867,4.167c-2.968,5.113-.755,12.628,2.089,16.764,1.424,2.023,3.087,4.284,5.263,4.2,2.129-.088,2.923-1.35,5.494-1.35,2.548,0,3.3,1.35,5.514,1.3,2.285-.037,3.723-2.034,5.1-4.077a16.637,16.637,0,0,0,2.332-4.723A7.3,7.3,0,0,1-31,254.363" fill="#d7c7fe"/>
          <path id="Path_616" data-name="Path 616" d="M-35.19,242.008a7.392,7.392,0,0,0,1.71-5.33,7.617,7.617,0,0,0-4.921,2.534,7.05,7.05,0,0,0-1.758,5.134,6.306,6.306,0,0,0,4.969-2.338" fill="#d7c7fe"/>
        </g>
        <g id="Group_134" data-name="Group 134">
          <path id="Path_617" data-name="Path 617" d="M-.221,269.6H-3.186l-1.626-5.083h-5.647l-1.55,5.083H-14.9l5.6-17.3h3.454Zm-5.08-7.214-1.468-4.517q-.237-.69-.879-3.257H-7.7q-.26,1.106-.827,3.257l-1.445,4.517Z" fill="#d7c7fe"/>
          <path id="Path_618" data-name="Path 618" d="M14.174,263.208a7.067,7.067,0,0,1-1.728,5.03A5.066,5.066,0,0,1,8.6,269.879a3.855,3.855,0,0,1-3.562-1.77H4.993v6.569H2.2V261.231q0-2-.1-4.1h2.45l.155,1.977H4.76a4.646,4.646,0,0,1,4.23-2.234,4.666,4.666,0,0,1,3.7,1.746,6.853,6.853,0,0,1,1.483,4.593m-2.837.1a5.132,5.132,0,0,0-.825-3,2.861,2.861,0,0,0-2.424-1.232,2.9,2.9,0,0,0-1.87.68,3.149,3.149,0,0,0-1.1,1.786,3.551,3.551,0,0,0-.128.844v2.08a3.321,3.321,0,0,0,.835,2.3,2.786,2.786,0,0,0,2.181.936,2.849,2.849,0,0,0,2.45-1.2,5.28,5.28,0,0,0,.878-3.183" fill="#d7c7fe"/>
          <path id="Path_619" data-name="Path 619" d="M28.592,263.208a7.063,7.063,0,0,1-1.728,5.03,5.064,5.064,0,0,1-3.843,1.641,3.848,3.848,0,0,1-3.558-1.77h-.052v6.569H16.625V261.231q0-2-.1-4.1h2.449l.156,1.977h.053a4.637,4.637,0,0,1,4.229-2.234,4.669,4.669,0,0,1,3.7,1.746,6.857,6.857,0,0,1,1.48,4.593m-2.835.1a5.111,5.111,0,0,0-.827-3,2.858,2.858,0,0,0-2.424-1.232,2.9,2.9,0,0,0-1.87.68,3.152,3.152,0,0,0-1.095,1.786,3.518,3.518,0,0,0-.13.844v2.08a3.313,3.313,0,0,0,.837,2.3,2.779,2.779,0,0,0,2.182.936,2.851,2.851,0,0,0,2.449-1.2,5.307,5.307,0,0,0,.878-3.183" fill="#d7c7fe"/>
          <path id="Path_620" data-name="Path 620" d="M44.716,264.747a4.593,4.593,0,0,1-1.546,3.593,6.857,6.857,0,0,1-4.734,1.513,8.342,8.342,0,0,1-4.508-1.076l.646-2.31a7.671,7.671,0,0,0,4.028,1.1,3.823,3.823,0,0,0,2.453-.705,2.307,2.307,0,0,0,.875-1.89,2.4,2.4,0,0,0-.721-1.773,6.731,6.731,0,0,0-2.4-1.338q-4.566-1.7-4.563-4.961a4.375,4.375,0,0,1,1.6-3.494,6.337,6.337,0,0,1,4.257-1.365,8.487,8.487,0,0,1,3.946.822l-.7,2.258a6.894,6.894,0,0,0-3.329-.795,3.373,3.373,0,0,0-2.294.719,2.054,2.054,0,0,0-.7,1.565,2.1,2.1,0,0,0,.8,1.692,8.99,8.99,0,0,0,2.528,1.337,8.59,8.59,0,0,1,3.3,2.1,4.4,4.4,0,0,1,1.057,3" fill="#d7c7fe"/>
          <path id="Path_621" data-name="Path 621" d="M53.925,259.2h-3.07v6.057q0,2.309,1.627,2.309a5.025,5.025,0,0,0,1.236-.128l.076,2.1a6.282,6.282,0,0,1-2.165.307,3.348,3.348,0,0,1-2.58-1,4.9,4.9,0,0,1-.928-3.363V259.2H46.289v-2.08h1.832v-2.282l2.734-.822v3.1h3.07Z" fill="#d7c7fe"/>
          <path id="Path_622" data-name="Path 622" d="M67.778,263.259a6.817,6.817,0,0,1-1.65,4.722,5.907,5.907,0,0,1-4.592,1.9,5.619,5.619,0,0,1-4.4-1.822,6.6,6.6,0,0,1-1.638-4.591,6.747,6.747,0,0,1,1.689-4.747,5.855,5.855,0,0,1,4.552-1.85,5.749,5.749,0,0,1,4.438,1.822,6.554,6.554,0,0,1,1.6,4.568m-2.89.09a5.593,5.593,0,0,0-.749-2.959,2.749,2.749,0,0,0-2.5-1.493,2.791,2.791,0,0,0-2.554,1.493,5.7,5.7,0,0,0-.746,3.012,5.586,5.586,0,0,0,.746,2.958,2.811,2.811,0,0,0,2.53,1.492,2.781,2.781,0,0,0,2.5-1.518,5.59,5.59,0,0,0,.774-2.985" fill="#d7c7fe"/>
          <path id="Path_623" data-name="Path 623" d="M76.831,259.563a4.988,4.988,0,0,0-.876-.076,2.646,2.646,0,0,0-2.272,1.1,4.145,4.145,0,0,0-.695,2.462V269.6H70.2l.023-8.543q0-2.157-.1-3.928h2.426l.1,2.388h.075a4.263,4.263,0,0,1,1.394-1.976,3.383,3.383,0,0,1,2.014-.669,4.542,4.542,0,0,1,.695.05Z" fill="#d7c7fe"/>
          <path id="Path_624" data-name="Path 624" d="M89.288,262.771a6.676,6.676,0,0,1-.1,1.258H80.832a3.61,3.61,0,0,0,1.211,2.824,4.149,4.149,0,0,0,2.735.87,9.3,9.3,0,0,0,3.378-.589l.437,1.925a10.526,10.526,0,0,1-4.205.771,6.1,6.1,0,0,1-4.578-1.708,6.289,6.289,0,0,1-1.664-4.581,7.125,7.125,0,0,1,1.55-4.7,5.346,5.346,0,0,1,4.382-2,4.685,4.685,0,0,1,4.106,2,6.725,6.725,0,0,1,1.1,3.927m-2.656-.719a3.732,3.732,0,0,0-.539-2.129,2.442,2.442,0,0,0-2.221-1.155,2.652,2.652,0,0,0-2.217,1.13,4.088,4.088,0,0,0-.823,2.154Z" fill="#d7c7fe"/>
        </g>
      </g>
    </g>
  </g>
</svg>
