<svg xmlns="http://www.w3.org/2000/svg" width="50" height="219.707" viewBox="0 0 50 219.707">
  <g id="Brand_Promotion" data-name="Brand Promotion" transform="translate(-1108.834)">
    <path id="Path_625" data-name="Path 625" d="M1108.834,217.644l13.235-45.588,36.765,36.764V0h-50Z" fill="#f17700"/>
    <g id="Group_141" data-name="Group 141" transform="translate(1125.456 7.715)">
      <path id="Path_626" data-name="Path 626" d="M1147.455,20.417v-3.76l-1.8-.622V14.048l9.453,3.394v2.2l-9.453,3.394v-2Zm5.464-1.88-3.949-1.366V19.9Z" transform="translate(-1142.087 -14.048)" fill="#fff"/>
      <path id="Path_627" data-name="Path 627" d="M1149.282,42.07V40.488h-3.625V38.6h9.439V42.07c0,2.272-1.284,3.408-2.921,3.408C1150.742,45.478,1149.282,44.5,1149.282,42.07Zm1.527-.081c0,1.068.527,1.542,1.366,1.542.865,0,1.379-.473,1.379-1.542v-1.5h-2.745Z" transform="translate(-1142.087 -25.114)" fill="#fff"/>
      <path id="Path_628" data-name="Path 628" d="M1145.657,55.458V53.564h7.492v1.894h-1.164a2.6,2.6,0,0,1,1.272,2.3h-1.988v-.5c0-1.122-.433-1.8-1.88-1.8Z" transform="translate(-1142.087 -31.863)" fill="#fff"/>
      <path id="Path_629" data-name="Path 629" d="M1145.435,66.45a3.868,3.868,0,1,1,3.867,3.908A3.746,3.746,0,0,1,1145.435,66.45Zm1.65,0a1.993,1.993,0,0,0,2.217,1.961,1.94,1.94,0,1,0,0-3.84C1147.815,64.57,1147.085,65.435,1147.085,66.45Z" transform="translate(-1141.987 -35.959)" fill="#fff"/>
      <path id="Path_630" data-name="Path 630" d="M1150.218,80.025H1141.5a2.071,2.071,0,0,1-2.34-2.38v-.839h1.609v.541c0,.582.216.784.717.784h8.736Zm2-2.11a1.164,1.164,0,1,1-1.109,1.176A1.114,1.114,0,0,1,1152.219,77.915Z" transform="translate(-1139.156 -42.34)" fill="#fff"/>
      <path id="Path_631" data-name="Path 631" d="M1145.435,88.937a3.869,3.869,0,0,1,7.736,0,3.517,3.517,0,0,1-3.706,3.692,4.407,4.407,0,0,1-.73-.054V87.1A1.753,1.753,0,0,0,1147,88.9a1.544,1.544,0,0,0,.906,1.5v2.042A3.481,3.481,0,0,1,1145.435,88.937Zm4.571-1.825v3.557a1.664,1.664,0,0,0,1.609-1.785A1.74,1.74,0,0,0,1150.006,87.112Z" transform="translate(-1141.987 -46.115)" fill="#fff"/>
      <path id="Path_632" data-name="Path 632" d="M1153.171,104.074a3.343,3.343,0,0,1-2.651,3.53v-2.042a1.473,1.473,0,0,0,1.042-1.5c0-1.054-.8-1.758-2.259-1.758s-2.245.7-2.245,1.758a1.43,1.43,0,0,0,1.028,1.5V107.6a3.417,3.417,0,0,1-2.651-3.53,3.871,3.871,0,0,1,7.736,0Z" transform="translate(-1141.987 -52.963)" fill="#fff"/>
      <path id="Path_633" data-name="Path 633" d="M1151.594,115.886v-.892h1.555v.892H1155v1.907h-1.852v1.677h-1.555v-1.677h-3.624c-.5,0-.717.2-.717.8v.879h-1.6v-1.19c0-1.433.609-2.393,2.326-2.393Z" transform="translate(-1142.087 -59.556)" fill="#fff"/>
      <path id="Path_634" data-name="Path 634" d="M1145.435,134.427a3.868,3.868,0,1,1,3.867,3.908A3.746,3.746,0,0,1,1145.435,134.427Zm1.65,0a1.993,1.993,0,0,0,2.217,1.961,1.94,1.94,0,1,0,0-3.84C1147.815,132.547,1147.085,133.413,1147.085,134.427Z" transform="translate(-1141.987 -66.604)" fill="#fff"/>
      <path id="Path_635" data-name="Path 635" d="M1151.594,146.867v-.852h1.555v.852h.378c1.839,0,2.691,1.041,2.637,3.151h-1.6c.027-.919-.271-1.231-1.109-1.231h-.311V150.1h-1.555v-1.311h-5.937v-1.92Z" transform="translate(-1142.087 -73.541)" fill="#fff"/>
      <path id="Path_636" data-name="Path 636" d="M1147.455,166.862V163.1l-1.8-.622v-1.987l9.453,3.394v2.2l-9.453,3.394v-2Zm5.464-1.88-3.949-1.365v2.731Z" transform="translate(-1142.087 -80.068)" fill="#fff"/>
      <path id="Path_637" data-name="Path 637" d="M1145.657,181.073V179.18h7.492v1.893h-1.164a2.6,2.6,0,0,1,1.272,2.3h-1.988v-.5c0-1.123-.433-1.8-1.88-1.8Z" transform="translate(-1142.087 -88.492)" fill="#fff"/>
      <path id="Path_638" data-name="Path 638" d="M1155.664,189.127v1.893h-3.448a2.88,2.88,0,0,1,1.042,2.326c0,1.69-1.136,2.921-3.205,2.921h-4.395v-1.893h4.138a1.685,1.685,0,1,0,0-3.354h-4.138v-1.893Z" transform="translate(-1142.087 -92.977)" fill="#fff"/>
      <path id="Path_639" data-name="Path 639" d="M1153.171,207.936a2.964,2.964,0,0,1-1.19,2.475h1.068v1.906h-7.492v-1.906h1.1a2.955,2.955,0,0,1-1.218-2.488c0-1.893,1.555-3.408,3.895-3.408S1153.171,206.03,1153.171,207.936Zm-1.664.487a2,2,0,0,0-2.177-1.974,2.047,2.047,0,0,0-2.231,1.974,2.216,2.216,0,0,0,4.408,0Z" transform="translate(-1141.987 -99.914)" fill="#fff"/>
      <path id="Path_640" data-name="Path 640" d="M1149.8,232.575a1.676,1.676,0,1,0,0-3.34h-4.138v-1.893h4.138a1.682,1.682,0,1,0,0-3.354h-4.138V222.1h7.492v1.893h-.906a2.729,2.729,0,0,1,1.014,2.2,2.867,2.867,0,0,1-1.434,2.637,2.965,2.965,0,0,1,1.434,2.57,2.914,2.914,0,0,1-3.205,3.069h-4.395v-1.893Z" transform="translate(-1142.087 -107.839)" fill="#fff"/>
      <path id="Path_641" data-name="Path 641" d="M1145.485,250.956c0-1.961,1.028-3.475,2.813-3.5v2.029a1.3,1.3,0,0,0-1.258,1.433c0,.893.473,1.42,1.149,1.42,2.042,0,.811-4.868,4.232-4.855,1.7,0,2.731,1.38,2.731,3.326s-.987,3.259-2.691,3.381v-2.083a1.246,1.246,0,0,0,1.123-1.352c.027-.744-.338-1.3-1.109-1.3-1.893,0-.839,4.842-4.165,4.842C1146.824,254.3,1145.485,253.107,1145.485,250.956Z" transform="translate(-1142.009 -119.272)" fill="#fff"/>
      <path id="Path_642" data-name="Path 642" d="M1145.435,265.83a3.868,3.868,0,1,1,3.867,3.908A3.745,3.745,0,0,1,1145.435,265.83Zm1.65,0a1.994,1.994,0,0,0,2.217,1.961,1.94,1.94,0,1,0,0-3.841C1147.815,263.95,1147.085,264.815,1147.085,265.83Z" transform="translate(-1141.987 -125.843)" fill="#fff"/>
      <path id="Path_643" data-name="Path 643" d="M1151.594,278.27v-.852h1.555v.852h.378c1.839,0,2.691,1.041,2.637,3.151h-1.6c.027-.919-.271-1.231-1.109-1.231h-.311V281.5h-1.555V280.19h-5.937v-1.92Z" transform="translate(-1142.087 -132.78)" fill="#fff"/>
      <path id="Path_644" data-name="Path 644" d="M1151.594,286.9v-.892h1.555v.892H1155v1.907h-1.852v1.677h-1.555v-1.677h-3.624c-.5,0-.717.2-.717.8v.879h-1.6V289.3c0-1.434.609-2.394,2.326-2.394Z" transform="translate(-1142.087 -136.653)" fill="#fff"/>
    </g>
    <path id="Subtraction_5" data-name="Subtraction 5" d="M0,41,11.452,0,40.933,29.7,30,32.975l-5.133-4.516-3.955,7.915-7.142-4.929-2.316,6.13L0,41ZM16.345,18.687h0L14,27.994l8.307-2.361-5.964-6.946Z" transform="translate(1112.834 178.707)" fill="#fff"/>
  </g>
</svg>
