<svg xmlns="http://www.w3.org/2000/svg" width="320" height="82" viewBox="0 0 320 82">
  <g id="Group_115" data-name="Group 115" transform="translate(-40.693 -73.209)">
    <g id="Group_96" data-name="Group 96" transform="translate(352.841 85.092)">
      <path id="Path_515" data-name="Path 515" d="M467.327,89.26c.455,0,1.227.07,1.227.666,0,.561-2.769,5.37-2.769,10.283,0,3.509.561,7.72.561,8.422,0,.351-1.508.491-2.454.491-1.612,0-3.19-10.949-3.19-14.74,0-5.756.561-5.124,1.964-5.124ZM460.7,115.09a3.926,3.926,0,1,1,3.891,3.9A3.862,3.862,0,0,1,460.7,115.09Z" transform="translate(-460.702 -89.239)" fill="#44d7b1"/>
    </g>
    <g id="Group_111" data-name="Group 111" transform="translate(40.693 73.209)">
      <g id="Group_107" data-name="Group 107">
        <g id="Shape_7" data-name="Shape 7" transform="translate(11.28 11.516)">
          <path id="Path_516" data-name="Path 516" d="M77.923,88.744a22.02,22.02,0,0,0-21.978,21,21.58,21.58,0,0,0,4.519,14.139,22.567,22.567,0,0,1,5.341,10.6c.822,5.822-.205,5.406,6.778,5.406,1.233,0,1.028.208,1.028-2.495H70.118c-1.438.208-1.849-.208-1.849-1.455a21.744,21.744,0,0,0-4.519-12.059,30.183,30.183,0,0,1-4.108-7.069,17.921,17.921,0,0,1,3.9-18.921,17.713,17.713,0,0,1,19.1-6.029A19.013,19.013,0,0,1,96.821,114.11a20.107,20.107,0,0,1-4.108,8.733c-2.671,4.159-5.135,8.317-5.135,13.307a2.718,2.718,0,0,1-2.054,1.248H82.032v2.495h4.725c2.054,0,3.081-.832,3.286-3.119a13.2,13.2,0,0,1,.617-3.95,76.938,76.938,0,0,1,4.724-9.148A23.966,23.966,0,0,0,99.9,109.744,22.02,22.02,0,0,0,77.923,88.744Zm-.41,8.109V94.774c-8.011-.624-16.228,7.692-15.406,15.594,1.438.415,2.259.208,2.465-1.664a12.942,12.942,0,0,1,8.216-10.6A19.817,19.817,0,0,1,77.513,96.853Zm8.01,49.069a5.118,5.118,0,0,0,0-2.5H70.118v2.5Zm-16.638,2.287V150.7H86.756v-2.495Zm7.189-12.06v3.743h3.492a11.461,11.461,0,0,0,0-3.743h3.7a10.228,10.228,0,0,1,0-3.534c-1.438-.208-3.286.208-3.7,0a10.229,10.229,0,0,0,0-3.534H76.075v3.534H72.583v3.534Zm1.848,23.079a74.457,74.457,0,0,1,5.341-6.029H72.583Z" transform="translate(-55.928 -88.744)" fill="#fec12d"/>
        </g>
        <g id="Group_97" data-name="Group 97" transform="translate(2.225 37.764)">
          <path id="Path_517" data-name="Path 517" d="M43.938,127.593c-.822-1.645.616-2.879,2.054-3.5s3.287-.823,3.9.822c.822,1.646-.616,2.879-2.054,3.5C46.608,129.032,44.554,129.237,43.938,127.593Zm.616-.205c.411,1.028,1.849.822,3.081.411s2.26-1.44,1.644-2.468c-.411-1.028-1.849-.822-3.082-.411C45.17,125.33,44.143,126.153,44.554,127.387Z" transform="translate(-43.698 -123.643)" fill="#fec12d"/>
        </g>
        <g id="Group_98" data-name="Group 98" transform="translate(0 28.24)">
          <path id="Path_518" data-name="Path 518" d="M47.061,111.967l-5.341-.206,1.027,1.028-.411.411-1.643-1.645v-.618l6.368.411Z" transform="translate(-40.693 -110.938)" fill="#fec12d"/>
        </g>
        <g id="Group_99" data-name="Group 99" transform="translate(3.357 15.03)">
          <path id="Path_519" data-name="Path 519" d="M50.086,99.583l-.411-.411c-.411-2.879-.822-4.525-1.644-4.936a1.352,1.352,0,0,0-1.848.617,1.966,1.966,0,0,0,0,1.85l-.822.206a3.447,3.447,0,0,1,.205-2.468c.617-.823,1.644-1.646,2.671-.823,1.027.617,1.438,2.468,1.849,4.524l1.643-2.673.616.411Z" transform="translate(-45.227 -93.278)" fill="#fec12d"/>
        </g>
        <g id="Group_100" data-name="Group 100" transform="translate(11.708 5.244)">
          <path id="Path_520" data-name="Path 520" d="M59.176,85.938a2.091,2.091,0,0,0,1.849-.411c.822-.411,1.027-1.028.616-1.645s-1.027-.617-1.848,0c-.206,0-.411.205-.617.411l-.41-.617a2.982,2.982,0,0,0,.616-.411c.616-.411,1.027-1.028.616-1.646a1.3,1.3,0,0,0-1.849-.205,1.871,1.871,0,0,0-.821,1.645l-.822-.205A2.809,2.809,0,0,1,57.738,80.8c1.028-.618,2.055-.823,2.671.205a1.527,1.527,0,0,1-.205,2.056,1.669,1.669,0,0,1,2.259.411c.616.823.411,2.056-.821,2.879a3.869,3.869,0,0,1-2.466.411Z" transform="translate(-56.506 -80.283)" fill="#fec12d"/>
        </g>
        <g id="Group_101" data-name="Group 101" transform="translate(24.032 0.205)">
          <path id="Path_521" data-name="Path 521" d="M76.849,79.861l-.411-1.645-3.081.617-.206-.617L75,73.692l1.438-.206.822,3.907.822-.205.205.617-.822.205.206,1.646Zm-1.027-5.552-1.644,3.7,2.26-.411Z" transform="translate(-73.151 -73.486)" fill="#fec12d"/>
        </g>
        <g id="Group_102" data-name="Group 102" transform="translate(36.357)">
          <path id="Path_522" data-name="Path 522" d="M90.413,78.144a2.13,2.13,0,0,0,1.643,1.233c.822.206,1.644-.205,1.644-1.028.205-.822-.411-1.44-1.233-1.645a2.318,2.318,0,0,0-1.643.205l-.616-.411.821-3.291,3.9.822-.205.617-3.081-.617-.411,2.262a2.179,2.179,0,0,1,1.643-.205,2.026,2.026,0,0,1,1.644,2.468A2.189,2.189,0,0,1,91.851,80.2a3.148,3.148,0,0,1-2.054-1.44Z" transform="translate(-89.797 -73.209)" fill="#fec12d"/>
        </g>
        <g id="Group_103" data-name="Group 103" transform="translate(47.73 5.504)">
          <path id="Path_523" data-name="Path 523" d="M110.011,81.094a2.1,2.1,0,0,1,1.027,1.645l-.616.206a1.279,1.279,0,0,0-.822-1.234,2.156,2.156,0,0,0-2.875,1.028.2.2,0,0,1-.206.206,2.482,2.482,0,0,1,2.054.205,2.025,2.025,0,0,1,.617,2.879,2.19,2.19,0,0,1-3.082.411c-1.438-1.028-1.027-2.673-.205-4.113C106.93,80.888,108.573,80.066,110.011,81.094Zm-2.054,2.468a1.993,1.993,0,0,0-1.849-.205,1.9,1.9,0,0,0,.206,2.468,1.522,1.522,0,0,0,2.054-.206A1.262,1.262,0,0,0,107.957,83.561Z" transform="translate(-105.157 -80.634)" fill="#fec12d"/>
        </g>
        <g id="Group_104" data-name="Group 104" transform="translate(55.255 14.125)">
          <path id="Path_524" data-name="Path 524" d="M115.32,95.981l6.162-.617-1.644-2.879.616-.411,2.26,3.7-.411.206-6.573.822Z" transform="translate(-115.32 -92.074)" fill="#fec12d"/>
        </g>
        <g id="Group_105" data-name="Group 105" transform="translate(58.912 25.756)">
          <path id="Path_525" data-name="Path 525" d="M123.381,109.049c.205-.822.616-1.44,1.438-1.44,1.232,0,1.643,1.028,1.849,2.057,0,1.028-.411,2.262-1.438,2.262a1.79,1.79,0,0,1-1.644-1.234c-.205.822-.616,1.645-1.438,1.645a1.9,1.9,0,0,1-1.849-2.056,2.009,2.009,0,0,1,1.438-2.468C122.354,107.609,122.97,108.432,123.381,109.049Zm-.411.823c0-.411-.616-1.44-1.438-1.44-.616,0-1.027.823-1.027,1.645a1.374,1.374,0,0,0,1.232,1.44C122.765,111.516,122.97,110.283,122.97,109.871Zm2.876-.205c0-.823-.411-1.44-1.233-1.234-.821,0-1.027,1.028-1.027,1.44s.411,1.44,1.233,1.234C125.64,111.106,125.846,110.488,125.846,109.666Z" transform="translate(-120.26 -107.609)" fill="#fec12d"/>
        </g>
        <g id="Group_106" data-name="Group 106" transform="translate(57.163 37.391)">
          <path id="Path_526" data-name="Path 526" d="M119.686,123.968a2.108,2.108,0,0,0-1.027,1.233c-.411,1.234.822,2.057,2.055,2.262h.205a2.289,2.289,0,0,1-.616-2.056,2.131,2.131,0,0,1,2.465-1.646,2,2,0,0,1,1.438,2.674c-.411,1.851-2.054,2.056-3.7,1.645s-3.081-1.645-2.465-3.291a2.553,2.553,0,0,1,1.233-1.645Zm4.109,2.673a1.534,1.534,0,0,0-1.027-1.851,1.271,1.271,0,0,0-1.644,1.029,1.759,1.759,0,0,0,.617,1.85A1.533,1.533,0,0,0,123.794,126.641Z" transform="translate(-117.897 -123.145)" fill="#fec12d"/>
        </g>
        <g id="Shape_3_copy" data-name="Shape 3 copy" transform="translate(24.238 29.135)">
          <path id="Path_527" data-name="Path 527" d="M87.807,112.048l-5.341,5.758-5.341-5.758-3.7,14.19,3.286,1.851,2.67-8.02,3.081,5.758,2.465-5.552,3.9,8.637,2.67-2.879Z" transform="translate(-73.429 -112.048)" fill="#fec12d"/>
        </g>
      </g>
      <g id="Group_110" data-name="Group 110" transform="translate(77.119 10.955)">
        <g id="Group_108" data-name="Group 108">
          <path id="Path_528" data-name="Path 528" d="M170.668,89c.934,0,2.011-.539,2.011,6,0,13.84-8.151,24.768-8.833,24.768-1.58,0-5.242-9.49-6.427-9.49s-4.847,9.49-6.427,9.49c-.683,0-7.72-9.13-7.72-21.461,0-9.849.683-9.31,1.436-9.31h4.452c.359,0,.826.036.826.5a27.416,27.416,0,0,0-1.041,7.621c0,8.843,2.154,12.977,2.979,12.977,1.114,0,4.057-5.1,4.057-13.66a32.534,32.534,0,0,0-.646-6.974c0-.431.216-.467.61-.467h4.668c.466,0,.9.072.9.611a38.467,38.467,0,0,0-.683,6.723c0,8.016,2.046,13.768,3.124,13.768,1.365,0,3.878-6.327,3.878-12.366a42.429,42.429,0,0,0-1.221-8.2c0-.575.431-.539.755-.539Z" transform="translate(-143.271 -88.247)" fill="#8725fb"/>
          <path id="Path_529" data-name="Path 529" d="M185.458,110.6c0-8.7,4.811-13.012,9.622-13.012,3.95,0,7.289,2.228,7.289,6.471,0,7.729-11.561,6.11-11.561,9.849,0,1.689,2.728,2.912,4.524,2.912,5.888,0,5.888-4.494,6.391-4.494.538,0,.646,1.87.646,2.157,0,4.566-3.518,7.19-7.828,7.19C188.115,121.675,185.458,116.354,185.458,110.6Zm4.847-3.559c0,.4.179.791.646.791.431,0,6.966-1.437,6.966-3.271a2.9,2.9,0,0,0-3.016-2.732C191.993,101.831,190.305,104.959,190.305,107.044Z" transform="translate(-154.222 -90.471)" fill="#8725fb"/>
          <path id="Path_530" data-name="Path 530" d="M210.915,110.6c0-8.7,4.811-13.012,9.623-13.012,3.949,0,7.289,2.228,7.289,6.471,0,7.729-11.561,6.11-11.561,9.849,0,1.689,2.728,2.912,4.524,2.912,5.888,0,5.888-4.494,6.391-4.494.539,0,.646,1.87.646,2.157,0,4.566-3.518,7.19-7.828,7.19C213.572,121.675,210.915,116.354,210.915,110.6Zm4.848-3.559c0,.4.18.791.646.791.431,0,6.966-1.437,6.966-3.271a2.9,2.9,0,0,0-3.016-2.732C217.45,101.831,215.762,104.959,215.762,107.044Z" transform="translate(-160.831 -90.471)" fill="#8725fb"/>
          <path id="Path_531" data-name="Path 531" d="M238.745,118.651c-1.257,0-1.114-12.042-1.114-12.869,0-1.689-.144-17.794,1.473-17.794h3.842a.755.755,0,0,1,.861.791,57.027,57.027,0,0,0-1.328,13.373c0,1.259,0,2.876.467,2.876,1.221,0,4.488-4.745,4.488-8.628,0-.9.358-.755,1.113-.755h2.19c.718,0,1.544-.216,1.544.791,0,4.961-3.914,8.2-3.914,8.915,0,.755,1.473,1.33,2.945,3.164a14.486,14.486,0,0,1,2.945,9.167c0,1.079-.683.97-1.581.97h-2.908c-.969,0-1.293.036-1.329-1.114-.036-4.961-2.37-8.951-3.447-8.951a2.311,2.311,0,0,0-2.118,2.265,35.039,35.039,0,0,0,.9,7.369c0,.4-.359.431-.9.431Z" transform="translate(-167.765 -87.987)" fill="#8725fb"/>
          <path id="Path_532" data-name="Path 532" d="M261.3,110.6c0-8.7,4.811-13.012,9.623-13.012,3.949,0,7.289,2.228,7.289,6.471,0,7.729-11.562,6.11-11.562,9.849,0,1.689,2.73,2.912,4.525,2.912,5.888,0,5.888-4.494,6.391-4.494.539,0,.646,1.87.646,2.157,0,4.566-3.519,7.19-7.828,7.19C263.953,121.675,261.3,116.354,261.3,110.6Zm4.847-3.559c0,.4.18.791.646.791.43,0,6.966-1.437,6.966-3.271a2.9,2.9,0,0,0-3.016-2.732C267.831,101.831,266.143,104.959,266.143,107.044Z" transform="translate(-173.909 -90.471)" fill="#8725fb"/>
          <path id="Path_533" data-name="Path 533" d="M299.061,120.916c-.466,0-1.256.108-1.256-.575a43.65,43.65,0,0,0,1.831-12.438c0-2.552-.216-5.752-2.657-5.752-1.365,0-4.165.9-4.165,8.017a83.949,83.949,0,0,0,1.041,10.281c0,.5-.61.467-.969.467h-3.053c-1.328,0-1.867.612-1.867-8.879,0-16.284,1.257-15.278,4.022-15.278,1.256,0,2.549-.18,2.549.647,0,.36-.324.791-.324,1.294,0,.36.18.683.538.683.611,0,2.262-1.474,4.56-1.474,1.006,0,5.17.144,5.17,9.6,0,14.127-1.113,13.408-2.333,13.408Z" transform="translate(-180.832 -90.252)" fill="#8725fb"/>
          <path id="Path_534" data-name="Path 534" d="M321.061,118.651c-4.021,0-7.54-3.558-7.54-10.82,0-8.232,5.458-12.725,8.617-12.725.754,0,1.544.827,2.046.827.719,0,.826-1.294.826-1.869,0-2.912-.9-4.206-.9-5.572,0-.5.9-.5,1.257-.5H329.1c1.616,0,1.472,16.105,1.472,17.794,0,.827.144,12.869-1.113,12.869Zm4.668-13.373c0-6.327-.97-6.758-2.3-6.758-1.545,0-5.063,2.013-5.063,8.556,0,2.48.934,6.327,3.986,6.327C326.231,113.4,325.729,107.867,325.729,105.278Z" transform="translate(-187.466 -87.987)" fill="#8725fb"/>
          <path id="Path_535" data-name="Path 535" d="M357.245,118.913c-.9,0-1.975.683-1.975-12.8,0-17.758,1.867-17.111,2.477-17.111h9.3c6.356,0,7.326,2.947,7.326,5.248,0,3.954-4.094,6.255-4.094,7.369,0,1.259,5.781,4.17,5.781,10.353,0,3.523-2.119,6.938-8.007,6.938Zm8.761-19.519c1.041-.755,2.549-2.517,2.549-3.99,0-1.726-1.508-2.157-2.872-2.157-3.555,0-5.17,1.546-5.17,7.154,0,.719-.073,1.653.934,1.653a4.7,4.7,0,0,0,1.938-.79Zm-3.734,6.83c-.97.539-1.544.755-1.544,1.941,0,5.464,1.365,6.147,4.309,6.147,2.585,0,5.206-1.007,5.206-3.81,0-2.553-3.159-6.147-4.129-6.147a3.932,3.932,0,0,0-1.508.611Z" transform="translate(-198.304 -88.25)" fill="#44d7b1"/>
          <path id="Path_536" data-name="Path 536" d="M402.292,98.31c1.509,0,1.545,7.549,1.545,10.964,0,13.193-.934,12.582-3.519,12.582-3.77,0-.9-2.013-2.945-2.013-.322,0-1.148.755-1.795,1.186a4.843,4.843,0,0,1-2.656.827c-2.981,0-5.745-1.87-5.745-12.15,0-.612.251-11.4,1.758-11.4h3.3c.466,0,1.436-.18,1.436.539a36.137,36.137,0,0,0-1.652,10.928c0,2.013-.036,7.477,3.052,7.477,1.185,0,3.914-.359,3.914-8.088,0-4.313-1.256-9.849-1.256-10.425,0-.468.826-.431,1.221-.431Z" transform="translate(-206.587 -90.653)" fill="#44d7b1"/>
          <path id="Path_537" data-name="Path 537" d="M414.962,121.318c-.934,0-1.8.18-1.8-1.006,0-8.664,8.582-16,8.582-17.04,0-.683-1.185-.719-1.616-.719-3.052,0-3.77.935-4.417.935-.754,0-1.508-4.278-1.508-4.709,0-.611,1.114-.467,1.473-.467h10.808c1.005,0,1.58-.144,1.58,1.114,0,.431-.036,3.559-.431,4.278-1.185,2.229-8.079,8.987-8.079,12.582,0,.719.431.791,1.473.791,4.2,0,4.7-1.115,5.278-1.115.646,0,1.58,4.278,1.58,4.853,0,.54-1.077.5-1.4.5Z" transform="translate(-213.333 -90.654)" fill="#44d7b1"/>
          <path id="Path_538" data-name="Path 538" d="M437.608,121.318c-.933,0-1.795.18-1.795-1.006,0-8.664,8.581-16,8.581-17.04,0-.683-1.185-.719-1.616-.719-3.052,0-3.77.935-4.416.935-.754,0-1.509-4.278-1.509-4.709,0-.611,1.113-.467,1.473-.467h10.808c1.005,0,1.58-.144,1.58,1.114,0,.431-.036,3.559-.431,4.278-1.185,2.229-8.079,8.987-8.079,12.582,0,.719.431.791,1.473.791,4.2,0,4.7-1.115,5.278-1.115.647,0,1.58,4.278,1.58,4.853,0,.54-1.077.5-1.4.5Z" transform="translate(-219.212 -90.654)" fill="#44d7b1"/>
        </g>
        <g id="Group_109" data-name="Group 109" transform="translate(0 43.458)">
          <path id="Path_539" data-name="Path 539" d="M153.763,156.6a.4.4,0,0,1,.3.135l.808.887a5.768,5.768,0,0,1-2.064,1.551,7.094,7.094,0,0,1-2.931.549,6.849,6.849,0,0,1-2.719-.52,5.976,5.976,0,0,1-2.079-1.455,6.535,6.535,0,0,1-1.333-2.235,8.339,8.339,0,0,1-.472-2.863,7.966,7.966,0,0,1,.5-2.862,6.581,6.581,0,0,1,1.39-2.236A6.264,6.264,0,0,1,147.3,146.1a7.09,7.09,0,0,1,2.757-.521,6.694,6.694,0,0,1,2.619.483,6.586,6.586,0,0,1,1.992,1.281l-.674.954a.571.571,0,0,1-.168.174.473.473,0,0,1-.265.067.758.758,0,0,1-.428-.183,6.2,6.2,0,0,0-.645-.41,5.142,5.142,0,0,0-.986-.41,5.006,5.006,0,0,0-1.464-.183,4.8,4.8,0,0,0-1.886.362,4.163,4.163,0,0,0-1.478,1.041,4.718,4.718,0,0,0-.963,1.667,6.788,6.788,0,0,0-.342,2.23,6.568,6.568,0,0,0,.356,2.246,4.939,4.939,0,0,0,.982,1.667,4.159,4.159,0,0,0,1.473,1.04,4.664,4.664,0,0,0,1.829.357,7.206,7.206,0,0,0,1.074-.072,4.663,4.663,0,0,0,.876-.216,3.863,3.863,0,0,0,.755-.371,4.95,4.95,0,0,0,.7-.545.83.83,0,0,1,.164-.11A.405.405,0,0,1,153.763,156.6Z" transform="translate(-143.271 -145.575)" fill="#fd7083"/>
          <path id="Path_540" data-name="Path 540" d="M173.949,152.648a7.916,7.916,0,0,1-.5,2.848,6.567,6.567,0,0,1-1.4,2.236,6.306,6.306,0,0,1-2.166,1.46,7.784,7.784,0,0,1-5.6,0,6.243,6.243,0,0,1-2.166-1.46,6.66,6.66,0,0,1-1.4-2.236,8.338,8.338,0,0,1,0-5.691,6.643,6.643,0,0,1,1.4-2.24,6.306,6.306,0,0,1,2.166-1.465,7.722,7.722,0,0,1,5.6,0,6.37,6.37,0,0,1,2.166,1.465,6.551,6.551,0,0,1,1.4,2.24A7.928,7.928,0,0,1,173.949,152.648Zm-2.1,0a6.8,6.8,0,0,0-.337-2.216,4.716,4.716,0,0,0-.957-1.667,4.16,4.16,0,0,0-1.5-1.05,5.473,5.473,0,0,0-3.937,0,4.211,4.211,0,0,0-1.507,1.05,4.693,4.693,0,0,0-.963,1.667,7.474,7.474,0,0,0,0,4.437,4.709,4.709,0,0,0,.963,1.663,4.153,4.153,0,0,0,1.507,1.045,5.547,5.547,0,0,0,3.937,0,4.1,4.1,0,0,0,1.5-1.045,4.732,4.732,0,0,0,.957-1.663A6.777,6.777,0,0,0,171.85,152.648Z" transform="translate(-147.672 -145.575)" fill="#fd7083"/>
          <path id="Path_541" data-name="Path 541" d="M196.766,145.783v13.838h-1.79v-9.849c0-.147.005-.3.015-.472s.021-.337.033-.511l-4.6,8.451a.785.785,0,0,1-.741.472h-.289a.765.765,0,0,1-.732-.472l-4.688-8.48a9.537,9.537,0,0,1,.058,1.012v9.849h-1.8V145.783h1.521a1.309,1.309,0,0,1,.418.053.593.593,0,0,1,.284.294l4.62,8.288a5.663,5.663,0,0,1,.25.53c.077.186.15.372.221.559a9.238,9.238,0,0,1,.472-1.1l4.534-8.278a.559.559,0,0,1,.275-.294,1.31,1.31,0,0,1,.418-.053Z" transform="translate(-153.385 -145.629)" fill="#fd7083"/>
          <path id="Path_542" data-name="Path 542" d="M215.053,157.954l-.01,1.667h-8.567V145.783h8.567v1.667h-6.507v4.385h5.236v1.609h-5.236v4.51Z" transform="translate(-159.679 -145.629)" fill="#fd7083"/>
          <path id="Path_543" data-name="Path 543" d="M221.687,163.614a1.149,1.149,0,0,1-.851-.361,1.191,1.191,0,0,1-.246-.4,1.434,1.434,0,0,1-.086-.5,1.142,1.142,0,0,1,.086-.439,1.1,1.1,0,0,1,.246-.361,1.182,1.182,0,0,1,.381-.245,1.375,1.375,0,0,1,1.034.019,1.116,1.116,0,0,1,.395.308,1.328,1.328,0,0,1,.236.459,1.964,1.964,0,0,1,.077.559,3.664,3.664,0,0,1-.125.915,4.744,4.744,0,0,1-.366.954,5.3,5.3,0,0,1-.6.915,5.7,5.7,0,0,1-.808.819l-.318-.3a.407.407,0,0,1-.144-.3.271.271,0,0,1,.043-.139.727.727,0,0,1,.111-.14c.064-.07.147-.163.25-.279a3.672,3.672,0,0,0,.3-.4,4.085,4.085,0,0,0,.279-.5,2.371,2.371,0,0,0,.188-.583Z" transform="translate(-163.32 -149.621)" fill="#fd7083"/>
          <path id="Path_544" data-name="Path 544" d="M238.184,145.783a7.745,7.745,0,0,1,2.31.308,4.475,4.475,0,0,1,1.627.872,3.459,3.459,0,0,1,.958,1.363,4.844,4.844,0,0,1,.312,1.774,4.623,4.623,0,0,1-.337,1.787,3.825,3.825,0,0,1-.991,1.4,4.526,4.526,0,0,1-1.631.911,7.169,7.169,0,0,1-2.248.323h-2.137v5.1H234V145.783Zm0,7.122a4.24,4.24,0,0,0,1.372-.2,2.727,2.727,0,0,0,.991-.573,2.383,2.383,0,0,0,.6-.887,3.1,3.1,0,0,0,.2-1.142,2.565,2.565,0,0,0-.785-1.986,3.414,3.414,0,0,0-2.382-.723h-2.137v5.513Z" transform="translate(-166.823 -145.629)" fill="#fd7083"/>
          <path id="Path_545" data-name="Path 545" d="M257.639,157.9v1.725h-7.912V145.783h2.05V157.9Z" transform="translate(-170.906 -145.629)" fill="#fd7083"/>
          <path id="Path_546" data-name="Path 546" d="M273.924,159.621h-1.579a.7.7,0,0,1-.443-.134.765.765,0,0,1-.25-.348l-1.222-3.208h-6.093l-1.222,3.208a.784.784,0,0,1-.25.333.677.677,0,0,1-.443.149h-1.579l5.506-13.838h2.069Zm-4.053-5.156-2.05-5.368a12.079,12.079,0,0,1-.443-1.388q-.106.415-.216.771t-.217.636l-2.041,5.348Z" transform="translate(-173.791 -145.629)" fill="#fd7083"/>
          <path id="Path_547" data-name="Path 547" d="M283.766,154.148v5.473h-2.041v-5.473l-5.063-8.365h1.8a.678.678,0,0,1,.433.13,1,1,0,0,1,.269.342l3,5.176c.122.237.232.463.332.675s.188.42.264.626c.071-.205.152-.414.246-.626s.2-.437.323-.675l2.993-5.176a1.221,1.221,0,0,1,.264-.322.621.621,0,0,1,.428-.15h1.81Z" transform="translate(-177.898 -145.629)" fill="#fd7083"/>
          <path id="Path_548" data-name="Path 548" d="M312.5,159.567h-1.829a1.324,1.324,0,0,1-.486-.072,1.252,1.252,0,0,1-.4-.3l-1.279-1.292a6.842,6.842,0,0,1-2.075,1.335,6.606,6.606,0,0,1-2.565.486,4.53,4.53,0,0,1-1.526-.265,4.2,4.2,0,0,1-1.333-.766,3.875,3.875,0,0,1-.948-1.219,3.564,3.564,0,0,1-.361-1.623,3.632,3.632,0,0,1,.222-1.268,4.068,4.068,0,0,1,.616-1.108,4.814,4.814,0,0,1,.939-.911,6.382,6.382,0,0,1,1.178-.693,5.823,5.823,0,0,1-.832-1.441,4.016,4.016,0,0,1-.264-1.431,3.447,3.447,0,0,1,.259-1.33,3.2,3.2,0,0,1,.741-1.09,3.491,3.491,0,0,1,1.18-.732,4.314,4.314,0,0,1,1.573-.271,3.95,3.95,0,0,1,1.42.245,3.547,3.547,0,0,1,1.1.661,3.122,3.122,0,0,1,.727.954,2.99,2.99,0,0,1,.3,1.128l-1.175.24a.429.429,0,0,1-.519-.318,2.877,2.877,0,0,0-.217-.51,1.744,1.744,0,0,0-.366-.468,1.839,1.839,0,0,0-1.276-.477,2.153,2.153,0,0,0-.832.154,1.876,1.876,0,0,0-.63.42,1.808,1.808,0,0,0-.4.622,2.061,2.061,0,0,0-.14.761,2.5,2.5,0,0,0,.077.622,2.778,2.778,0,0,0,.236.607,3.84,3.84,0,0,0,.409.617c.167.208.366.432.6.669l3.9,4a6.683,6.683,0,0,0,.568-1.339,7.326,7.326,0,0,0,.279-1.407.535.535,0,0,1,.12-.308.368.368,0,0,1,.293-.115h1.165a7.627,7.627,0,0,1-.355,2.25,7.779,7.779,0,0,1-.982,2.028Zm-9-6.726a3.836,3.836,0,0,0-1.42,1.268,2.913,2.913,0,0,0-.466,1.586,2.506,2.506,0,0,0,.216,1.064,2.34,2.34,0,0,0,.578.785,2.482,2.482,0,0,0,.828.482,2.86,2.86,0,0,0,.957.164,4.509,4.509,0,0,0,1.839-.361,5.056,5.056,0,0,0,1.453-.969Z" transform="translate(-183.878 -145.575)" fill="#fd7083"/>
          <path id="Path_549" data-name="Path 549" d="M343.291,145.783l-4.312,13.838h-1.847l-3.37-10.262a4.916,4.916,0,0,1-.2-.742q-.105.443-.2.742l-3.407,10.262h-1.838L323.8,145.783h1.713a.763.763,0,0,1,.453.13.607.607,0,0,1,.241.352l2.724,9.26c.052.18.1.377.14.588s.084.434.13.665c.044-.231.092-.453.139-.665a5.465,5.465,0,0,1,.169-.588l3.119-9.26a.66.66,0,0,1,.245-.337.711.711,0,0,1,.447-.145h.587a.7.7,0,0,1,.443.135.761.761,0,0,1,.25.348l3.109,9.26a10.5,10.5,0,0,1,.308,1.2q.116-.665.25-1.2l2.734-9.26a.6.6,0,0,1,.241-.337.732.732,0,0,1,.452-.145Z" transform="translate(-190.134 -145.629)" fill="#fd7083"/>
          <path id="Path_550" data-name="Path 550" d="M354.836,159.621h-2.06V145.783h2.06Z" transform="translate(-197.656 -145.629)" fill="#fd7083"/>
          <path id="Path_551" data-name="Path 551" d="M371.48,145.783v13.838h-1.04a.824.824,0,0,1-.4-.087,1.182,1.182,0,0,1-.323-.279l-7.806-10.109c.013.173.024.344.034.511s.015.325.015.473v9.491h-1.8V145.783h1.06a1.026,1.026,0,0,1,.4.062.9.9,0,0,1,.3.285l7.825,10.119c-.019-.186-.034-.368-.043-.545s-.015-.342-.015-.5v-9.425Z" transform="translate(-199.573 -145.629)" fill="#fd7083"/>
        </g>
      </g>
    </g>
  </g>
</svg>
