<svg xmlns="http://www.w3.org/2000/svg" width="220" height="62" viewBox="0 0 220 62">
  <g id="Google_Store" data-name="Google Store" transform="translate(-127.71 -224.558)">
    <rect id="Rectangle_54" data-name="Rectangle 54" width="220" height="62" rx="31" transform="translate(127.71 224.558)" fill="#392372"/>
    <g id="Group_130" data-name="Group 130" transform="translate(15)">
      <g id="Group_128" data-name="Group 128">
        <path id="Path_589" data-name="Path 589" d="M223.014,257.111a5.331,5.331,0,1,0,5.38,5.331A5.27,5.27,0,0,0,223.014,257.111Zm0,8.561a3.237,3.237,0,1,1,3.025-3.23A3.091,3.091,0,0,1,223.014,265.672Zm-11.738-8.561a5.331,5.331,0,1,0,5.38,5.331A5.27,5.27,0,0,0,211.276,257.111Zm0,8.561a3.237,3.237,0,1,1,3.025-3.23A3.091,3.091,0,0,1,211.276,265.672Zm-13.963-6.925v2.261h5.442a4.709,4.709,0,0,1-1.239,2.847,5.583,5.583,0,0,1-4.2,1.656,6.017,6.017,0,0,1,0-12.034,5.821,5.821,0,0,1,4.1,1.615l1.6-1.6a7.958,7.958,0,0,0-5.706-2.281,8.28,8.28,0,1,0,0,16.556,7.631,7.631,0,0,0,5.807-2.322,7.446,7.446,0,0,0,1.97-5.29,7.35,7.35,0,0,0-.122-1.413Zm57.1,1.756a4.976,4.976,0,0,0-4.588-3.392,5.079,5.079,0,0,0-5.056,5.331,5.23,5.23,0,0,0,5.32,5.33,5.337,5.337,0,0,0,4.466-2.362L252.73,264.2a3.065,3.065,0,0,1-2.639,1.473,2.728,2.728,0,0,1-2.6-1.615l7.167-2.948Zm-7.309,1.777a2.931,2.931,0,0,1,2.8-3.109,2.077,2.077,0,0,1,1.99,1.131Zm-5.827,5.169h2.355V251.781h-2.355Zm-3.858-9.146h-.081a3.726,3.726,0,0,0-2.823-1.192,5.334,5.334,0,0,0,0,10.661,3.666,3.666,0,0,0,2.823-1.211h.081v.767c0,2.039-1.1,3.13-2.863,3.13a2.963,2.963,0,0,1-2.7-1.9l-2.051.848a5.108,5.108,0,0,0,4.751,3.15c2.761,0,5.1-1.616,5.1-5.553v-9.571h-2.233Zm-2.7,7.369a3.241,3.241,0,0,1,0-6.461,3.254,3.254,0,0,1,0,6.461Zm30.728-13.891h-5.635v15.668h2.351v-5.936h3.284a4.875,4.875,0,1,0,0-9.732Zm.061,7.552h-3.345v-5.371h3.345a2.686,2.686,0,1,1,0,5.371Zm14.533-2.25a4.419,4.419,0,0,0-4.2,2.4l2.088.867a2.231,2.231,0,0,1,2.148-1.149,2.261,2.261,0,0,1,2.473,2.016v.161a5.217,5.217,0,0,0-2.452-.605c-2.25,0-4.541,1.23-4.541,3.528a3.633,3.633,0,0,0,3.912,3.447,3.323,3.323,0,0,0,3-1.532h.081v1.209h2.271v-6.007C284.826,258.635,282.738,257.083,280.042,257.083Zm-.284,8.586c-.77,0-1.844-.382-1.844-1.33,0-1.209,1.337-1.673,2.493-1.673a4.21,4.21,0,0,1,2.148.524A2.845,2.845,0,0,1,279.758,265.669Zm13.338-8.244-2.7,6.793h-.081l-2.8-6.793h-2.533l4.2,9.494-2.392,5.281h2.452l6.466-14.775Zm-21.182,10.024h2.351V251.781h-2.351Z" fill="#d7c7fe"/>
        <path id="Path_590" data-name="Path 590" d="M164.92,254.91l-15.03,14.95a3.056,3.056,0,0,1-.18-1.1V241.07a3.056,3.056,0,0,1,.18-1.1Z" fill="#d7c7fe"/>
        <path id="Path_591" data-name="Path 591" d="M170.63,260.59,152.91,270.6a2.9,2.9,0,0,1-1.4.42,1.468,1.468,0,0,1-.56-.1l15.04-14.95Z" fill="#d7c7fe"/>
        <path id="Path_592" data-name="Path 592" d="M170.63,249.24l-4.64,4.62-15.04-14.95a2.388,2.388,0,0,1,1.96.32Z" fill="#d7c7fe"/>
        <path id="Path_593" data-name="Path 593" d="M177.47,256.72l-5.49,3.11-4.93-4.91,4.93-4.91,5.49,3.1C179.23,254.1,179.23,255.73,177.47,256.72Z" fill="#d7c7fe"/>
      </g>
      <g id="Group_129" data-name="Group 129">
        <path id="Path_594" data-name="Path 594" d="M194.922,240.2a2.7,2.7,0,0,0-1.786-.685,2.832,2.832,0,0,0,0,5.661,2.147,2.147,0,0,0,2.367-1.991h-2.109v-.866h3.249c0,2.59-1.388,3.81-3.507,3.81a3.783,3.783,0,0,1,0-7.566,3.677,3.677,0,0,1,2.507.974Z" fill="#d7c7fe"/>
        <path id="Path_595" data-name="Path 595" d="M202.4,238.644v.93h-3.39v2.355h2.96v.931h-2.96v2.226h3.5v.931h-4.5v-7.373Z" fill="#d7c7fe"/>
        <path id="Path_596" data-name="Path 596" d="M208.891,238.644v.941h-2.249v6.432h-1.011v-6.432h-2.249v-.941Z" fill="#d7c7fe"/>
        <path id="Path_597" data-name="Path 597" d="M213.692,238.644v7.373h-1v-7.373Z" fill="#d7c7fe"/>
        <path id="Path_598" data-name="Path 598" d="M220.515,238.644v.941h-2.249v6.432h-1.011v-6.432h-2.249v-.941Z" fill="#d7c7fe"/>
        <path id="Path_599" data-name="Path 599" d="M227.576,238.558a3.783,3.783,0,1,1-3.745,3.788A3.749,3.749,0,0,1,227.576,238.558Zm0,6.6a2.821,2.821,0,1,0-2.744-2.814A2.755,2.755,0,0,0,227.576,245.16Z" fill="#d7c7fe"/>
        <path id="Path_600" data-name="Path 600" d="M237.262,246.017l-3.379-5.554v5.554h-1v-7.373h.99l3.346,5.511v-5.511h1v7.373Z" fill="#d7c7fe"/>
      </g>
    </g>
  </g>
</svg>
