<svg xmlns="http://www.w3.org/2000/svg" width="260.006" height="66.007" viewBox="0 0 260.006 66.007">
  <g id="logo" transform="translate(-120.394 -235.653)">
    <g id="Group_112" data-name="Group 112">
      <g id="Group_96" data-name="Group 96">
        <path id="Path_515" data-name="Path 515" d="M380.4,245.87c0-.49-.63-.54-1-.54h-3.78c-1.15,0-1.6-.52-1.6,4.16,0,3.08,1.28,11.98,2.59,11.98.77,0,1.99-.12,1.99-.4,0-.57-.45-4-.45-6.85C378.15,250.23,380.4,246.32,380.4,245.87Zm-3.22,17.23a3.192,3.192,0,0,0-3.17,3.21v.05a3.139,3.139,0,0,0,3.16,3.12h.06a3.19,3.19,0,0,0-.05-6.38Z" fill="#fff"/>
      </g>
      <g id="Group_111" data-name="Group 111">
        <g id="Group_107" data-name="Group 107">
          <g id="Shape_7" data-name="Shape 7">
            <path id="Path_516" data-name="Path 516" d="M147.43,245.01a17.815,17.815,0,0,0-17.86,16.88,17.225,17.225,0,0,0,3.67,11.36,17.978,17.978,0,0,1,4.34,8.52c.67,4.68-.16,4.35,5.51,4.35,1,0,.84.16.84-2.01h-2.84c-1.17.17-1.5-.17-1.5-1.17a17.373,17.373,0,0,0-3.67-9.69,24.021,24.021,0,0,1-3.34-5.68,14.281,14.281,0,0,1,3.17-15.2,14.491,14.491,0,0,1,15.52-4.85,15.288,15.288,0,0,1,11.52,17.88,16.153,16.153,0,0,1-3.34,7.02c-2.17,3.34-4.18,6.68-4.18,10.69a2.154,2.154,0,0,1-1.66,1h-2.84v2.01h3.84c1.67,0,2.5-.67,2.67-2.51a10.3,10.3,0,0,1,.5-3.17,60.513,60.513,0,0,1,3.84-7.36,19.164,19.164,0,0,0,3.67-11.2A17.814,17.814,0,0,0,147.43,245.01Zm-12.85,17.38c1.17.33,1.84.17,2-1.34a10.431,10.431,0,0,1,6.68-8.52,16.326,16.326,0,0,1,3.84-1v-1.67C140.59,249.36,133.91,256.04,134.58,262.39Zm19.03,26.57H141.09v2h12.52A4.227,4.227,0,0,0,153.61,288.96Zm-13.52,3.84v2.01h14.52V292.8Zm11.68-12.53c-1.17-.17-2.67.17-3,0a8.462,8.462,0,0,0,0-2.84h-2.84v2.84h-2.84v2.84h2.84v3.01h2.84a9.5,9.5,0,0,0,0-3.01h3A7.971,7.971,0,0,1,151.77,280.27Zm-8.68,16.54,4.34,4.85a60.544,60.544,0,0,1,4.34-4.85Z" fill="#fff"/>
          </g>
          <g id="Group_97" data-name="Group 97">
            <path id="Path_517" data-name="Path 517" d="M127.24,267.07c-.5-1.34-2-1.17-3.17-.67s-2.34,1.5-1.67,2.84c.5,1.34,2.17,1.17,3.17.67C126.74,269.41,127.91,268.41,127.24,267.07Zm-1.84,2.34c-1,.33-2.17.5-2.5-.34-.34-1,.5-1.67,1.33-2,1-.34,2.17-.5,2.5.33C127.23,268.24,126.4,269.07,125.4,269.41Z" fill="#fff"/>
          </g>
          <g id="Group_98" data-name="Group 98">
            <path id="Path_518" data-name="Path 518" d="M125.568,259.215l-4.339-.167.834.835-.334.334-1.335-1.336v-.5l5.174.334Z" fill="#fff"/>
          </g>
          <g id="Group_99" data-name="Group 99">
            <path id="Path_519" data-name="Path 519" d="M127.07,252.864l-.334-.334c-.334-2.339-.668-3.676-1.336-4.011a1.1,1.1,0,0,0-1.484.467l-.016.033a1.6,1.6,0,0,0,0,1.5l-.668.167a2.8,2.8,0,0,1,.167-2.005c.5-.669,1.336-1.337,2.17-.669.834.5,1.168,2.005,1.5,3.676l1.335-2.172.5.334Z" fill="#fff"/>
          </g>
          <g id="Group_100" data-name="Group 100">
            <path id="Path_520" data-name="Path 520" d="M132.076,244.511a1.7,1.7,0,0,0,1.5-.334c.668-.334.834-.835.5-1.336s-.834-.5-1.5,0c-.167,0-.334.167-.5.334l-.333-.5a2.4,2.4,0,0,0,.5-.334c.5-.334.834-.835.5-1.337a1.055,1.055,0,0,0-1.481-.182l-.019.015a1.52,1.52,0,0,0-.667,1.336l-.668-.167a2.284,2.284,0,0,1,1-1.671c.835-.5,1.669-.669,2.17.167a1.24,1.24,0,0,1-.167,1.671,1.356,1.356,0,0,1,1.835.334,1.622,1.622,0,0,1-.49,2.241,1.692,1.692,0,0,1-.177.1,3.142,3.142,0,0,1-2,.334Z" fill="#fff"/>
          </g>
          <g id="Group_101" data-name="Group 101">
            <path id="Path_521" data-name="Path 521" d="M144.09,239.33l-.16-.5-.67.17-.67-3.18-1.17.17-1.5,3.68.17.5,2.5-.5.33,1.33.67-.16-.16-1.34Zm-3.34.17,1.34-3.01.5,2.67Z" fill="#fff"/>
          </g>
          <g id="Group_102" data-name="Group 102">
            <path id="Path_522" data-name="Path 522" d="M150.437,239.665a1.732,1.732,0,0,0,1.335,1c.668.167,1.336-.167,1.336-.835.167-.668-.334-1.17-1-1.336a1.882,1.882,0,0,0-1.335.167l-.5-.334.667-2.674,3.171.668-.167.5-2.5-.5-.334,1.838a1.773,1.773,0,0,1,1.335-.167,1.646,1.646,0,0,1,1.359,1.89c-.006.039-.014.077-.023.115a1.778,1.778,0,0,1-2.123,1.347l-.047-.011a2.561,2.561,0,0,1-1.674-1.167Z" fill="#fff"/>
          </g>
          <g id="Group_103" data-name="Group 103">
            <path id="Path_523" data-name="Path 523" d="M163.12,240.5c-1.17-.83-2.5-.17-3.34,1a3.95,3.95,0,0,0-.6,1.88,1.724,1.724,0,0,0,.77,1.47,1.784,1.784,0,0,0,2.5-.34.557.557,0,0,0,.05-.08,1.644,1.644,0,0,0-.55-2.26,2.039,2.039,0,0,0-1.6-.18.164.164,0,0,0,.1-.15,1.75,1.75,0,0,1,2.33-.84,1.037,1.037,0,0,1,.67,1l.5-.16A1.686,1.686,0,0,0,163.12,240.5Zm-1.67,2.01a.911.911,0,0,1,.33.22,1.026,1.026,0,0,1,0,1.45,1.224,1.224,0,0,1-1.66.16,1.526,1.526,0,0,1-.17-2A1.6,1.6,0,0,1,161.45,242.51Z" fill="#fff"/>
          </g>
          <g id="Group_104" data-name="Group 104">
            <path id="Path_524" data-name="Path 524" d="M165.288,250.192l5.007-.5-1.336-2.339.5-.334,1.836,3.007-.334.167-5.34.668Z" fill="#fff"/>
          </g>
          <g id="Group_105" data-name="Group 105">
            <path id="Path_525" data-name="Path 525" d="M171.97,256.37c-.67,0-1,.51-1.17,1.17-.34-.5-.84-1.17-1.34-1l-.01.01a1.625,1.625,0,0,0-1.15,2,.277.277,0,0,0-.01.09,1.543,1.543,0,0,0,1.51,1.58c.66,0,1-.67,1.16-1.34a1.473,1.473,0,0,0,1.34,1c.83,0,1.17-1,1.17-1.83C173.3,257.21,172.97,256.37,171.97,256.37Zm-1.51,1.84c0,.34-.16,1.34-1,1.34a1.121,1.121,0,0,1-1-1.17c0-.67.34-1.34.84-1.34.67,0,1.17.84,1.17,1.17Zm1.51,1.01c-.67.17-1-.67-1-1s.17-1.17.83-1.17c.67-.17,1,.33,1,1S172.63,259.22,171.97,259.22Z" fill="#fff"/>
          </g>
          <g id="Group_106" data-name="Group 106">
            <path id="Path_526" data-name="Path 526" d="M170.8,266.23a1.726,1.726,0,0,0-2,1.34,1.822,1.822,0,0,0,.5,1.67h-.17c-1-.17-2-.84-1.67-1.84a1.682,1.682,0,0,1,.83-1l-.33-.67a2.076,2.076,0,0,0-1,1.33c-.5,1.34.67,2.34,2,2.68s2.67.16,3-1.34a2.248,2.248,0,0,0,.08-.24A1.624,1.624,0,0,0,170.8,266.23Zm.83,2.34a.88.88,0,0,1-.05.15,1.238,1.238,0,0,1-1.62.69,1.442,1.442,0,0,1-.5-1.5,1.04,1.04,0,0,1,1.34-.84A1.244,1.244,0,0,1,171.63,268.57Z" fill="#fff"/>
          </g>
          <g id="Shape_3_copy" data-name="Shape 3 copy">
            <path id="Path_527" data-name="Path 527" d="M151.769,259.047l-4.339,4.679-4.339-4.679-3,11.529,2.67,1.5,2.17-6.517,2.5,4.679,2-4.511,3.171,7.018,2.17-2.339Z" fill="#fff"/>
          </g>
        </g>
        <g id="Group_110" data-name="Group 110">
          <g id="Group_108" data-name="Group 108">
            <path id="Path_528" data-name="Path 528" d="M205.313,245.17c.759,0,1.634-.438,1.634,4.877,0,11.245-6.623,20.124-7.177,20.124-1.284,0-4.259-7.711-5.222-7.711s-3.939,7.71-5.222,7.71c-.555,0-6.273-7.418-6.273-17.437,0-8,.555-7.565,1.167-7.565h3.617c.292,0,.671.029.671.409a22.313,22.313,0,0,0-.846,6.192c0,7.185,1.75,10.544,2.421,10.544.9,0,3.3-4.147,3.3-11.1a26.353,26.353,0,0,0-.525-5.666c0-.351.175-.379.5-.379h3.793c.379,0,.729.058.729.5a31.3,31.3,0,0,0-.555,5.462c0,6.513,1.663,11.186,2.538,11.186,1.109,0,3.151-5.141,3.151-10.047a34.446,34.446,0,0,0-.992-6.66c0-.467.35-.438.613-.438Z" fill="#fff"/>
            <path id="Path_529" data-name="Path 529" d="M221.65,262.31c-.41,0-.41,3.65-5.19,3.65-1.46,0-3.68-.99-3.68-2.36,0-3.04,9.39-1.72,9.39-8,0-3.45-2.71-5.26-5.92-5.26-3.91,0-7.82,3.51-7.82,10.57,0,4.68,2.16,9,7.38,9,3.5,0,6.36-2.14,6.36-5.84C222.17,263.83,222.09,262.31,221.65,262.31Zm-9.28-4.29c0-1.69,1.37-4.23,3.74-4.23a2.356,2.356,0,0,1,2.45,2.22c0,1.49-5.31,2.65-5.66,2.65C212.52,258.66,212.37,258.34,212.37,258.02Z" fill="#fff"/>
            <path id="Path_530" data-name="Path 530" d="M236.96,262.31c-.41,0-.41,3.65-5.19,3.65-1.46,0-3.68-.99-3.68-2.36,0-3.04,9.4-1.72,9.4-8,0-3.45-2.71-5.26-5.92-5.26-3.91,0-7.82,3.51-7.82,10.57,0,4.68,2.16,9,7.38,9,3.5,0,6.36-2.14,6.36-5.84C237.49,263.83,237.4,262.31,236.96,262.31Zm-9.27-4.29c0-1.69,1.37-4.23,3.73-4.23a2.344,2.344,0,0,1,2.45,2.22c0,1.49-5.31,2.65-5.66,2.65C227.83,258.66,227.69,258.34,227.69,258.02Z" fill="#fff"/>
            <path id="Path_531" data-name="Path 531" d="M240.724,269.469c-1.022,0-.9-9.784-.9-10.456,0-1.373-.117-14.458,1.2-14.458h3.122a.614.614,0,0,1,.7.519.57.57,0,0,1,0,.124,46.352,46.352,0,0,0-1.079,10.865c0,1.023,0,2.337.38,2.337.992,0,3.647-3.855,3.647-7.01,0-.73.291-.613.9-.613h1.779c.584,0,1.254-.175,1.254.643,0,4.031-3.18,6.659-3.18,7.243,0,.614,1.2,1.08,2.393,2.571a11.771,11.771,0,0,1,2.392,7.448c0,.876-.555.788-1.284.788h-2.362c-.787,0-1.05.029-1.08-.9-.029-4.031-1.926-7.273-2.8-7.273a1.878,1.878,0,0,0-1.721,1.84,28.53,28.53,0,0,0,.729,5.987c0,.322-.292.351-.729.351Z" fill="#fff"/>
            <path id="Path_532" data-name="Path 532" d="M267.28,262.31c-.41,0-.41,3.65-5.2,3.65-1.46,0-3.67-.99-3.67-2.36,0-3.04,9.39-1.72,9.39-8,0-3.45-2.71-5.26-5.92-5.26-3.91,0-7.82,3.51-7.82,10.57,0,4.68,2.15,9,7.38,9,3.5,0,6.36-2.14,6.36-5.84C267.8,263.83,267.71,262.31,267.28,262.31ZM258,258.02h-.01c0-1.69,1.38-4.23,3.74-4.23a2.344,2.344,0,0,1,2.45,2.22c0,1.49-5.31,2.65-5.66,2.65C258.14,258.66,258,258.34,258,258.02Z" fill="#fff"/>
            <path id="Path_533" data-name="Path 533" d="M279.114,269.47c-.379,0-1.021.088-1.021-.467a35.474,35.474,0,0,0,1.488-10.106c0-2.074-.175-4.673-2.159-4.673-1.109,0-3.384.73-3.384,6.514a68.149,68.149,0,0,0,.845,8.349c0,.409-.5.379-.788.379h-2.48c-1.079,0-1.517.5-1.517-7.214,0-13.231,1.022-12.413,3.268-12.413,1.021,0,2.071-.146,2.071.526,0,.292-.263.643-.263,1.052,0,.292.146.555.437.555.5,0,1.838-1.2,3.705-1.2.818,0,4.2.117,4.2,7.8,0,11.478-.9,10.894-1.9,10.894Z" fill="#fff"/>
            <path id="Path_534" data-name="Path 534" d="M299.33,259.01c0-1.37.12-14.45-1.2-14.45H295.1c-.29,0-1.02,0-1.02.4,0,1.11.73,2.17.73,4.53,0,.47-.09,1.52-.67,1.52-.41,0-1.05-.67-1.67-.67-2.56,0-7,3.65-7,10.34,0,5.9,2.86,8.79,6.13,8.79h6.83C299.45,269.47,299.33,259.69,299.33,259.01Zm-6.68,6.2c-2.48,0-3.24-3.13-3.24-5.14,0-5.32,2.86-6.96,4.12-6.96,1.07,0,1.86.35,1.86,5.49v.01C295.39,260.71,295.8,265.21,292.65,265.21Z" fill="#fff"/>
            <path id="Path_535" data-name="Path 535" d="M322.78,255.42c0-.91,3.33-2.78,3.33-5.99,0-1.5-.51-3.33-3.36-4-.1-.02-.21-.05-.32-.07a11.327,11.327,0,0,0-1.68-.17,5.717,5.717,0,0,0-.59-.02H312.6c-.49,0-2.01-.53-2.01,13.9,0,10.95.87,10.4,1.6,10.4h8.79a9.435,9.435,0,0,0,1.45-.1,3.1,3.1,0,0,0,.32-.04,5.282,5.282,0,0,0,4.73-5.5C327.48,258.8,322.78,256.44,322.78,255.42Zm-5.98-6.37a2.691,2.691,0,0,1,.52-.21,5.372,5.372,0,0,1,1.73-.23c.14,0,.28.01.42.02a2.587,2.587,0,0,1,1.28.41,1.5,1.5,0,0,1,.63,1.32,3.216,3.216,0,0,1-.63,1.71,6.391,6.391,0,0,1-1.28,1.42c-.06.04-.11.08-.16.12l-1.99,1.42-.14.1a4.076,4.076,0,0,1-1.57.64.655.655,0,0,1-.29-.05c-.51-.15-.47-.79-.47-1.3a10.564,10.564,0,0,1,.47-3.58,3.535,3.535,0,0,1,.79-1.3A2.618,2.618,0,0,1,316.8,249.05Zm5.63,14.94a3.07,3.07,0,0,1-1.68,1.37,5.843,5.843,0,0,1-1.28.31,7.46,7.46,0,0,1-.95.06,7.235,7.235,0,0,1-1.2-.08,2.637,2.637,0,0,1-.52-.13,1.825,1.825,0,0,1-.82-.53,2.7,2.7,0,0,1-.66-1.24,11.692,11.692,0,0,1-.3-3.02,1.262,1.262,0,0,1,.3-.94,3.536,3.536,0,0,1,.96-.63l1.04-.57.85-.46a3.23,3.23,0,0,1,1.23-.5.2.2,0,0,1,.07.01,3.081,3.081,0,0,1,1.28.96,8.969,8.969,0,0,1,1.68,2.59,3.916,3.916,0,0,1,.32,1.44A2.876,2.876,0,0,1,322.43,263.99Z" fill="#fff"/>
            <path id="Path_536" data-name="Path 536" d="M342.064,250.777c1.226,0,1.255,6.134,1.255,8.908,0,10.719-.759,10.223-2.859,10.223-3.063,0-.729-1.636-2.392-1.636-.262,0-.933.614-1.458.964a3.934,3.934,0,0,1-2.158.672c-2.422,0-4.668-1.519-4.668-9.872,0-.5.2-9.259,1.429-9.259H333.9c.379,0,1.167-.146,1.167.438a29.377,29.377,0,0,0-1.342,8.879c0,1.636-.029,6.075,2.48,6.075.963,0,3.18-.292,3.18-6.572a62.167,62.167,0,0,0-1.021-8.47c0-.38.671-.351.992-.351Z" fill="#fff"/>
            <path id="Path_537" data-name="Path 537" d="M346.877,269.469c-.759,0-1.459.146-1.459-.817,0-7.04,6.973-13,6.973-13.845,0-.555-.963-.584-1.313-.584-2.48,0-3.063.759-3.588.759-.612,0-1.225-3.476-1.225-3.826,0-.5.9-.379,1.2-.379h8.781c.817,0,1.284-.117,1.284.905a13.729,13.729,0,0,1-.35,3.476c-.963,1.811-6.564,7.3-6.564,10.223,0,.584.35.643,1.2.643a8.14,8.14,0,0,0,4.288-.906c.525,0,1.284,3.476,1.284,3.943,0,.438-.875.409-1.138.409Z" fill="#fff"/>
            <path id="Path_538" data-name="Path 538" d="M360.5,269.469c-.758,0-1.458.146-1.458-.817,0-7.04,6.972-13,6.972-13.845,0-.555-.963-.584-1.313-.584-2.48,0-3.063.759-3.588.759-.613,0-1.226-3.476-1.226-3.826,0-.5.9-.379,1.2-.379h8.781c.817,0,1.284-.117,1.284.905a13.729,13.729,0,0,1-.35,3.476c-.963,1.811-6.564,7.3-6.564,10.223,0,.584.35.643,1.2.643a8.14,8.14,0,0,0,4.288-.906c.526,0,1.284,3.476,1.284,3.943,0,.438-.875.409-1.138.409Z" fill="#fff"/>
          </g>
          <g id="Group_109" data-name="Group 109">
            <path id="Path_539" data-name="Path 539" d="M191.582,288.2a.323.323,0,0,1,.243.11l.656.72a4.677,4.677,0,0,1-1.677,1.261,5.755,5.755,0,0,1-2.382.446,5.562,5.562,0,0,1-2.209-.423,4.868,4.868,0,0,1-1.689-1.182,5.32,5.32,0,0,1-1.083-1.816,6.771,6.771,0,0,1-.384-2.326,6.491,6.491,0,0,1,.4-2.325,5.358,5.358,0,0,1,1.13-1.816,5.1,5.1,0,0,1,1.74-1.182,5.751,5.751,0,0,1,2.24-.423,5.438,5.438,0,0,1,2.128.392,5.339,5.339,0,0,1,1.618,1.041l-.547.775a.453.453,0,0,1-.137.142.384.384,0,0,1-.215.055.617.617,0,0,1-.348-.149,4.837,4.837,0,0,0-.524-.333,4.184,4.184,0,0,0-.8-.333,4.08,4.08,0,0,0-1.189-.149,3.908,3.908,0,0,0-1.532.294,3.391,3.391,0,0,0-1.2.846,3.834,3.834,0,0,0-.782,1.355,5.519,5.519,0,0,0-.278,1.812,5.369,5.369,0,0,0,.289,1.825,4.023,4.023,0,0,0,.8,1.355,3.384,3.384,0,0,0,1.2.845,3.788,3.788,0,0,0,1.486.29,5.914,5.914,0,0,0,.872-.058,3.781,3.781,0,0,0,.712-.176,3.118,3.118,0,0,0,.614-.3,4.018,4.018,0,0,0,.571-.443.706.706,0,0,1,.133-.09A.335.335,0,0,1,191.582,288.2Z" fill="#fff"/>
            <path id="Path_540" data-name="Path 540" d="M204,282.68a5.361,5.361,0,0,0-1.13-1.82,5.126,5.126,0,0,0-1.76-1.19,6.267,6.267,0,0,0-4.55,0,5.033,5.033,0,0,0-1.76,1.19,5.236,5.236,0,0,0-1.14,1.82,6.79,6.79,0,0,0,0,4.62,5.235,5.235,0,0,0,1.14,1.82,5.077,5.077,0,0,0,1.76,1.19,6.371,6.371,0,0,0,4.55,0,5.27,5.27,0,0,0,1.76-1.19A5.36,5.36,0,0,0,204,287.3a6.87,6.87,0,0,0,0-4.62Zm-1.57,4.11a4.018,4.018,0,0,1-.78,1.36,3.22,3.22,0,0,1-1.22.84,4.416,4.416,0,0,1-3.2,0,3.3,3.3,0,0,1-1.22-.84,3.859,3.859,0,0,1-.78-1.36,5.977,5.977,0,0,1,0-3.6,3.859,3.859,0,0,1,.78-1.36,3.448,3.448,0,0,1,1.22-.85,4.416,4.416,0,0,1,3.2,0,3.361,3.361,0,0,1,1.22.85,3.859,3.859,0,0,1,.78,1.36,6.135,6.135,0,0,1,0,3.6Z" fill="#fff"/>
            <path id="Path_541" data-name="Path 541" d="M218.3,279.366V290.61h-1.455v-8c0-.12,0-.248.012-.384s.017-.274.027-.415l-3.738,6.867a.637.637,0,0,1-.6.384h-.235a.623.623,0,0,1-.594-.384l-3.809-6.89a7.782,7.782,0,0,1,.047.822v8h-1.462V279.366h1.236a1.056,1.056,0,0,1,.34.043.48.48,0,0,1,.231.239l3.754,6.734a4.547,4.547,0,0,1,.2.431c.063.151.122.3.18.454a7.405,7.405,0,0,1,.383-.893l3.684-6.726a.453.453,0,0,1,.223-.239,1.056,1.056,0,0,1,.34-.043Z" fill="#fff"/>
            <path id="Path_542" data-name="Path 542" d="M228.045,289.255l-.008,1.355h-6.96V279.366h6.96v1.355H222.75v3.562H227v1.308h-4.254v3.664Z" fill="#fff"/>
            <path id="Path_543" data-name="Path 543" d="M230.476,290.61a.935.935,0,0,1-.692-.293.982.982,0,0,1-.2-.325,1.173,1.173,0,0,1-.07-.407.95.95,0,0,1,.07-.357.909.909,0,0,1,.2-.293.956.956,0,0,1,.309-.2,1.12,1.12,0,0,1,.84.015.9.9,0,0,1,.321.251,1.077,1.077,0,0,1,.192.373,1.586,1.586,0,0,1,.063.454,2.956,2.956,0,0,1-.1.743,3.86,3.86,0,0,1-.3.775,4.28,4.28,0,0,1-.485.744,4.538,4.538,0,0,1-.656.666l-.259-.242a.331.331,0,0,1-.117-.243.218.218,0,0,1,.035-.113.587.587,0,0,1,.09-.114c.052-.057.12-.133.2-.227a2.982,2.982,0,0,0,.246-.325,3.314,3.314,0,0,0,.227-.408,1.91,1.91,0,0,0,.153-.473Z" fill="#fff"/>
            <path id="Path_544" data-name="Path 544" d="M245.01,281.43a2.743,2.743,0,0,0-.78-1.1,3.454,3.454,0,0,0-1.32-.71,5.944,5.944,0,0,0-1.87-.25h-3.4v11.24h1.66v-4.14h1.74a5.936,5.936,0,0,0,1.82-.26,3.953,3.953,0,0,0,1.33-.74,3.233,3.233,0,0,0,.8-1.14,3.818,3.818,0,0,0,.28-1.45A3.961,3.961,0,0,0,245.01,281.43Zm-1.57,2.37a1.862,1.862,0,0,1-.48.72,2.357,2.357,0,0,1-.81.47,3.51,3.51,0,0,1-1.11.16H239.3v-4.48h1.74a2.809,2.809,0,0,1,1.93.59,2.082,2.082,0,0,1,.64,1.61A2.437,2.437,0,0,1,243.44,283.8Z" fill="#fff"/>
            <path id="Path_545" data-name="Path 545" d="M253.524,289.208v1.4H247.1V279.366h1.666v9.842Z" fill="#fff"/>
            <path id="Path_546" data-name="Path 546" d="M259.94,279.37h-1.68l-4.47,11.24h1.28a.578.578,0,0,0,.36-.12.6.6,0,0,0,.2-.27l1-2.61h4.95l.99,2.61a.629.629,0,0,0,.2.28.516.516,0,0,0,.36.11h1.28Zm-2.86,7.05,1.66-4.34c.06-.16.12-.33.18-.52s.11-.4.17-.63a10.616,10.616,0,0,0,.36,1.13l1.67,4.36Z" fill="#fff"/>
            <path id="Path_547" data-name="Path 547" d="M269.071,286.163v4.447h-1.659v-4.447l-4.114-6.8h1.463a.547.547,0,0,1,.352.106.8.8,0,0,1,.218.278l2.44,4.2c.1.193.189.375.27.548s.153.341.215.508c.058-.167.124-.336.2-.508s.163-.355.262-.548l2.432-4.2a.988.988,0,0,1,.215-.262.5.5,0,0,1,.348-.122h1.471Z" fill="#fff"/>
            <path id="Path_548" data-name="Path 548" d="M285.21,288.22a6,6,0,0,0,.8-1.65,6.3,6.3,0,0,0,.29-1.83h-.95a.29.29,0,0,0-.23.1.374.374,0,0,0-.1.25,6.4,6.4,0,0,1-.23,1.14,6.141,6.141,0,0,1-.46,1.09l-3.17-3.25c-.18-.19-.35-.38-.48-.54a4.009,4.009,0,0,1-.34-.5,3.027,3.027,0,0,1-.19-.5,2.074,2.074,0,0,1-.06-.5,1.883,1.883,0,0,1,.11-.62,1.4,1.4,0,0,1,.33-.51,1.628,1.628,0,0,1,.51-.34,1.694,1.694,0,0,1,.67-.12,1.466,1.466,0,0,1,1.04.39,1.264,1.264,0,0,1,.3.38,3,3,0,0,1,.18.41.348.348,0,0,0,.42.26l.95-.2a2.459,2.459,0,0,0-.24-.92,2.634,2.634,0,0,0-.59-.77,2.77,2.77,0,0,0-.9-.54,3.082,3.082,0,0,0-1.16-.2,3.521,3.521,0,0,0-1.28.22,2.759,2.759,0,0,0-.95.59,2.458,2.458,0,0,0-.6.89,2.509,2.509,0,0,0-.21,1.08,3.264,3.264,0,0,0,.21,1.16,4.709,4.709,0,0,0,.68,1.17,5.123,5.123,0,0,0-.96.56,3.807,3.807,0,0,0-.76.74,3.078,3.078,0,0,0-.5.9,2.8,2.8,0,0,0-.18,1.03,2.861,2.861,0,0,0,.29,1.32,3.113,3.113,0,0,0,.77.99,3.365,3.365,0,0,0,1.08.63,3.756,3.756,0,0,0,1.24.21,5.326,5.326,0,0,0,2.09-.4,5.619,5.619,0,0,0,1.68-1.08l1.04,1.05a1,1,0,0,0,.33.24.864.864,0,0,0,.39.06h1.49Zm-2.91.98a3.633,3.633,0,0,1-1.49.29,2.281,2.281,0,0,1-.78-.13,2.035,2.035,0,0,1-.67-.39,1.965,1.965,0,0,1-.47-.64,2.151,2.151,0,0,1-.18-.87,2.338,2.338,0,0,1,.38-1.28,3.032,3.032,0,0,1,1.16-1.03l3.23,3.26A3.941,3.941,0,0,1,282.3,289.2Z" fill="#fff"/>
            <path id="Path_549" data-name="Path 549" d="M307.493,279.366l-3.5,11.244h-1.5l-2.738-8.338a4,4,0,0,1-.164-.6q-.086.36-.164.6l-2.769,8.338h-1.5l-3.5-11.244h1.392a.623.623,0,0,1,.368.106.487.487,0,0,1,.2.286l2.213,7.524c.042.146.079.306.114.478s.069.352.105.54c.036-.188.075-.368.113-.54a4.645,4.645,0,0,1,.137-.478l2.534-7.524a.541.541,0,0,1,.2-.274.579.579,0,0,1,.363-.118h.477a.573.573,0,0,1,.36.11.616.616,0,0,1,.2.282l2.524,7.525a8.461,8.461,0,0,1,.25.979q.095-.54.2-.979l2.221-7.524a.49.49,0,0,1,.2-.274.6.6,0,0,1,.367-.118Z" fill="#fff"/>
            <path id="Path_550" data-name="Path 550" d="M310.762,290.61h-1.674V279.366h1.674Z" fill="#fff"/>
            <path id="Path_551" data-name="Path 551" d="M322.727,279.366V290.61h-.845a.675.675,0,0,1-.324-.07.965.965,0,0,1-.262-.227l-6.343-8.213c.011.141.019.279.028.415s.012.264.012.384v7.712H313.53V279.366h.861a.833.833,0,0,1,.328.051.714.714,0,0,1,.242.231l6.358,8.222c-.016-.151-.028-.3-.035-.443s-.012-.278-.012-.4v-7.658Z" fill="#fff"/>
          </g>
        </g>
      </g>
    </g>
    <g id="Group_526" data-name="Group 526">
      <path id="Path_2027" data-name="Path 2027" d="M316.8,241.38v7.67a2.618,2.618,0,0,0-.69.49,3.664,3.664,0,0,0-2.27,1.71v-9.87Z" fill="#fff"/>
      <path id="Path_2028" data-name="Path 2028" d="M317.32,255.03v3.56l-1.04.57a3.536,3.536,0,0,0-.96.63v-4.07a.655.655,0,0,0,.29.05,4.076,4.076,0,0,0,1.57-.64Z" fill="#fff"/>
      <path id="Path_2029" data-name="Path 2029" d="M316.8,265.52v7.74h-2.96v-9.91a2.783,2.783,0,0,0,2.14,1.64A1.825,1.825,0,0,0,316.8,265.52Z" fill="#fff"/>
      <path id="Path_2030" data-name="Path 2030" d="M322.43,241.38v19.81a8.969,8.969,0,0,0-1.68-2.59,3.081,3.081,0,0,0-1.28-.96v-4.15a6.391,6.391,0,0,0,1.28-1.42,3.216,3.216,0,0,0,.63-1.71,1.5,1.5,0,0,0-.63-1.32,2.587,2.587,0,0,0-1.28-.41v-7.25Z" fill="#fff"/>
      <path id="Path_2031" data-name="Path 2031" d="M322.43,263.99v9.27h-2.96v-7.59a5.843,5.843,0,0,0,1.28-.31A3.07,3.07,0,0,0,322.43,263.99Z" fill="#fff"/>
    </g>
  </g>
</svg>
