<svg xmlns="http://www.w3.org/2000/svg" xmlns:xlink="http://www.w3.org/1999/xlink" width="1920" height="1909.146" viewBox="0 0 1920 1909.146">
  <defs>
    <clipPath id="clip-path">
      <path id="Path_2034" data-name="Path 2034" d="M1920,4664.853H0V6573.718c173.249,0,295.681,10.15,423.187-91.665s143.683-294.978,152.247-400.6S584,5842.618,751.468,5717.015s356.828-64.705,475.77-18.08,326.379,112.282,481.48,58.044S1920,5642.795,1920,5642.795Z" transform="translate(0 -4664.852)" fill="#3f91c8"/>
    </clipPath>
  </defs>
  <g id="Group_532" data-name="Group 532" transform="translate(0 -0.001)">
    <path id="Path_2024" data-name="Path 2024" d="M1920,4664.853H0V6573.718c173.249,0,295.681,10.15,423.187-91.665s143.683-294.978,152.247-400.6S584,5842.618,751.468,5717.015s356.828-64.705,475.77-18.08,326.379,112.282,481.48,58.044S1920,5642.795,1920,5642.795Z" transform="translate(0 -4664.852)" fill="#3f91c8"/>
    <g id="Mask_Group_4" data-name="Mask Group 4" clip-path="url(#clip-path)">
      <path id="Path_2026" data-name="Path 2026" d="M1553.75,2876.835,1438.417,1438.417,1323.094,2876.835ZM0,2876.835H213.535L1438.417,1438.417,0,2663.3Zm0-702.847,1438.417-735.571L0,1903.456Zm2876.835-270.532L1438.417,1438.417l1438.417,735.571ZM0,1553.75l1438.417-115.333L0,1323.094ZM2173.988,2876.835,1438.417,1438.417l465.038,1438.417Zm702.847,0V2663.3L1438.417,1438.417,2663.3,2876.835Zm-1903.456,0,465.038-1438.417L702.857,2876.835ZM2876.835,702.847,1438.417,1438.417,2876.835,973.379Zm0-702.847H2663.3L1438.417,1438.417,2876.835,213.535Zm0,1323.094L1438.417,1438.417,2876.835,1553.75ZM1903.466,0,1438.417,1438.417,2173.988,0ZM0,973.379l1438.417,465.038L0,702.847ZM0,0V213.535L1438.417,1438.417,213.535,0ZM1323.094,0l115.323,1438.417L1553.75,0ZM702.857,0l735.561,1438.417L973.379,0Z" transform="translate(-46.417 -726.417)" fill="#999" opacity="0.2" style="mix-blend-mode: overlay;isolation: isolate"/>
    </g>
    <path id="Path_2037" data-name="Path 2037" d="M4130.854-1161.75,3766.043-834.832h182.43L3766.043-497.61l428-393.374H4017.666Z" transform="translate(-3476.044 1412.3)" fill="#579fcf"/>
    <g id="Group_529" data-name="Group 529">
      <path id="Path_2032" data-name="Path 2032" d="M3570.834-1095.645l23.86,39.506,2.918-17.154,29.222,23.648-29.222-46-4.112,14.5Z" transform="translate(-3447.834 1459.645)" fill="#fff"/>
      <path id="Path_2036" data-name="Path 2036" d="M3570.834-1095.645l23.86,39.506,2.918-17.154,29.222,23.648-29.222-46-4.112,14.5Z" transform="translate(-2843.834 1756.645)" fill="#fff"/>
      <path id="Path_2035" data-name="Path 2035" d="M3670.66-1095.645l-42.532,70.423-5.2-30.579-52.091,42.156,52.091-82,7.331,25.852Z" transform="translate(-3362.834 1802.645)" fill="#fec12d"/>
      <path id="Path_2033" data-name="Path 2033" d="M3832.377-1161.75l-66.333,59.443h33.171l-33.171,61.317,77.823-71.527H3811.8Z" transform="translate(-3154.867 1421.23)" fill="#fec12d"/>
      <path id="Path_2038" data-name="Path 2038" d="M3887.315-1161.75l-121.271,108.674h60.643l-60.643,112.1,142.276-130.766h-58.631Z" transform="translate(-2502.956 1541.99)" fill="#85b9dc"/>
      <path id="Path_2039" data-name="Path 2039" d="M3570.834-1095.645l64.317,106.494,7.867-46.242,78.772,63.748-78.772-124-11.085,39.094Z" transform="translate(-1830.834 1660.645)" fill="#fec12d"/>
    </g>
    <g id="Group_528" data-name="Group 528">
      <g id="Group_510" data-name="Group 510" transform="translate(982.664 320.862)" opacity="0.507">
        <path id="Path_1953" data-name="Path 1953" d="M-64.883,89.269c1.963,1.167,3.947,2.3,5.87,3.515,3.622,2.282,3.841,2.958,2.554,6.991-.975,3.058-.975,3.038,2.262,3.688.491.1,1.333.6,1.3.783a2.489,2.489,0,0,1-.875,1.685c-3.224,1.784-6.514,3.482-9.83,5.1-.537.265-1.665.272-1.917-.053A2.681,2.681,0,0,1-66,108.724a23.859,23.859,0,0,1,2.792-4.252c4.988-6.262,4.822-8.251-1.983-12.284a169.708,169.708,0,0,0-15.17-7.827c-10.726-4.948-21.551-9.678-32.323-14.52-3.5-1.572-7-3.184-10.467-4.842-4.04-1.93-4.842-1.771-7.071,2.275-2.54,4.6-4.769,9.392-7.436,13.923a54.905,54.905,0,0,1-6.1,8.212c-.882.988-2.839,2.043-3.84,1.7-2.016-.67-1.6-2.832-.982-4.438,1.6-4.106,3.25-8.212,5.068-12.218,1.7-3.741,1.738-3.807-2.2-5.505a8.264,8.264,0,0,1-1.758-1.473,6.68,6.68,0,0,1,2.176-.862c5-.013,6.958,2.919,5.041,7.449-1.386,3.283-2.773,6.56-4.132,9.843a6.628,6.628,0,0,0-.232,1.221c.411-.232.968-.352,1.194-.7,3.045-4.789,6.089-9.571,9.027-14.44,1.24-2.056,2.1-4.358,3.356-6.427,1.957-3.237,3.111-3.721,6.706-2.235,4.073,1.678,7.946,3.821,11.959,5.631,10,4.51,20.045,8.9,30.034,13.432,5.943,2.7,11.813,5.565,17.717,8.371C-64.7,88.931-64.8,89.1-64.883,89.269Z" transform="translate(30.232 2.809)" fill="#fff"/>
        <path id="Path_1954" data-name="Path 1954" d="M-136.883,75.065c1.559-2.361,3.045-4.776,4.716-7.058a8.63,8.63,0,0,1,2.8-2.521,3.492,3.492,0,0,1,2.733-.1,2.445,2.445,0,0,1,.564,2.222c-1.114,3.038-2.043,6.268-3.8,8.915s-4.451,4.683-6.653,7.064a7.357,7.357,0,0,0-.915,2.129c.776.066,1.8.471,2.288.119a10.153,10.153,0,0,0,3.429-3.316c1.433-2.912,1.313-3.025,4.112-1.161a2.156,2.156,0,0,1,.332.265l2.62,2.441c-1.128.358-2.282.663-3.389,1.094a17.755,17.755,0,0,0-2.64,1.307c-1.22.716-2.348,1.612-3.608,2.255-1.864.968-3.847,1.227-5.618-.166-1.506-1.194-1.877-4.166-.75-6.315,1.267-2.368,2.739-4.643,4.112-6.958C-136.658,75.211-136.77,75.144-136.883,75.065Zm5.592-.245c.7-1.373,1.346-2.487,1.817-3.661.172-.424-.053-1.015-.093-1.539-.425.325-1.008.557-1.267.982-1.32,2.169-2.593,4.378-3.82,6.607a3,3,0,0,0-.093,1.161c.378-.113.9-.093,1.1-.345C-132.751,76.935-131.961,75.761-131.292,74.819Z" transform="translate(73.976 28.913)" fill="#fff"/>
        <path id="Path_1955" data-name="Path 1955" d="M-146.465,67.653a40.807,40.807,0,0,1,4.961-3.423,4.172,4.172,0,0,1,5.419.968c1.413,1.585,2.779,3.157,1.817,5.651a61.152,61.152,0,0,0-1.678,6.116c-.63,2.322-1.426,2.64-2.812.716-1.141-1.572-2.368-1.048-3.728-1.068C-147.088,76.562-149.3,72.661-146.465,67.653Zm5.081,2.9v.013a12.556,12.556,0,0,0,1.95-1.625,5.82,5.82,0,0,0,.683-1.8c-.63-.2-1.28-.65-1.871-.57-1.89.259-4.5,2.938-4.318,4.656.093.823,1.207,2.215,1.784,2.182a17.387,17.387,0,0,0,4.272-1.34C-139.712,71.567-140.548,71.063-141.384,70.552Z" transform="translate(37.889 20.345)" fill="#fff"/>
        <path id="Path_1956" data-name="Path 1956" d="M-140.149,69.745c.531.743,1.055,1.492,1.579,2.235a7.523,7.523,0,0,1-2.6.783c-4.8-.431-9.711-4.285-10.5-8.066-.491-2.381.1-3.224,2.249-2.388a62.413,62.413,0,0,1,9.027,4.59c.484.285.186,1.87.252,2.852-.245-.139-.491-.285-.729-.411q-1.652-.886-3.3-1.764l-.153.5c1.24.564,2.5,1.1,3.768,1.638A1.38,1.38,0,0,0-140.149,69.745Z" transform="translate(14.765 11.104)" fill="#fff"/>
        <path id="Path_1957" data-name="Path 1957" d="M-134.722,67.345c-.371-.451-.75-.9-1.128-1.353.471-.279.988-.849,1.4-.776a12.48,12.48,0,0,1,4.371,1.148c2.109,1.227,2.255,3.011.279,4.384-2.122,1.466-3.157,2.428-.086,3.854.371.172.789,1.227.657,1.36a2.588,2.588,0,0,1-1.658.849,7.987,7.987,0,0,1-3.3-.69c-1.413-.783-3.4-1.711-3.728-2.952-.57-2.1,1.851-2.361,3.323-3.1a12.687,12.687,0,0,0,1.924-1.446c-.557-.551-1.108-1.094-1.658-1.652C-134.464,67.1-134.59,67.225-134.722,67.345Z" transform="translate(92.656 29.211)" fill="#fff"/>
        <path id="Path_1958" data-name="Path 1958" d="M-140,71.184a10.39,10.39,0,0,1,1.87.968c.358.3.816.988.7,1.293-.139.385-.829.59-1.307.8a1.692,1.692,0,0,1-.836.013c-1.857-.292-4.4.418-4.942-2.182-.484-2.355,1.784-2.832,3.429-3.6a11.962,11.962,0,0,0,1.519-.75c1.526-.935,1.711-1.764-.146-2.6a9.546,9.546,0,0,1-1.97-1.572c.9-.225,1.977-.882,2.667-.6a7.3,7.3,0,0,1,3.489,2.507c.922,1.565-.232,2.932-1.632,3.867-.942.63-1.9,1.24-2.832,1.857Z" transform="translate(55.573 16.138)" fill="#fff"/>
        <path id="Path_1959" data-name="Path 1959" d="M-153.866,65.287c2.176-3.588,5.877-5.134,8.49-3.953.63.279.982,1.154,1.459,1.758a7.2,7.2,0,0,1-1.811.716c-1.1.119-2.341-.279-3.31.106-2.66,1.028-4.192,5.306-.8,7.084a6.1,6.1,0,0,1,1.453.889c.365.352.842.962.736,1.307a1.833,1.833,0,0,1-1.267.889,4.9,4.9,0,0,1-5.525-4.636A17.351,17.351,0,0,1-153.866,65.287Z" transform="translate(0 5.181)" fill="#fff"/>
        <path id="Path_1960" data-name="Path 1960" d="M-136.717,74.151c-1.433.524-2.865,1.426-4.278,1.393-.663-.007-1.3-1.851-1.89-2.9-.869-1.526.531-1.758,1.327-2.494,1.32-1.227,2.328-2.786,3.608-4.046.491-.491,1.406-.544,2.116-.8a5,5,0,0,1-.159,1.917c-.962,1.791-1.8,3.515-.657,5.552C-136.485,73.076-136.684,73.567-136.717,74.151Z" transform="translate(63.615 29.774)" fill="#fff"/>
        <path id="Path_1961" data-name="Path 1961" d="M-151.352,60.023l.084.279-.272-.052Z" transform="translate(16.412 0)" fill="#fff"/>
        <path id="Path_1962" data-name="Path 1962" d="M-146.771,64.678v0Z" transform="translate(43.276 26.219)" fill="#fff"/>
      </g>
      <g id="Group_515" data-name="Group 515" transform="matrix(0.951, 0.309, -0.309, 0.951, 1122.19, 132.405)" opacity="0.776">
        <path id="Path_1970" data-name="Path 1970" d="M-82.522,138.329c2.214,10.176,4.251,19.623,6.325,29.057a4.73,4.73,0,0,0,.685,1.155c.235-.463.66-.926.66-1.383a4.825,4.825,0,0,0-.419-2.392c-1.485-2.525-.755-5.443-1.561-8.076-.089-.3.133-.711.222-1.072a3.3,3.3,0,0,1,.666.882c.336,1,.577,2.024.856,3.039-.127-1.142-.2-2.309-.406-3.439-2-10.779-4.466-21.482-5.9-32.337-1.339-10.189-3.54-20.429-2.684-30.757.457-5.38-1.96-9.637-3.508-14.287-.749-2.214-2.157-4.035-4.872-4.282-1.256-.121-1.4-1.25-1.5-2.233-.2-1.954-.273-3.914-.495-5.869-.216-1.7-.514-3.4-.863-5.075a1.86,1.86,0,0,0-2.227-1.478c-1.079.1-1.307.92-1.307,1.764,0,3.026-.07,6.059.152,9.066.127,1.827-.057,3.083-1.979,3.921a4.978,4.978,0,0,0-2.1,2.563c-1.542,3.559-1.542,7.321-1.021,11.109.127.964.349,1.929.438,2.9.025.247-.3.52-.45.78-.254-.184-.59-.3-.73-.546a3.535,3.535,0,0,1-.368-1.167c-.66-3.826-1.021-7.715.19-11.432a18.61,18.61,0,0,1,3.337-5.6,4.162,4.162,0,0,0,1.1-2.8c.025-3.191.146-6.382.279-9.574a2.5,2.5,0,0,1,1.84-2.582c2.646-.818,3.914-.14,4.308,2.608.457,3.159.831,6.325,1.148,9.5a2.486,2.486,0,0,0,1.669,2.436c2.76,1.034,4.2,3.324,5.228,5.881,1.136,2.811,2.157,5.665,3.191,8.514.647,1.8,1.117,3.591.12,5.462a3.25,3.25,0,0,0-.26,1.681c.406,5.792.793,11.578,1.288,17.364.222,2.6.634,5.2,1.04,7.785q1.132,7.023,2.366,14.034c1.2,6.839,2.442,13.685,3.68,20.518.108.647.273,1.288.393,1.929.235,1.224.742,1.732,2.2,1.548a2.738,2.738,0,0,1,2.969,3.946,1.931,1.931,0,0,1-2.322,1.326c-1.053-.171-1.332.425-1.167,1.307s.425,1.751.609,2.633c.127.546.412,1.224.216,1.643-.869,1.814-.247,3.547.082,5.3.508,2.652,1.066,5.3,1.586,7.949a10.319,10.319,0,0,1,.286,1.941,2.546,2.546,0,0,1-2.182,2.284c-1.3.133-1.434-.914-1.586-1.764q-.923-5.2-1.732-10.411a4.248,4.248,0,0,0-1.58-3.147,4.731,4.731,0,0,1-1.37-2.665c-1.275-5.907-2.455-11.845-3.673-17.764-.882-4.251-1.694-8.52-2.7-12.739-1.313-5.488-2.8-10.931-4.206-16.394-.247-.958-.431-1.922-.666-2.874q-2.255-8.927-4.511-17.84a3.378,3.378,0,0,1-.2-1.434c.076-.387.514-.7.787-1.034a3.577,3.577,0,0,1,.6.939c1.561,5.6,3.2,11.166,4.606,16.8C-85.98,123.293-84.2,131.192-82.522,138.329Zm9.567,40.635a.475.475,0,0,0,.133-.013c.228,1.129.45,2.252.685,3.369a4.384,4.384,0,0,0,.273.672c.089-.247.273-.514.241-.742-.4-2.83-.837-5.659-1.294-8.476-.025-.2-.235-.362-.362-.546-.082.216-.266.431-.247.628C-73.348,175.57-73.139,177.27-72.955,178.964Zm1.237-19.439a7.125,7.125,0,0,0,1.256.444c.1.013.374-.45.343-.469a2.42,2.42,0,0,0-.812-.634C-71.051,158.821-71.312,159.176-71.718,159.525Z" transform="translate(24.898 0)" fill="#fff"/>
        <path id="Path_1971" data-name="Path 1971" d="M-108.924,158.641c-1.408.013-1.3-.73-1.186-1.364.355-2.011.761-4.016,1.142-6.021.431-2.252,1-4.435.082-6.757a4.984,4.984,0,0,1,.285-2.874,141.723,141.723,0,0,1,6.535-18.5c6.3-14.046,12.283-28.232,18.386-42.361,1.65-3.838,3.274-7.683,4.9-11.528.032-.07.076-.14.108-.222.33-.831.45-2.081,1.053-2.392.584-.3,1.656.387,2.519.6,4.765,1.186,9.1.78,12.416-3.375a3.244,3.244,0,0,1,.888-.831A.962.962,0,0,1-60.929,63a.913.913,0,0,1,.108.876,10.676,10.676,0,0,1-1.554,2.176,11.344,11.344,0,0,1-5.951,3.261,4.768,4.768,0,0,0-3.445,2.741A79.353,79.353,0,0,0-77.792,86c-1.427,4.01-3.1,7.937-4.746,11.858-3.21,7.613-6.427,15.233-9.764,22.8-2.925,6.649-6.052,13.222-9.041,19.845a11.912,11.912,0,0,0-1,3.274c-.2,1.51-.216,2.982-2.284,3.1-.273.013-.628.52-.755.869-.92,2.785-1.77,5.583-2.665,8.381C-108.328,157-108.651,157.873-108.924,158.641Zm4.454-14.268a4.691,4.691,0,0,0,.749-1.136c.336-1,.438-2.1.85-3.064,1.821-4.3,3.489-8.666,5.621-12.809,5.082-9.91,9.345-20.194,13.615-30.465,3.413-8.229,6.75-16.489,10.087-24.749.286-.7.565-2.1.336-2.221a5.868,5.868,0,0,0-3.185-.85c-.6.07-1.275,1.155-1.611,1.922-1.878,4.27-3.642,8.584-5.513,12.86-3.42,7.778-6.941,15.525-10.316,23.334q-4.282,9.926-8.279,19.947c-1.535,3.87-2.83,7.842-4.168,11.788a13.208,13.208,0,0,0-.654,3.362A2.045,2.045,0,0,0-104.47,144.372Z" transform="translate(0 26.953)" fill="#fff"/>
        <path id="Path_1972" data-name="Path 1972" d="M-105.083,65.3a3.864,3.864,0,0,1,2.868-3.73,3.4,3.4,0,0,1,3.185,2.506,3.684,3.684,0,0,1-2.937,3.68A2.824,2.824,0,0,1-105.083,65.3Zm5.094-1.117a8.184,8.184,0,0,0-2.182-.634c-.914.082-1.561.717-1.224,1.65.146.412,1.066.945,1.4.812C-101.377,65.759-100.914,65.074-99.988,64.179Z" transform="translate(27.1 19.741)" fill="#fff"/>
        <path id="Path_1973" data-name="Path 1973" d="M-100.689,66.235a2.35,2.35,0,0,1-2.963-1.776c-.4-1.44.508-2.608,2.36-3.014,1.618-.362,2.8.2,3.121,1.472C-97.821,64.306-98.982,65.842-100.689,66.235Zm1.256-2.969c-.8-.127-1.275-.349-1.485-.2a5.162,5.162,0,0,0-.964,1.2c.349.114.78.425,1.015.311A7.848,7.848,0,0,0-99.433,63.266Z" transform="translate(34.348 18.567)" fill="#fff"/>
      </g>
      <path id="Path_1974" data-name="Path 1974" d="M-99.649,104.062c1.627-14.793,3.772-29.563,2.876-44.521-.071-1.049-.106-2.122-.106-3.183,0-5.729,1.344-6.365,7.108-6.7,6.047-.342,8.31,2.64,9.76,7.709A18.885,18.885,0,0,0-68.742,70.209c7.45,3.23,15.371,13.143,12.459,23.964-1.12,4.232-2.381,8.463-3.913,12.554a13.073,13.073,0,0,1-3.289,4.3c-.625.6-1.827.636-2.77.931A13.891,13.891,0,0,1-66,109.131c1.037-3.3,2.322-6.518,3.277-9.831,1.6-5.67-1.261-9.937-5.281-13.143-2.664-2.11-6.188-3.206-9.43-4.479-2.346-.931-2.923.955-3.088,2.711-.6,5.74-1.226,11.493-1.568,17.257-.377,6.412-1.084,12.73-3.843,18.624a9.9,9.9,0,0,0-.247,7.945c2.346,6.719.389,11.434-6,14.734-6.672,3.43-13.52,6.188-21.17,6.7a18.793,18.793,0,0,1-12.047-3.371c-5.293-3.583-8.2-8.676-7.285-15.206,1.756-12.377,7.568-17.681,18.695-18.836,2.546-.248,5.292.955,7.862,1.756,3.477,1.049,4.432.731,5.222-2.735C-100.344,108.895-100.061,106.455-99.649,104.062ZM-59.454,91v.024c.731-7.509-4.067-15.878-11.328-18.435-5.21-1.839-8.287-5.422-10.609-10.008-1.155-2.31-2.039-4.75-3.23-7.049a5.914,5.914,0,0,0-6.66-2.6c-2.711.766-2.782,2.876-2.57,5.116.9,9.571.248,19.107-.9,28.632A146.191,146.191,0,0,0-96.278,103c-.035,5.021-1.415,9.583-3.112,14.145-1.273,3.407-1.686,3.5-4.786,1.556a18.062,18.062,0,0,0-13.968-2.322c-6.99,1.591-9.383,7.061-10.726,13.343-2.063,9.677,4.5,14.946,11.469,16.066,9.89,1.6,18.459-2.593,26.569-7.615,3.029-1.862,3.784-5.163,1.8-7.45-2.805-3.253-2.475-6.495-.778-9.725,4.02-7.685,4.137-16.066,4.809-24.376.531-6.648,1-13.32,1.6-19.98a3.035,3.035,0,0,1,1.143-2.2,2.646,2.646,0,0,1,2.275.849c2.039,2.523,4.845,3.513,7.744,4.5a18.327,18.327,0,0,1,9.383,6.943C-61.811,88.232-60.6,89.587-59.454,91Z" transform="translate(428.853 210.828)" fill="#fff" opacity="0.272"/>
      <g id="Group_516" data-name="Group 516" transform="translate(634.21 792.766)">
        <path id="Path_1975" data-name="Path 1975" d="M-128.9,182.052c-3.363,3.772-6.124,6.782-8.78,9.884a44.379,44.379,0,0,0-3.965,5.181c-2.159,3.382-5.429,5.33-8.8,7.148-1.433.776-2.538.4-3.344-1.042-1.049-1.9-2.029-3.865-2.885-5.857-.912-2.122-1.576-4.337-2.463-6.459-1.427-3.413-2.9-6.788-4.436-10.157-2.761-6.056-5.888-11.981-8.246-18.186-1.557-4.089-4.263-6.664-7.719-8.885-4.939-3.164-9.847-6.4-14.761-9.611-.5-.316-1.024-.6-1.52-.924a1.315,1.315,0,0,0-2.128.54,5.219,5.219,0,0,1-3.133,2.575,5.676,5.676,0,0,1-2.7.081c-1.272-.292-1.632-1.167-1.179-2.438a10.576,10.576,0,0,1,1.111-2.519c2.7-3.822,5.392-7.65,8.246-11.342,1.408-1.818,2.513-1.787,4.455-.484a1.836,1.836,0,0,1,.7,2.848,4.5,4.5,0,0,1-.745.931c-.745.7-.577,1.16.279,1.65q8.8,4.923,17.565,9.915c.515.3,1.018.627,1.514.943a6.911,6.911,0,0,0,6.043.918,28.5,28.5,0,0,1,3.506-.589c1.744-.341,3.456-.856,5.212-1.086,3.189-.422,6.4-.738,9.6-1.005,3.22-.279,6.434-.484,9.654-.664a45.347,45.347,0,0,1,5.113-.056c1.775.093,3.537.434,5.305.565a33.39,33.39,0,0,1,11.739,3.32c3.406,1.576,5.119,4.852,3.245,9.071a89.448,89.448,0,0,1-7.477,13.706C-122.861,174.463-125.647,179.03-128.9,182.052Zm-1.688.3a102.172,102.172,0,0,0,11.119-15.375c2.234-3.8,4.12-7.818,6.081-11.783.875-1.781.9-3.673-.627-5.131a12.418,12.418,0,0,0-3.419-2.333c-5.708-2.556-11.851-3.115-17.969-3.171-4.6-.05-9.214.639-13.818.98-1.439.1-2.916-.031-4.337.192-2.594.409-5.156,1.024-7.737,1.526a39.9,39.9,0,0,0-4.666.85,5.649,5.649,0,0,1-4.759-.465q-8.87-5.016-17.727-10.039c-1.384-.776-2.848-1.4-4.207-2.209a9.892,9.892,0,0,1-1.619-1.57c.558-.4,1.111-.807,1.669-1.2.05-.037.136-.05.168-.1.279-.472.85-1.018.757-1.415a1.761,1.761,0,0,0-1.272-.987,2.146,2.146,0,0,0-1.563.546,19.752,19.752,0,0,0-2.153,2.569c-1.9,2.606-3.779,5.224-5.615,7.88A12.038,12.038,0,0,0-203.7,143.7c-.391,1.018.056,1.5,1.129,1.471a4.652,4.652,0,0,0,4.114-3.915,6.926,6.926,0,0,1,.347-1.2,4.351,4.351,0,0,1,1.408.484c.67.509,1.154,1.291,1.855,1.756,3.009,2.016,6.081,3.946,9.115,5.938,3.319,2.172,6.639,4.331,9.884,6.583a9.65,9.65,0,0,1,3.58,3.878c4.2,9.257,8.463,18.478,12.682,27.722.571,1.266,1.03,2.587,1.563,3.859,1.613,3.9,3.214,7.805,4.883,11.683.62,1.408,1.154,1.57,2.488.869a23.671,23.671,0,0,0,8.308-7.166c2.11-2.941,4.424-5.746,6.8-8.476C-134.03,185.452-132.249,183.956-130.586,182.349Z" transform="translate(0 0)" fill="#fff"/>
        <path id="Path_1976" data-name="Path 1976" d="M-179.288,140.9c2.457-2.165,4.877-4.393,7.4-6.515A6.067,6.067,0,0,1-167,132.652a1.4,1.4,0,0,0,1.173-.385c.583-.924,1.061-.788,1.669-.068a9.037,9.037,0,0,0,5.324,3.146c2.407.472,2.817,1.452,1.824,3.679s-2.035,4.436-3.189,6.583a26.669,26.669,0,0,1-1.936,2.457,35.164,35.164,0,0,0-2.823,4.5,70.388,70.388,0,0,1-12.794,17.975c-1.52,1.619-3.388,2.9-5.007,4.449-1.806,1.725-3.5,3.58-5.274,5.342a25.322,25.322,0,0,1-2.656,2.37c-1.185.887-2.227.825-3.077-.4a12.754,12.754,0,0,1-1.626-3.754,43.292,43.292,0,0,1-.838-4.672c-.056-.329.006-.819-.18-.949-1.638-1.129-.515-2.432-.254-3.648a27.666,27.666,0,0,1,5.715-11.373c2.482-3.152,4.523-6.639,6.782-9.965C-182.577,145.6-180.945,143.293-179.288,140.9Zm16.269,5.882c2.749-2.352,3.89-5.6,5.007-8.836.366-1.042-.534-1.259-1.315-1.551a27.185,27.185,0,0,1-4.089-1.83c-1.4-.813-1.6-.85-2.339.707-1.16,2.445-2.246,4.92-3.462,7.334A20.838,20.838,0,0,1-172,147.369c-3.878,4.225-6.8,9.245-11.063,13.123q-4.523,4.123-9.046,8.252a18.972,18.972,0,0,0-2.153,2.01,3.026,3.026,0,0,0-.763,1.954,46.547,46.547,0,0,0,1.21,6.993c.627,2.228,2.407,2.488,4.008.831,1.923-1.986,3.816-4,5.8-5.925,1.886-1.83,4.014-3.419,5.8-5.342a72.822,72.822,0,0,0,13.185-19.123A33.1,33.1,0,0,1-163.02,146.786Zm-18.875,10.821c2.891-3.6,4.759-6.074,6.788-8.413,3.611-4.145,5.733-9.133,8.085-14,.434-.9-.05-1.322-.893-1.135a7.88,7.88,0,0,0-2.525.987A44.544,44.544,0,0,0-183.384,149c-2.612,4.194-5.441,8.258-8.382,12.223a19.781,19.781,0,0,0-3.152,6.316,4.1,4.1,0,0,0,.025,1.259,5.964,5.964,0,0,0,1.042-.44,14.1,14.1,0,0,0,1.576-1.2C-188.44,163.644-184.618,160.114-181.894,157.607Z" transform="translate(40.891 15.597)" fill="#fff"/>
        <path id="Path_1977" data-name="Path 1977" d="M-183.318,135.006c.416.676.9,1.452,1.377,2.227.751,1.241,1.489,2.476,2.2,3.723a3.669,3.669,0,0,1,.217.862c-.3-.025-.689.05-.906-.1a7.205,7.205,0,0,1-1.464-1.309,9.765,9.765,0,0,0-8.78-3.971,12.6,12.6,0,0,1-6.608-1.787,2.69,2.69,0,0,1-.912-.732,2.593,2.593,0,0,1-.236-.887c.3-.074.707-.3.893-.192,2.141,1.291,4.356.639,6.546.279A11.059,11.059,0,0,1-183.318,135.006Zm-.869.887c-.527-.279-.98-.546-1.44-.776-2-1.018-4.126-.707-6.229-.54a2.167,2.167,0,0,0-.67.31,3.618,3.618,0,0,0,.757.447,2.748,2.748,0,0,0,.782,0c2.234.037,4.511-.23,6.471,1.247.105.081.341,0,.521-.012C-184.056,136.34-184.124,136.116-184.186,135.893Z" transform="translate(34.955 21.812)" fill="#fff"/>
        <path id="Path_1978" data-name="Path 1978" d="M-191.7,132.4a2.864,2.864,0,0,1-.13,3.6,1.892,1.892,0,0,1-2.643-.112,2.7,2.7,0,0,1,.112-3.413A1.913,1.913,0,0,1-191.7,132.4Zm-.608.85c-.6.124-1.1.143-1.117.248a7.754,7.754,0,0,0-.043,1.421c.285-.025.769.043.825-.074A8.745,8.745,0,0,0-192.311,133.245Z" transform="translate(52.635 17.032)" fill="#fff"/>
        <path id="Path_1979" data-name="Path 1979" d="M-196.394,133.336c.056.335.447,1.16.211,1.737-.192.465-1.092.757-1.731.906-.31.068-.751-.391-1.123-.608.211-.341.4-.7.633-1.036a8.568,8.568,0,0,1,.6-.658,5.6,5.6,0,0,0-.881-.236c-.18-.019-.4.149-.565.105a4.587,4.587,0,0,1-.776-.354c.18-.248.3-.62.546-.732C-198.467,131.99-197.573,132.275-196.394,133.336Z" transform="translate(26.638 18.852)" fill="#fff"/>
        <path id="Path_1980" data-name="Path 1980" d="M-197.409,135.31c1.222-1.377,2.178-1.595,2.972-.893a2.29,2.29,0,0,1,.143,3.2,3.082,3.082,0,0,1-1.588.546c-.18.025-.478-.36-.614-.627-.043-.081.242-.409.434-.515.279-.161.732-.143.894-.347a1.235,1.235,0,0,0,.186-1.036c-.13-.236-.639-.335-.986-.347-.211,0-.416.292-.645.428-.378.236-.776.459-1.16.689C-197.62,135.918-197.459,135.459-197.409,135.31Z" transform="translate(38.344 28.147)" fill="#fff"/>
        <path id="Path_1981" data-name="Path 1981" d="M-197.1,136.386c.856-.987,2.116-1.229,2.507-.6a1.9,1.9,0,0,1,.012,1.57c-.378.726-1.849,1.018-2.246.472A3.389,3.389,0,0,1-197.1,136.386Z" transform="translate(41.831 35.502)" fill="#fff"/>
      </g>
      <g id="Group_517" data-name="Group 517" transform="translate(1854.195 325.496)" opacity="0.515">
        <path id="Path_1982" data-name="Path 1982" d="M-121.41,117.5c-3.233,1.194-3.683,4-3.559,7.831.364,10.405-7.366,20.5-17.375,23.516A75.042,75.042,0,0,1-150.8,151.1c-5.288.946-8.87-1.225-9.839-6.474a18.889,18.889,0,0,1,.535-8.971,32.21,32.21,0,0,1,9.955-14.142c1.4-1.2,2.675-2.124,2.326-4.5-.535-3.675,1.582-5.955,5.443-6.474a14.739,14.739,0,0,1,11.638,3.241c4.241,3.38,5.42,3.419,9.389-.109,1.566-1.388,2.683-3.287,4.047-4.908a21.3,21.3,0,0,1,1.8-1.752c.256.954.962,2.1.651,2.814a19.71,19.71,0,0,1-2.977,4.528A30.183,30.183,0,0,1-121.41,117.5Zm-14.22,24.516c4.28-4.388,7.885-9.42,8.094-16.15.116-3.567-.806-4.257-4.311-4.156-3.962.124-7.94-.039-11.909.155-1.6.07-3.7.24-4.683,1.241-4.559,4.6-8.4,9.8-9.738,16.313a12.445,12.445,0,0,0,.791,5.823,4.178,4.178,0,0,0,4.947,3.171C-146.57,147.335-140.7,146.149-135.63,142.017Zm3.528-25.695c-3.194-2.908-6.342-3.753-9.792-2.892a3.62,3.62,0,0,0-2.435,2.163c-.124.876.822,2.21,1.667,2.846,1.993,1.543,8.234,1.527,10.064,0C-132.086,118.02-132.2,116.818-132.1,116.322Z" transform="translate(35.498 20.722)" fill="#fff"/>
        <path id="Path_1983" data-name="Path 1983" d="M-159.22,125.7c-1.737,2.574-3.039,4.668-4.551,6.6a8.03,8.03,0,0,1-2.38,1.473c.039-.985-.209-2.117.178-2.939a30.658,30.658,0,0,1,2.8-4.226c1.155-1.62,1.938-3.163.016-4.846-.45-.388-.512-1.256-.744-1.892.581-.078,1.241-.38,1.714-.186,2.97,1.178,4.605-.4,6.079-2.644.923-1.419,2.047-2.7,3.039-4.07a7.408,7.408,0,0,0,1.14-1.969c.318-1-2.163-1.791-.279-3,2.063-1.334,4.078-2.752,6.18-4,.364-.209,1.582.217,1.574.287-.07,1.132.054,2.5-.543,3.318-2.156,2.962-4.59,5.722-6.893,8.575-.674.837-1.3,1.721-1.923,2.6-1.178,1.69-.783,2.861,1.217,3.443,2.512.729,5.047,1.372,7.521,2.194,2.489.845,4.148.031,5.358-2.171,2.062-3.776,4.125-7.567,6.3-11.273.4-.7,1.279-1.124,1.931-1.682.171.961.783,2.14.442,2.846-1.814,3.729-3.947,7.3-5.792,11.01-.473.923-.783,2.83-.326,3.163,3.21,2.442,1.768,3-1.085,3.016-2.535,0-3.869,1.535-4.993,3.474-3.086,5.327-6.086,10.684-9.312,15.925-.884,1.442-2.388,2.512-3.605,3.745-1.783-2.062.411-3.411,1.124-4.792,2.69-5.172,5.7-10.188,8.583-15.251,2.3-4.047,2-4.8-2.5-6.04a30.769,30.769,0,0,0-5.846-1.272A19.162,19.162,0,0,0-159.22,125.7Z" transform="translate(0 0)" fill="#fff"/>
        <path id="Path_1984" data-name="Path 1984" d="M-144.426,120.84c-1.923,1.078-3.117,1.76-4.319,2.427-3.714,2.07-3.892,2.551-2.442,6.528.217.574.45,1.147.713,1.69,1.667,3.435,2.117,3.559,5.466,1.876a11.841,11.841,0,0,1,2.458-.574c-.295.923-.341,2.062-.93,2.737-3.07,3.52-6.521,3.171-9-.791a14.526,14.526,0,0,1-.993-2.07c-2.07-4.978-2.07-4.854-7.459-4.83a7.41,7.41,0,0,1-4.334-1.721c-.465-.364-.147-2.69.512-3.225a9.346,9.346,0,0,1,4.435-1.636c.954-.14,2.039.527,3.032.923,3.411,1.349,6.04-.411,8.335-2.435.6-.551.279-2.466-.016-3.636-.868-3.334-.047-5.621,3.032-6.59,1.279-.411,3.264-.38,4.179.38a4.5,4.5,0,0,1,1.209,4.008A48.165,48.165,0,0,1-144.426,120.84Zm.775-5.327c-.023-1.194-.047-2.109-.07-3.024-.682.054-1.8-.1-1.938.2a10.263,10.263,0,0,0-.473,2.791C-145.473,115.482-144.806,115.5-143.65,115.513Zm-17.151,9.444c.116-.333.209-.558.287-.8-.372-.07-.783-.271-1.117-.171-.186.047-.225.6-.326.923Z" transform="translate(4.775 35.844)" fill="#fff"/>
      </g>
      <g id="Group_518" data-name="Group 518" transform="translate(900.573 1029.956) rotate(71)" opacity="0.649">
        <path id="Path_1985" data-name="Path 1985" d="M-137.824,68.208a22.2,22.2,0,0,1-3.409-1.143c-3.25-1.789-6.451-3.7-9.661-5.556-1.65-.954-3.23-.755-5.089-.447-.964.139-2.127-2.763-3.568-3.28-2.167-.8-4.582-2.594-7.037.04-.885.944-1.968.06-1.988-1.242a6.337,6.337,0,0,1,.507-2.6c3.141-7.693,4.035-15.883,5.546-23.914a8.384,8.384,0,0,1,.408-2.276c.278-.547,1-.865,1.54-1.292.189.576.616,1.173.517,1.69-1.173,6.56-2.425,13.11-3.668,19.66-.159.875-.427,1.729-.626,2.6-.725,3.1-.725,3.1,2.236,4.055,6.49,2.107,6.44,2.107,7.335-4.741.427-3.3.994-6.59,1.7-9.84.159-.755,1.113-1.362,1.7-2.028.288.785.895,1.62.785,2.336-.616,4.184-1.312,8.359-2.157,12.5-.875,4.324-.815,4.6,2.972,6.659,2.594,1.411,5.119,2.962,7.753,4.284,1.888.934,2.664.517,2.7-1.59.08-3.707-.149-7.434-.119-11.162.03-4.721.179-9.462.318-14.193a5.284,5.284,0,0,1,.368-2.266,11.008,11.008,0,0,1,1.789-2.077,8.056,8.056,0,0,1,.745,2.366q-.268,14.208-.7,28.436A33.359,33.359,0,0,1-137.824,68.208Z" transform="translate(0 85.646)" fill="#fff"/>
        <path id="Path_1986" data-name="Path 1986" d="M-162.521,34.43c-.318-.408-.656-.8-.944-1.213-2.465-3.409-2.564-6.788-.258-9.522,2.226-2.624,5.963-3.31,9.452-1.481a33.96,33.96,0,0,1,4.721,3.28c.328.248.388.855.576,1.3-.566.149-1.213.537-1.68.368-.805-.3-1.461-1.034-2.256-1.4a26.978,26.978,0,0,0-4.6-1.7,4,4,0,0,0-4.334,1.809c-1.143,1.64-1.391,3.578-.169,5.039a43.293,43.293,0,0,0,5.6,5.079c.557.457,1.471.477,2.107.865a6.568,6.568,0,0,1,1.242,1.272,5.73,5.73,0,0,1-1.67,1.2c-2.057.567-4.244.745-6.222,1.481a4.184,4.184,0,0,0-2.644,4.314,4.146,4.146,0,0,0,4.95,4.015c1.889-.288,3.757-.775,5.646-.974.616-.07,1.292.567,1.948.855-.487.507-.885,1.183-1.481,1.451-1.382.606-2.892.974-4.314,1.541a6.8,6.8,0,0,1-7.663-1.749c-2.028-2.405-2.356-6.58-.616-8.945a11.662,11.662,0,0,1,2.157-2.157C-160.344,37.024-160.324,37.044-162.521,34.43Z" transform="translate(20.712 38.221)" fill="#fff"/>
        <path id="Path_1987" data-name="Path 1987" d="M-163.01,31.746a48.4,48.4,0,0,1-2.425-6.441c-.507-2.216.855-3.668,2.883-3.469a6.1,6.1,0,0,1,1.908,1,6.233,6.233,0,0,0-1.223,1.1c-.388.686-.964,1.58-.805,2.216a10.618,10.618,0,0,0,6.967,7.594c2.475.9,4.8-.507,5.566-3.3a14.892,14.892,0,0,0-.656-9.77,4.754,4.754,0,0,1,0-1.759c.636.288,1.5.388,1.888.875,2.127,2.654,2.534,9.939.825,12.931a6.923,6.923,0,0,1-9.571,2.892A46.255,46.255,0,0,1-163.01,31.746Z" transform="translate(27.145 17.986)" fill="#fff"/>
        <path id="Path_1988" data-name="Path 1988" d="M-157.3,25.887c.636.666,1.471,1.531,2.306,2.405.109-1.242.249-2.465.308-3.707.09-2.057.02-4.1.229-6.132.05-.547.835-1.034,1.282-1.541.368.487.984.934,1.044,1.441a23.772,23.772,0,0,1,.139,4.2c-.129,3.061-.229,6.132-.576,9.164-.1.835-1.034,1.58-1.6,2.375a12.228,12.228,0,0,1-2.147-1.869c-1.57-2.306-2.853-4.83-4.562-7.037-.616-.785-2.117-.885-3.22-1.292-.229,1.044-.477,2.067-.676,3.111-.139.706-.189,1.431-.278,2.157-.676-.477-1.63-.815-2-1.461-.944-1.69.1-5.039,1.789-6.232,1.988-1.431,3.668-.507,5.109.914A39.352,39.352,0,0,1-157.3,25.887Z" transform="translate(10.435 0)" fill="#fff"/>
        <path id="Path_1989" data-name="Path 1989" d="M-161.126,25.307a7.521,7.521,0,0,1,.079,2.206q-1.521,4.353-3.23,8.637c-.139.358-.755.527-1.143.785-.308-.507-.974-1.133-.855-1.5,1-3.141,2.137-6.272,3.349-9.353C-162.786,25.715-161.951,25.635-161.126,25.307Z" transform="translate(20.47 75.044)" fill="#fff"/>
        <path id="Path_1990" data-name="Path 1990" d="M-165.1,33.674c-.855-.656-1.62-1.083-1.57-1.252.716-2.276,1.521-4.532,2.356-6.769.07-.169.745-.308,1-.189.278.119.626.636.557.875C-163.44,28.645-164.2,30.9-165.1,33.674Z" transform="translate(17.039 76.05)" fill="#fff"/>
      </g>
      <g id="Group_521" data-name="Group 521" transform="translate(1387.606 -13.677) rotate(-22)" opacity="0.555">
        <path id="Path_2004" data-name="Path 2004" d="M-183.324,148.151c4.847-3.872,10.346-6.872,16.972-7.185a20.984,20.984,0,0,1,16.291,6.058,10.059,10.059,0,0,1,2.745,7.705c-.038,2.6.379,3.058,2.934,2.953a58.863,58.863,0,0,0,6.134-.833,34.049,34.049,0,0,1,3.625-.492c.454-.009.928.549,1.4.843-.378.417-.7,1.136-1.145,1.221a86.269,86.269,0,0,1-11.141,1.761c-2.4.123-3.862.672-4.8,2.944a9.09,9.09,0,0,1-2.65,3.427c-4.989,4.014-10.394,7.213-16.925,8.112a17.866,17.866,0,0,1-18.345-9.93c-2.414-5.083-1.761-9.6,2.073-13.867C-185.34,149.969-184.4,149.183-183.324,148.151Zm28.767,17.351c.767-1.458,2.367-3.351,2.736-5.471.407-2.376-2.584-2.508-3.947-3.767-3.228-2.972-6.749-5.7-7.951-10.214-.7-2.65-1.372-3.294-4.032-2.707-5.178,1.155-10.167,3-14.057,6.692a23.273,23.273,0,0,0-4.685,6.844,6.937,6.937,0,0,0-.066,4.922,15.532,15.532,0,0,0,16.982,10.384C-164.146,171.428-159.9,168.4-154.557,165.5Zm-3.966-15.164c1.5,1.306,3.247,2.991,5.178,4.43a9.436,9.436,0,0,0,2.972.947,10.652,10.652,0,0,0,.568-3.313c-.54-3.569-3.626-4.932-6.286-6.56-1.249-.757-3.038-2.054-4.117-.275-.5.8.549,2.575.937,3.891C-159.2,149.665-158.958,149.836-158.523,150.338Z" transform="translate(14.915 22.054)" fill="#fff"/>
        <path id="Path_2005" data-name="Path 2005" d="M-184.425,162.481c3.19,3.4,6.058,6.626,10.914,6.522.388-.009.776.464,1.164.71-.35.426-.7,1.212-1.051,1.2-1.789-.01-3.834.294-5.3-.464a24.016,24.016,0,0,1-11.889-12.883c-1.827-4.714-.473-8.737,2.83-12.06,3.673-3.7,8.1-6.285,13.5-6.635,5.225-.35,10.469-1.183,15.657.369.577.161,1.2.227,1.77.445,1.884.748,3.531,1.827,3.767,4.051.152,1.6-2.206,4.127-4.184,4.638a3.27,3.27,0,0,1-1.013-.142,2.858,2.858,0,0,1,.4-.861,10.409,10.409,0,0,1,.871-.653c2.338-2.281,1.978-4.137-1.278-4.875a43.685,43.685,0,0,0-8.33-.833c-2.433-.076-4.875.218-7.317.35-4.913.293-8.869,2.774-12.2,6.039-3.171,3.1-3.218,7.686-.719,11.851A37.121,37.121,0,0,0-184.425,162.481Z" transform="translate(0 0)" fill="#fff"/>
        <path id="Path_2006" data-name="Path 2006" d="M-182.474,148.079c1.145,1.467,2.84,1.846,4.856.521a3.879,3.879,0,0,0,.786-1.108,8.759,8.759,0,0,0-1.145-.663c-.71-.265-2.045,1.4-2.092-.473-.009-.549,1.609-1.657,2.395-1.581,1.164.1,2.821.786,3.209,1.685.388.88-.237,2.584-.966,3.483a5.6,5.6,0,0,1-3.162,1.581c-2.224.426-2.84,1.609-2.357,3.654a6.726,6.726,0,0,1,.142,1.448c.113,4.288.123,5.945,6.1,4.175a3.076,3.076,0,0,1,.691-.218c.956-.113,2.66-.483,2.755-.246.587,1.562-.8,2.007-1.865,2.556a11.451,11.451,0,0,1-1.373.53c-6.475,2.206-8.481.937-9.021-5.822-.218-2.859-.5-5.623-3.285-7.326a2.646,2.646,0,0,1-.719-.824c-.89-1.429-1.477-3.124-.028-4.3,1.42-1.145,2.707.133,3.777,1.155A15.673,15.673,0,0,1-182.474,148.079Z" transform="translate(25.159 53.922)" fill="#fff"/>
      </g>
      <g id="Group_522" data-name="Group 522" transform="translate(593.733 148.369)" opacity="0.593">
        <path id="Path_2008" data-name="Path 2008" d="M19.458,45.081c4.3-7.11,4.438-7.4-3.161-10.862C5.1,29.122-4.3,21.176-14.894,15.181-23.669,10.219-32.648,5.6-41.614.968c-3.793-1.951-4.452-1.332-7.273,2.25-5.5,6.974-11.372,13.649-16.938,20.575-4.418,5.512-8.571,11.242-12.9,16.83-2.59,3.331-5.234,6.634-8,9.808-.653.754-1.917.972-2.9,1.434-.156-1.122-.653-2.338-.4-3.371a78.088,78.088,0,0,1,2.8-9.067c2.2-5.778,4.676-11.446,6.865-17.224a7.539,7.539,0,0,0,.476-4.7c-.6-1.794-2.325-2.257-4-.788A19.633,19.633,0,0,1-85.7,13.06c-.1-.333,1.21-1.1,1.937-1.577.15-.109.557.122.843.245,8.639,3.487,8.517,3.405,5.492,11.215C-79.7,28.857-82,34.75-84.245,40.663a4.588,4.588,0,0,0-.02,1.529c.306-.319.632-.612.918-.945,7.864-9.523,15.81-18.971,23.538-28.582,3.392-4.235,6.43-8.734,9.468-13.227,2.909-4.309,3.541-4.561,7.953-2.263,10.277,5.356,20.69,10.461,30.8,16.1C-5.283,16.785.44,21.332,6.652,25,12.083,28.211,17.8,30.957,23.5,33.7c4.418,2.107,4.853,2.821,2.583,7.13-.843,1.577-2.012,2.984-2.97,4.506a7.631,7.631,0,0,0-.578,1.523c.564-.048,1.122-.136,1.686-.143,1.183,0,2.372.041,3.562.068a17.341,17.341,0,0,1-2.692,2.644A46.938,46.938,0,0,1,19.111,52.6a6.63,6.63,0,0,1-2.542.02c.014-.965-.258-2.066.116-2.882A44.944,44.944,0,0,1,19.458,45.081Z" transform="translate(0 4.267)" fill="#fff"/>
        <path id="Path_2009" data-name="Path 2009" d="M-67.577,4.645c.557.251,2.066.877,3.541,1.611,2.909,1.427,5.811,2.868,8.653,4.425.523.292.721,1.189,1.054,1.8-.748.319-1.523.945-2.229.89C-58.435,13.2-61,11.8-61.976,12.59c-2.026,1.563-3.351,4.133-4.663,6.464a14.438,14.438,0,0,0-1.421,4.717c-.408,2.6-.054,4.84,3.276,5.329.646.1,1.176,1.013,1.754,1.557-.686.476-1.319,1.257-2.066,1.393a5.084,5.084,0,0,1-5.961-5.207,39.045,39.045,0,0,1,2.121-9.516c.578-1.815,1.992-3.358,2.78-5.139.272-.639-.211-1.591-.347-2.406-.789.245-1.862.245-2.284.775a27.429,27.429,0,0,0-1.9,3.534c-1.822,3.1-3.432,6.382-5.662,9.162-1.054,1.3-3.263,2.019-5.043,2.236a2.36,2.36,0,0,1-2.515-3c.483-2.161,1.781-.272,2.712-.353,1.2-.1,2.875-.6,3.412-1.5,2.42-4.112,4.622-8.388,6.641-12.738.367-.8-.51-2.168-.768-3.3-.17-.653-.265-1.346-.4-2.005a12.905,12.905,0,0,1,2.474.326C-69.3,3.081-68.889,3.612-67.577,4.645Z" transform="translate(35.438 43.997)" fill="#fff"/>
        <path id="Path_2010" data-name="Path 2010" d="M-77.675,26.659c-1.02,1.665-1.944,3.392-3.1,4.962-.455.6-1.414.822-2.141,1.223-.048-.822-.374-1.76-.075-2.406a53.519,53.519,0,0,1,2.7-4.683c.687-1.162,1.475-2.291,2.046-3.5,1.271-2.712.877-3.636-1.93-4.846C-86,14.887-86.1,14.533-81.611,9.687c2.549-2.746,5.207-5.4,7.878-8.048A10.752,10.752,0,0,1-70.878-.536c.632-.3,1.577.02,2.393.054a7.97,7.97,0,0,1-1.047,1.788c-3.031,3.1-6.165,6.138-9.2,9.258-1.013,1.054-2.406,2.338-.734,3.793,1.516,1.312,3.086.687,4.357-.687.2-.218.333-.53.571-.687.809-.564,1.638-1.081,2.467-1.631.1,1.23.653,2.637.224,3.657-1.665,4-3.63,7.885-5.485,11.813Z" transform="translate(30.787 25.129)" fill="#fff"/>
        <path id="Path_2011" data-name="Path 2011" d="M-74.545,1.13c-1.217,1.312-2.1,2.325-3.052,3.283-.53.53-1.414.87-1.652,1.482a14.253,14.253,0,0,0-.537,3.222c.9-.2,1.808-.387,2.712-.591.68-.156,1.339-.353,2.019-.517a5.524,5.524,0,0,1-.054,2.073,12.838,12.838,0,0,1-1.964,3.025c-1.828,2.046-3.147,2.012-4.622-.326-1.373-2.209-2.474-4.3-5.533-4.69-1.958-.251-2.42-2.161-1.72-3.942.7-1.754,2.046-1.89,3.725-1.251,3.63,1.393,6.2.53,7.62-2.61a4.724,4.724,0,0,0-.156-2.352c-.116-.714-.653-1.944-.51-2.026a5.558,5.558,0,0,1,2.889-.9c.632.068,1.692,1.094,1.672,1.652A24.753,24.753,0,0,1-74.545,1.13Z" transform="translate(4.852)" fill="#fff"/>
      </g>
      <g id="Group_523" data-name="Group 523" transform="translate(339.909 700.17) rotate(14)" opacity="0.532">
        <path id="Path_2012" data-name="Path 2012" d="M-80.16,103.585c3.061,4.45.262,12.143-5.112,13.466a4.68,4.68,0,0,1-3.628-1.185c-6.413-5.911-12.71-11.968-19.021-18a2.753,2.753,0,0,1-.858-1.251,7.726,7.726,0,0,1,.015-1.876c.64.058,1.447-.109,1.876.211,2.3,1.767,4.624,3.541,6.748,5.526,2.523,2.363,4.893,2.916,8.3,1.374C-86.639,99.5-82.313,100.458-80.16,103.585ZM-91.612,108.3c2.4,3.519,5.555,4.821,7.417,3.621a5.009,5.009,0,0,0,1.389-5.941c-1.207-1.949-5.766-2.552-7.845-.705C-91.452,106.014-91.431,107.671-91.612,108.3Z" transform="translate(75.127 17.454)" fill="#fff"/>
        <path id="Path_2013" data-name="Path 2013" d="M-112.44,116.213c-.276-2.785-1.156-5.657-.683-8.3,1.12-6.311,6.857-8.195,12.026-4.363,2.967,2.21,6.028,4.261,8.965,6.486.567.436.764,1.338,1.134,2.036-1.011.414-2.254,1.447-2.938,1.163-3.134-1.309-4.152.225-5.228,2.821-2.174,5.293-6.639,6.057-10.783,2.05-.611-.6-1.105-1.294-1.658-1.949C-111.881,116.184-112.157,116.2-112.44,116.213Zm3.192-2.3c1.745,2.545,4.2,3.483,5.955,2.247,1.7-1.192,2.356-5.555,1.134-7.518-1.774-2.843-4.334-4.254-5.97-3.287C-110.768,106.927-111.284,110.919-109.248,113.908Z" transform="translate(47.406 60.297)" fill="#fff"/>
        <path id="Path_2014" data-name="Path 2014" d="M-112.268,107.286c.444,1.069.945,2.538,1.665,3.9a15.367,15.367,0,0,0,1.832,2.218c.6-.756,1.214-1.491,1.8-2.261.458-.6.88-1.229,1.323-1.847.342.742,1.069,1.512,1,2.2a9.047,9.047,0,0,1-1.192,4.268,24.367,24.367,0,0,1-5.264,5.555,5.7,5.7,0,0,1-4.632.545,4.281,4.281,0,0,1-1.89-3.57,5.613,5.613,0,0,0-1.629-5.112,5.673,5.673,0,0,1-1.033-1.76c-1.112-2.712-.436-6.006,1.6-6.915C-115.9,103.272-114.216,105.185-112.268,107.286Zm-4.225,1.229c-.044.894-.3,1.6-.051,2.029.2.364.974.4,1.505.574a6.349,6.349,0,0,0,0-1.781C-115.132,109.038-115.75,108.9-116.492,108.515Z" transform="translate(0 76.291)" fill="#fff"/>
        <path id="Path_2015" data-name="Path 2015" d="M-102.7,123.653c-3.941,2.16-8.253,3.577-12.892,1.112-3.73-1.978-5.73-6.551-5.024-11.51a7.537,7.537,0,0,1,1.512-3.694c.625-.72,1.992-.829,3.025-1.207a26.74,26.74,0,0,1-.087,2.756c-.124,1.011-.473,2.007-.582,3.01-.509,4.675.64,7.017,3.788,7.911,3.934,1.112,8.82-1.163,10.281-4.814.262-.633.3-1.331.538-1.97.414-1.149.909-2.276,1.367-3.417.494,1.229,1.1,2.429,1.5,3.686C-98.1,119.029-99.86,121.421-102.7,123.653Z" transform="translate(0.426 102.86)" fill="#fff"/>
        <path id="Path_2016" data-name="Path 2016" d="M-96.286,105.078c-3.556,2.327-6.988.974-7.671-2.516a17.543,17.543,0,0,1,.058-3.541c.022-1.745.873-4.6-2.53-1.912-.116.1-1.163-.982-1.774-1.512,1.178-1.287,2.16-3.156,3.6-3.614.873-.276,2.916,1.4,3.57,2.654.625,1.185.211,2.967.131,4.494-.1,2.327.625,3.345,2.981,2.109a23.111,23.111,0,0,1,2.254-1.2c.4-.153,1.251-.138,1.374.08a2.248,2.248,0,0,1,.262,1.789A32.965,32.965,0,0,1-96.286,105.078Z" transform="translate(79.124 0)" fill="#fff"/>
        <path id="Path_2017" data-name="Path 2017" d="M-104.148,103.975a5.643,5.643,0,0,1,1.447-.254c.385.923,1.04,2.007.822,2.828-.625,2.218-1.818,4.319-4.508,4.137-.8-.058-1.658-1.4-2.21-2.319-.3-.487-.08-1.338.029-2.007.429-2.865.407-5.119-3.563-3.359-.393.174-1.214-.284-1.614-.683a1.475,1.475,0,0,1,.335-1.345c1.883-.967,3.861-2.581,5.751-2.516,3,.131,3.119,3.156,3.526,5.519Z" transform="translate(43.971 40.774)" fill="#fff"/>
        <path id="Path_2018" data-name="Path 2018" d="M-102.273,101.91c1.4,2.494,2.559,4.472,3.607,6.508a1.388,1.388,0,0,1-.393,1.287,1.8,1.8,0,0,1-1.454.058c-2.669-1.185-4.915-3.963-8.362-2.123-.24-.48-.822-1.2-.669-1.4,1.5-2.014.647-3.81-.211-5.737-.2-.465.436-1.323.7-1.985C-106.592,99.757-104.113,100.993-102.273,101.91Z" transform="translate(69.159 41.146)" fill="#fff"/>
        <path id="Path_2019" data-name="Path 2019" d="M-112.918,108.641c1.178-1.062,2.61-2.516,4.239-3.737.487-.371,1.5-.058,2.261-.044-.036.654.2,1.607-.138,1.9-2.407,2.08-4.879,4.094-7.46,5.941-.451.327-1.534-.225-2.32-.378a14.321,14.321,0,0,1,1.287-2.378A9.126,9.126,0,0,1-112.918,108.641Z" transform="translate(28.128 80.084)" fill="#fff"/>
        <path id="Path_2020" data-name="Path 2020" d="M-111.625,106.507c.291-.087,1.629-.487,2.981-.9-.676,1.265-1.323,2.559-2.058,3.781a2.276,2.276,0,0,1-1.142.974c-1.316.364-2.676.567-4.014.829.676-1.04,1.316-2.116,2.072-3.119A14.032,14.032,0,0,1-111.625,106.507Z" transform="translate(31.125 85.614)" fill="#fff"/>
        <path id="Path_2021" data-name="Path 2021" d="M-119.811,108.963Z" transform="translate(6.329 106.673)" fill="#fff"/>
        <path id="Path_2022" data-name="Path 2022" d="M-119.811,108.963Z" transform="translate(6.329 106.673)" fill="#fff"/>
      </g>
      <path id="Path_2023" data-name="Path 2023" d="M-180,67.678c2.848-6.9,5.659-13.807,8.58-20.7,1.849-4.376,4.019-8.654,5.732-13.092.715-1.9.616-4.105.912-6.164q-2.071,1.868-4.117,3.735c-.123.111-.2.259-.321.357-1.22,1.023-2.256,3.624-4.092,1.825-1.751-1.714.555-3.057,1.676-4.241,5.671-6,11.354-12.007,17.16-17.9.838-.863,2.354-1.06,3.563-1.553.284,1.455,1.282,3.353.715,4.241-3.39,5.338-2.737,11.354-3.452,17.136a12.284,12.284,0,0,1-.234,2.355c-.185.505-.937,1.294-1.183,1.208-.653-.21-1.6-.777-1.664-1.294-.209-1.874-.062-3.785-.135-5.683a22.433,22.433,0,0,0-.456-2.7c-.6.616-1.442,1.134-1.763,1.886-4.685,10.959-9.233,21.98-13.955,32.915-2.971,6.867-6.213,13.6-9.332,20.4-.53,1.159-1.085,2.305-1.627,3.439-4.019,8.469-3.994,8.407,4.956,11.428,2.49.826,3.834.481,4.672-2.17,1.529-4.832,3.181-9.665,5.017-14.411,1.6-4.142,3.489-8.186,5.289-12.241.863-1.935,2.145-2.527,4.2-1.442,2.49,1.319,6.028,1.788,7.36,3.785.863,1.319-1.455,4.672-2.17,7.15-2.071,7.2-4.019,14.4-6.041,21.6-.752,2.577.16,4.327,2.5,5.449,4.167,2,8.3,4.068,12.525,5.942,3.119,1.381,3.809,1.085,4.906-2.12,2.022-5.88,3.809-11.81,5.843-17.678,1.183-3.452,2.725-6.78,4.007-10.2q6.176-16.531,12.229-33.088c.308-.875.74-2.059.407-2.774-.6-1.282-1.516-2.835-2.7-3.316-.826-.333-2.613.641-3.4,1.541-.875,1.011-1.1,2.589-1.6,3.933q-7.138,18.954-14.263,37.908c-1.553,4.167-2.947,8.4-4.438,12.587a24.077,24.077,0,0,1-1.911,4.882c-.6,1.011-1.923,1.6-2.922,2.379-.111-1.319-.641-2.774-.234-3.933,1.48-4.376,3.218-8.629,4.894-12.932,5.141-13.166,10.331-26.332,15.41-39.523.752-1.911.937-4.031,1.59-5.991a24.118,24.118,0,0,1,2.145-5.239c1.011-1.664,2.12-3.255,4.191-.431,1.183,1.6,3.612,2.441,5.621,3.279,2.17.912,2.872,1.849,1.911,4.315-2.675,6.8-4.956,13.733-7.446,20.6-1.578,4.327-3.3,8.592-4.857,12.919-3.785,10.639-7.5,21.278-11.218,31.916a12.035,12.035,0,0,0-.456,1.861c-.419,2.182.764,3.3,2.663,3.809,2.1.555,2.823-.814,3.3-2.5.912-3.205,1.775-6.435,2.811-9.591q5.233-15.625,10.577-31.164c1.442-4.2,1.738-4.216,5.584-1.948a6.847,6.847,0,0,0,3.439,1.245c3.057-.2,3.217,1.307,2.478,3.538-1.824,5.437-3.624,10.861-5.51,16.26-3.094,8.851-6.25,17.666-9.345,26.5-1.072,3.082-.086,4.623,3.587,5.893,2.749.962,4.068.444,5.092-2.552,1.368-4.068,2.342-8.26,3.661-12.34,1.418-4.315,2.133-4.561,6.065-2.626,4.783,2.355,4.931,2.392,3.489,7.471a99.479,99.479,0,0,1-3.7,10.294c-1.023,2.5-.691,4.327,1.837,5.51,4.919,2.318,9.776,4.66,14.732,6.867a10.354,10.354,0,0,0,3.193.3,14.569,14.569,0,0,0-.814-3.378c-1.344-2.515-3.02-4.882-4.339-7.409-.419-.777-.148-1.935-.185-2.909.962.37,1.96.666,2.872,1.122.394.185.592.727.851,1.146,2.786,4.4,5.646,8.777,8.346,13.252a13.88,13.88,0,0,1,1.06,3.427c-1.258.345-2.65,1.22-3.8.974-7.8-1.516-15.557-3.255-23.312-4.968-3.082-.69-3.082-.888-1.184-3.5a1.977,1.977,0,0,0-.629-1.824c-5.6-2.219-11.292-4.265-16.913-6.472-2.922-1.146-5.782-2.49-8.63-3.846-11.07-5.239-22-10.848-33.26-15.644-7.865-3.341-16.174-5.634-24.335-8.309-2.934-.949-3.661-1.825-2.478-4.882,3.205-8.136,6.6-16.174,9.924-24.249C-180.557,67.431-180.286,67.554-180,67.678Zm63.044,5.856c-.937,3.082-1.64,5.51-2.4,7.927-3.18,10.281-6.41,20.55-9.566,30.844-.481,1.59-1.492,3.723.838,4.487,2.527.851,3.008-1.64,3.859-3.242a2.189,2.189,0,0,0,.173-.444c3-8.518,6.078-17.012,8.925-25.568A68.875,68.875,0,0,0-112.2,76.048c.2-1.331-1.344-2.909-2.1-4.364C-115.307,72.387-116.318,73.077-116.958,73.533Zm-46.673,22.646c.123-.468.37-1.233.58-2,1.886-6.558,3.711-13.129,5.708-19.663.641-2.1,1.331-4.019-1.22-5.264-2.1-1.023-3.612-.333-4.968,2.9-1.64,3.957-2.934,8.05-4.339,12.106-1.147,3.292-2.354,6.571-3.365,9.911-.69,2.342.308,4.019,2.65,4.832C-166.084,99.853-164.654,98.657-163.631,96.179Zm58.5,22.6c.444-2.1,1.2-5.141,1.664-8.223.111-.727-.678-1.59-1.048-2.416-.9.456-2.33.7-2.6,1.393-1.6,4.105-3,8.309-4.3,12.525-.2.567.247,1.861.653,1.985a2.924,2.924,0,0,0,2.5-.37A34.055,34.055,0,0,0-105.136,118.776Z" transform="translate(1726.642 169.419)" fill="#fff" opacity="0.405"/>
    </g>
  </g>
</svg>
