<svg xmlns="http://www.w3.org/2000/svg" width="729" height="527" viewBox="0 0 729 527">
  <g id="Vector_Image" data-name="Vector Image" transform="translate(-1038 -3014)">
    <g id="Group_52" data-name="Group 52" transform="translate(-1448.213 6660.526)">
      <g id="Group_21" data-name="Group 21" transform="translate(3036.15 -3644.526)">
        <g id="Group_15" data-name="Group 15" transform="translate(65.445 12.534)">
          <path id="Path_20" data-name="Path 20" d="M3102.073-3275.061v-356.05c0-1.981,1.606,0,3.587,0s3.586-1.981,3.586,0v356.05a3.587,3.587,0,0,1-3.586,3.587A3.587,3.587,0,0,1,3102.073-3275.061Z" transform="translate(-3102.073 3631.991)" fill="#fff"/>
        </g>
        <g id="Group_20" data-name="Group 20" transform="translate(0 368.278)">
          <g id="Group_16" data-name="Group 16" transform="translate(29.135 25.507)">
            <path id="Path_21" data-name="Path 21" d="M3069.349-3188.77a36.311,36.311,0,0,0,37.173,36.3,36.445,36.445,0,0,0,35.444-35.8,33.4,33.4,0,0,0-3.585-16.244c-6.027-11.263-13.282-29.589-13.5-36.7a5.528,5.528,0,0,0-5.523-5.37l-29.3-.041a5.53,5.53,0,0,0-5.524,5.411c-.165,7.106-6,25.392-11.5,36.48A35.871,35.871,0,0,0,3069.349-3188.77Z" transform="translate(-3065.763 3250.215)" fill="#fec12d"/>
            <path id="Path_22" data-name="Path 22" d="M3141.542-3206.21c-6.544-12.231-12.9-29.3-13.073-35.115a9.073,9.073,0,0,0-9.1-8.85l-29.3-.04a9.063,9.063,0,0,0-9.11,8.914c-.151,6.505-5.765,24.152-11.124,34.972a39.208,39.208,0,0,0-4.069,17.559,39.592,39.592,0,0,0,12.017,28.538,39.641,39.641,0,0,0,28.826,11.347,39.649,39.649,0,0,0,27.368-11.852,39.661,39.661,0,0,0,11.577-27.49A36.649,36.649,0,0,0,3141.542-3206.21Zm-3.162,17.888a32.992,32.992,0,0,1-31.94,32.265c-.264.007-.526.011-.785.011a32.468,32.468,0,0,1-22.862-9.317,32.472,32.472,0,0,1-9.858-23.407,32.125,32.125,0,0,1,3.322-14.377c5.332-10.759,11.677-29.7,11.87-37.988a1.933,1.933,0,0,1,1.933-1.908l9.86.013,4.069.007,3.342,0,4.066.005,7.965.011a1.934,1.934,0,0,1,1.937,1.893c.253,8.372,8.391,27.95,13.921,38.285A29.591,29.591,0,0,1,3138.38-3188.322Z" transform="translate(-3065.763 3250.215)" fill="#fff"/>
          </g>
          <g id="Group_17" data-name="Group 17" transform="translate(47.586 12.341)">
            <path id="Path_23" data-name="Path 23" d="M3087.8-3263.381h35.719a3.586,3.586,0,0,1,3.587,3.586,3.586,3.586,0,0,1-3.587,3.586H3087.8a3.585,3.585,0,0,1-3.586-3.586A3.586,3.586,0,0,1,3087.8-3263.381Z" transform="translate(-3084.214 3263.381)" fill="#fff"/>
          </g>
          <g id="Group_18" data-name="Group 18" transform="translate(56.903)">
            <path id="Path_24" data-name="Path 24" d="M3097.118-3275.722H3114.2a3.587,3.587,0,0,1,3.586,3.587,3.587,3.587,0,0,1-3.586,3.586h-17.084a3.587,3.587,0,0,1-3.587-3.586A3.587,3.587,0,0,1,3097.118-3275.722Z" transform="translate(-3093.531 3275.722)" fill="#fff"/>
          </g>
          <g id="Group_19" data-name="Group 19" transform="translate(0 87.371)">
            <path id="Path_25" data-name="Path 25" d="M3039.616-3182.376h15.364a2.991,2.991,0,0,0,2.987-2.988,2.991,2.991,0,0,0-2.987-2.987h-15.364a2.991,2.991,0,0,0-2.988,2.987A2.992,2.992,0,0,0,3039.616-3182.376Z" transform="translate(-3036.628 3188.351)" fill="#fff"/>
            <path id="Path_26" data-name="Path 26" d="M3156.339-3182.376H3171.7a2.991,2.991,0,0,0,2.988-2.988,2.991,2.991,0,0,0-2.988-2.987h-15.364a2.99,2.99,0,0,0-2.987,2.987A2.991,2.991,0,0,0,3156.339-3182.376Z" transform="translate(-3036.628 3188.351)" fill="#fff"/>
            <path id="Path_27" data-name="Path 27" d="M3056.847-3136.552a2.967,2.967,0,0,0,2.113.876,2.968,2.968,0,0,0,2.112-.875l10.864-10.864a2.99,2.99,0,0,0,0-4.225,2.974,2.974,0,0,0-2.112-.874,2.979,2.979,0,0,0-2.113.874l-10.864,10.864A2.989,2.989,0,0,0,3056.847-3136.552Z" transform="translate(-3036.628 3188.351)" fill="#fff"/>
            <path id="Path_28" data-name="Path 28" d="M3150.247-3136.552a2.967,2.967,0,0,0,2.113.876,2.967,2.967,0,0,0,2.112-.875,2.99,2.99,0,0,0,0-4.225l-10.864-10.864a2.974,2.974,0,0,0-2.112-.874,2.978,2.978,0,0,0-2.113.874,2.99,2.99,0,0,0,0,4.225Z" transform="translate(-3036.628 3188.351)" fill="#fff"/>
            <path id="Path_29" data-name="Path 29" d="M3105.66-3119a2.991,2.991,0,0,0,2.987-2.987v-15.364a2.991,2.991,0,0,0-2.987-2.988,2.991,2.991,0,0,0-2.988,2.988v15.364A2.991,2.991,0,0,0,3105.66-3119Z" transform="translate(-3036.628 3188.351)" fill="#fff"/>
          </g>
          <path id="Path_30" data-name="Path 30" d="M3125.65-3209.953a8.888,8.888,0,0,0-2.385-1.474,11.933,11.933,0,0,0-3.191-.753,66.466,66.466,0,0,0-6.917-.525l-.738-.018c-.224-2.2-.377-4.4-.5-6.611-.326-5.665-.454-11.34-.5-17.014q-.03-3.33-.016-6.666c.005-.528.009-1.057.016-1.587a2.041,2.041,0,0,0-1.784-2,2.177,2.177,0,0,0-.244-.025,1.538,1.538,0,0,0-.361.025H3109a2.1,2.1,0,0,0-1.647,2v.171c-.011.469-.02.942-.026,1.411-.047,3.187.015,6.383.062,9.57.091,6.139.263,12.289.762,18.412.062.765.12,1.545.184,2.33-.893.022-4.466.022-5.359,0,.064-.785.122-1.565.184-2.33.5-6.123.672-12.273.763-18.412.046-3.187.108-6.385.062-9.574-.007-.47-.016-.938-.027-1.407v-.171a2.1,2.1,0,0,0-1.691-2.012h-.02a1.84,1.84,0,0,0-.317-.014c-.055,0-.111.007-.166.014h-.007a2.045,2.045,0,0,0-1.855,2.012c.007.523.011,1.048.014,1.571.015,2.228,0,4.455-.014,6.682-.051,5.674-.179,11.349-.5,17.014-.126,2.207-.281,4.413-.5,6.611l-.736.018a66.483,66.483,0,0,0-6.919.525,11.977,11.977,0,0,0-3.193.753,8.934,8.934,0,0,0-2.385,1.474,7.731,7.731,0,0,0-1.9,9.073,7.952,7.952,0,0,0,3.606,3.329,7.283,7.283,0,0,0,3.373.869,9.022,9.022,0,0,0,3.391-.824,12.622,12.622,0,0,0,4.727-3.425,17.419,17.419,0,0,0,2.905-5.188,16.355,16.355,0,0,0,.636-2.28c.02-.089.038-.175.056-.264,1.064.02,5.325.02,6.391,0,.018.089.036.175.054.264a16.953,16.953,0,0,0,.638,2.28,17.371,17.371,0,0,0,2.9,5.188,12.6,12.6,0,0,0,4.728,3.425,9.023,9.023,0,0,0,3.388.824,7.285,7.285,0,0,0,3.375-.869,7.963,7.963,0,0,0,3.606-3.329A7.727,7.727,0,0,0,3125.65-3209.953Zm-27.388,1.494c-.093.346-.2.687-.317,1.024-.064.188-.131.372-.2.556-.028.076-.06.151-.091.226v0c-.186.39-.363.781-.569,1.159s-.423.743-.658,1.1c-.109.164-.224.321-.337.483a.056.056,0,0,0-.013.02l0,0-.015.02a.009.009,0,0,0-.007.009.033.033,0,0,0-.011.011l-.02.022v0c-.011.013-.02.024-.027.031l-.006.011,0,0,0,0h0v0l-.078.095a9.578,9.578,0,0,1-.824.86c-.091.08-.182.162-.277.237-.012,0-.3.222-.406.293q-.541.369-1.11.693c-.22.124-.444.242-.672.35-.084.043-.168.078-.255.12a.185.185,0,0,0-.026.013l0,0h0l-.084.026c-.362.115-.712.226-1.08.3.02-.009-.292.033-.4.035s-.235-.015-.35,0a.175.175,0,0,0-.036,0l-.031-.006c-.2-.047-.4-.1-.6-.169a.548.548,0,0,1-.053-.018l-.009,0-.005,0c-.082-.038-.164-.078-.246-.115a8.154,8.154,0,0,1-1.1-.65c-.029-.017-.088-.07-.133-.106-.126-.117-.255-.228-.372-.35-.071-.075-.138-.155-.206-.233l-.005,0,0,0-.08-.1c-.095-.142-.164-.306-.248-.452-.04-.137-.082-.275-.115-.417-.007-.031-.013-.064-.02-.1v-.02c0-.115-.047-.341-.051-.406-.007-.155-.007-.308,0-.463,0-.08.011-.157.013-.237.067-.279.116-.556.206-.829.014-.04.029-.078.04-.115a.156.156,0,0,1-.026.049.5.5,0,0,1,.035-.074l.005-.011,0,0c.062-.126.177-.341.2-.379.089-.155.188-.3.284-.45l.011-.015v0l.046-.047c.151-.164.506-.665.734-.714-.029.016-.177.12-.2.138.011-.005.048-.027.128-.08l.177-.12c.142-.093.289-.181.435-.263.124-.067.253-.129.379-.187.015,0,.277-.11.4-.148a8.382,8.382,0,0,1,1.114-.264c.1-.015.189-.029.284-.042l.018,0a.044.044,0,0,1,.017,0,.041.041,0,0,1,.02,0l.047-.006.009,0c.328-.042.656-.08.984-.118q1.642-.183,3.291-.277,1.126-.066,2.252-.1c.108,0,.212-.007.321-.009C3098.295-3208.59,3098.28-3208.525,3098.262-3208.459ZM3124-3205.48c-.007,0-.018-.031-.034-.069C3123.981-3205.514,3123.994-3205.487,3124-3205.48Zm.23,1.595c0,.069-.053.315-.046.421-.007.034-.016.069-.025.1-.031.142-.073.28-.113.417-.086.146-.155.31-.25.452-.016.022-.049.06-.078.1l0,0,0,0c-.068.078-.132.158-.206.233-.119.122-.248.233-.372.35h0c-.042.036-.1.089-.129.106a8.428,8.428,0,0,1-1.1.65c-.082.037-.164.077-.248.115l-.011,0a.536.536,0,0,1-.056.018,6.06,6.06,0,0,1-.6.169l-.031.006a.181.181,0,0,0-.038,0c-.113-.011-.232.006-.35,0s-.4-.042-.4-.035a10.548,10.548,0,0,1-1.079-.3l-.085-.026-.011,0-.024-.013c-.084-.042-.171-.077-.257-.12-.226-.108-.45-.226-.667-.35-.384-.215-.751-.447-1.113-.693-.1-.071-.385-.286-.4-.293l.007.009c-.1-.08-.193-.162-.286-.246a9.165,9.165,0,0,1-.825-.86c-.029-.033-.053-.064-.077-.095l0,0,0,0,0,0-.009-.011a.281.281,0,0,0-.027-.031v0a.164.164,0,0,0-.018-.022l0-.007-.007,0s0-.007-.006-.009a.1.1,0,0,1-.016-.02l0,0a.067.067,0,0,0-.014-.02c-.113-.162-.228-.319-.336-.483-.235-.357-.457-.723-.659-1.1s-.383-.769-.569-1.159l-.009-.02-.082-.208c-.071-.184-.14-.368-.2-.556-.115-.337-.222-.678-.315-1.024-.017-.066-.035-.131-.051-.2.107,0,.213.006.32.009q1.126.033,2.251.1,1.653.1,3.293.277c.328.038.656.076.984.118l.076.011a.036.036,0,0,1,.015,0h0l.013,0,.013,0c.091.014.182.025.275.04a8.4,8.4,0,0,1,1.115.264c.119.04.379.148.394.148h0c.127.058.253.118.377.187.149.082.293.17.435.263l.179.12c.08.053.118.075.129.08-.02-.018-.169-.122-.2-.138.229.049.581.55.734.714.018.018.031.033.044.047l0,0,.009.015c.1.151.2.295.286.45.022.036.131.246.195.372.018.054.038.107.056.16.093.273.141.55.206.827,0,.082.013.159.015.239C3124.236-3204.193,3124.234-3204.04,3124.227-3203.885Z" transform="translate(-3036.628 3275.722)" fill="#fff"/>
        </g>
        <path id="Path_31" data-name="Path 31" d="M3125.078-3644.526v3.786a14.569,14.569,0,0,1-14.569,14.569h-9.7a14.57,14.57,0,0,1-14.57-14.569v-3.786Z" transform="translate(-3036.628 3644.526)" fill="#fff"/>
      </g>
      <g id="Group_31" data-name="Group 31" transform="translate(2928.561 -3644.526)">
        <g id="Group_29" data-name="Group 29" transform="translate(0 368.28)">
          <g id="Group_28" data-name="Group 28">
            <g id="Group_27" data-name="Group 27">
              <g id="Group_26" data-name="Group 26">
                <g id="Group_25" data-name="Group 25">
                  <g id="Group_22" data-name="Group 22" transform="translate(0 25.505)">
                    <path id="Path_33" data-name="Path 33" d="M3004.675-3206.212c-6.545-12.231-12.9-29.3-13.072-35.116a9.073,9.073,0,0,0-9.1-8.847l-29.3-.04a9.062,9.062,0,0,0-9.111,8.914c-.149,6.505-5.765,24.152-11.123,34.972a39.17,39.17,0,0,0-4.067,17.559,39.592,39.592,0,0,0,12.014,28.538,39.646,39.646,0,0,0,28.826,11.347,39.651,39.651,0,0,0,27.368-11.855,39.659,39.659,0,0,0,11.578-27.485A36.678,36.678,0,0,0,3004.675-3206.212Zm-35.888,50.164a32.481,32.481,0,0,1-22.862-9.315,32.472,32.472,0,0,1-9.858-23.407,32.074,32.074,0,0,1,3.325-14.375c5.33-10.761,11.675-29.7,11.867-37.99a1.935,1.935,0,0,1,1.935-1.908l9.858.013,4.067.007,3.344,0,4.069.007,7.963.011a1.933,1.933,0,0,1,1.939,1.891c.25,8.372,8.388,27.953,13.918,38.285a29.589,29.589,0,0,1,3.16,14.5,32.992,32.992,0,0,1-31.942,32.268C2969.308-3156.05,2969.049-3156.048,2968.787-3156.048Z" transform="translate(-2928.898 3250.215)" fill="#fff"/>
                  </g>
                  <g id="Group_23" data-name="Group 23" transform="translate(18.448 12.339)">
                    <path id="Path_34" data-name="Path 34" d="M2950.932-3263.381h35.72a3.586,3.586,0,0,1,3.586,3.586,3.585,3.585,0,0,1-3.586,3.586h-35.72a3.586,3.586,0,0,1-3.586-3.586A3.586,3.586,0,0,1,2950.932-3263.381Z" transform="translate(-2947.346 3263.381)" fill="#fff"/>
                  </g>
                  <g id="Group_24" data-name="Group 24" transform="translate(27.767)">
                    <path id="Path_35" data-name="Path 35" d="M2980.922-3272.136a3.588,3.588,0,0,1-3.588,3.587H2960.25a3.586,3.586,0,0,1-3.585-3.587,3.585,3.585,0,0,1,3.585-3.584h17.084A3.587,3.587,0,0,1,2980.922-3272.136Z" transform="translate(-2956.665 3275.72)" fill="#fff"/>
                  </g>
                </g>
              </g>
            </g>
            <path id="Path_36" data-name="Path 36" d="M2988.784-3209.953a8.9,8.9,0,0,0-2.384-1.474,11.834,11.834,0,0,0-3.194-.753,67.013,67.013,0,0,0-6.917-.527c-.246,0-.492-.012-.738-.014-.221-2.2-.376-4.408-.5-6.613-.326-5.665-.452-11.34-.5-17.014-.02-2.22-.031-4.443-.015-6.664,0-.53.007-1.059.013-1.589a2.039,2.039,0,0,0-1.775-2,1.551,1.551,0,0,0-.255-.027,1.548,1.548,0,0,0-.366.027h-.019a2.1,2.1,0,0,0-1.638,2c0,.058,0,.113,0,.171-.011.472-.02.939-.024,1.411-.044,3.187.015,6.383.062,9.568.089,6.143.266,12.293.762,18.414.065.765.118,1.545.184,2.33-.893.022-4.463.022-5.359,0,.067-.785.122-1.565.184-2.33.5-6.121.674-12.271.763-18.414.049-3.187.108-6.383.06-9.572,0-.47-.014-.94-.025-1.407v-.171a2.1,2.1,0,0,0-1.7-2.01l0,0h-.006a1.736,1.736,0,0,0-.322-.016c-.059,0-.113.009-.172.016h-.007l-.009,0h-.013a2.042,2.042,0,0,0-1.824,2.01c0,.525.011,1.048.011,1.571.018,2.228.007,4.457-.016,6.682-.048,5.674-.177,11.349-.5,17.014-.129,2.205-.284,4.413-.506,6.613-.246,0-.492.009-.735.014a67.056,67.056,0,0,0-6.919.527,11.84,11.84,0,0,0-3.192.753,8.865,8.865,0,0,0-2.384,1.474,7.728,7.728,0,0,0-1.9,9.073,7.951,7.951,0,0,0,3.608,3.327,7.225,7.225,0,0,0,3.371.869,9.007,9.007,0,0,0,3.391-.822,12.63,12.63,0,0,0,4.727-3.422,17.473,17.473,0,0,0,2.906-5.191,16.952,16.952,0,0,0,.638-2.28c.018-.087.038-.177.051-.264,1.068.018,5.328.018,6.394,0,.015.087.035.177.053.264a17.283,17.283,0,0,0,.638,2.28,17.516,17.516,0,0,0,2.906,5.191,12.6,12.6,0,0,0,4.727,3.422,9.014,9.014,0,0,0,3.388.822,7.241,7.241,0,0,0,3.376-.869,7.954,7.954,0,0,0,3.6-3.327A7.726,7.726,0,0,0,2988.784-3209.953Zm-27.39,1.492c-.095.348-.2.689-.317,1.028-.062.186-.131.37-.2.554-.033.076-.062.153-.093.228-.186.39-.362.781-.57,1.159s-.423.743-.658,1.1c-.109.164-.224.321-.337.483,0,0-.009.011-.015.02l0,0a.06.06,0,0,1-.017.018l-.005.009-.009.011c-.009.009-.015.018-.02.024v0c-.011.011-.024.022-.026.031l-.009.008,0,.007,0,0h0a.713.713,0,0,1-.078.1,8.811,8.811,0,0,1-.822.86c-.093.084-.188.164-.281.241-.025.014-.3.222-.4.288-.359.249-.731.481-1.11.7-.22.124-.443.242-.672.353-.082.04-.168.077-.254.117-.009,0-.018.009-.027.011l0,0-.007,0a.828.828,0,0,0-.082.024c-.363.115-.714.226-1.081.3.019-.009-.293.033-.4.035s-.237-.015-.348,0l-.037,0a.192.192,0,0,1-.031,0,5.915,5.915,0,0,1-.6-.169.266.266,0,0,0-.055-.015c0-.005,0-.005-.009-.005l0,0c-.084-.038-.166-.078-.248-.115a8.308,8.308,0,0,1-1.1-.647c-.024-.02-.086-.071-.128-.109h0c-.124-.115-.254-.228-.372-.352-.071-.073-.137-.151-.206-.231l0,0h0c-.028-.04-.062-.078-.077-.1-.1-.14-.164-.3-.251-.45-.04-.14-.079-.275-.115-.415-.009-.035-.013-.066-.02-.1v0c.007-.1-.046-.353-.049-.424-.008-.155-.008-.31,0-.461,0-.082.011-.159.014-.239.066-.279.115-.556.208-.829.007-.029.015-.053.024-.08,0,.009-.009.014-.011.014a.423.423,0,0,1,.036-.078l0-.007,0,0c.064-.126.177-.341.2-.379.087-.155.187-.3.282-.45l.011-.013v0a.632.632,0,0,0,.047-.051c.15-.16.5-.652.729-.709a2.277,2.277,0,0,0-.186.133c.015-.009.053-.034.121-.08s.118-.08.178-.118c.142-.095.288-.179.434-.263.129-.069.251-.131.377-.187.015,0,.279-.11.4-.148a8,8,0,0,1,1.115-.264l.281-.044a.093.093,0,0,0,.022,0h.016a.041.041,0,0,1,.02,0,.2.2,0,0,1,.046-.006l.009,0c.328-.04.656-.08.984-.118,1.1-.122,2.192-.213,3.293-.277.749-.042,1.5-.077,2.25-.1.106,0,.213-.007.319-.009C2961.43-3208.59,2961.412-3208.523,2961.394-3208.461Zm25.735,2.981a.187.187,0,0,1-.033-.069A.58.58,0,0,1,2987.129-3205.48Zm.208,1.9a.375.375,0,0,1,.022-.089A.683.683,0,0,1,2987.337-3203.581Zm.022-.3c0,.067-.053.315-.048.421-.005.036-.014.069-.02.1-.031.14-.076.275-.116.415-.086.146-.155.31-.25.45-.013.024-.049.062-.078.1h0l0,0c-.071.08-.135.158-.208.231-.118.124-.249.237-.371.352h0c-.042.038-.1.089-.128.109a8.5,8.5,0,0,1-1.1.647c-.082.037-.164.077-.248.115l-.011.007a.33.33,0,0,0-.056.015c-.2.067-.392.122-.594.169a.254.254,0,0,1-.033,0l-.038,0c-.11-.011-.232.009-.35,0s-.4-.044-.4-.035a10.53,10.53,0,0,1-1.079-.3c-.036-.011-.064-.02-.084-.024,0,0-.009,0-.009-.007s-.018-.009-.027-.011c-.086-.04-.17-.077-.255-.117q-.342-.166-.671-.353-.569-.322-1.11-.7c-.1-.066-.368-.27-.4-.288l0,.007c-.1-.08-.193-.162-.286-.248a8.58,8.58,0,0,1-.824-.86.9.9,0,0,1-.078-.1h0l0,0c-.005,0-.005,0-.007-.007l-.009-.008a.087.087,0,0,0-.027-.031v0a.167.167,0,0,0-.02-.024l0-.005-.006-.006-.007-.009-.016-.018-.006,0a.042.042,0,0,0-.011-.02c-.111-.162-.226-.319-.337-.483-.235-.357-.457-.723-.658-1.1s-.382-.769-.57-1.159a.041.041,0,0,0-.009-.02c-.029-.068-.053-.139-.08-.208-.073-.184-.141-.368-.2-.554-.118-.339-.222-.68-.317-1.028-.018-.062-.036-.129-.049-.2.106,0,.213.006.319.009.747.02,1.5.055,2.249.1q1.653.1,3.294.277c.328.038.656.078.984.118l.075.011h.02l.011,0h.009l0,0h0c.088.014.184.025.272.04a7.9,7.9,0,0,1,1.113.264c.119.038.385.148.4.148.126.056.25.12.377.187.146.084.292.168.434.263.06.038.117.082.177.118l.122.08a2.2,2.2,0,0,0-.184-.133c.231.057.579.549.727.709a.632.632,0,0,0,.047.051v0l.011.013c.095.151.2.295.281.45.025.038.133.246.2.37.019.056.039.107.057.162.091.273.14.55.206.829,0,.08.011.157.016.239C2987.368-3204.2,2987.368-3204.04,2987.359-3203.885Z" transform="translate(-2928.898 3275.72)" fill="#fff"/>
          </g>
        </g>
        <g id="Group_30" data-name="Group 30" transform="translate(5.575 9.974)">
          <path id="Path_37" data-name="Path 37" d="M2979.372-3545.3c1.226-13.705,2.057-27.453,2.3-41.213a264.969,264.969,0,0,0-1.487-37.275c-.1-.793-.2-1.589-.312-2.38-.271-1.959-.579-3.914-.942-5.859a3.487,3.487,0,0,0-4.247-2.412,3.529,3.529,0,0,0-2.411,4.247c.251,1.331.474,2.675.678,4.024a206.728,206.728,0,0,1,1.86,28.443c.137,12.779-.37,25.564-1.23,38.312q-1.2,17.772-3.393,35.464c-.714,5.671-1.461,11.581-2.631,17.384a57.906,57.906,0,0,1-1.848,7.056c-5.809-4.678-13.9-7.192-21.141-4.441a15.476,15.476,0,0,0-10.057,15.329c.51,7.471,6.868,12.245,14.124,12.183,7.466-.065,13.924-4.632,18.277-10.394.144-.191.282-.379.419-.572a58.127,58.127,0,0,1,4.7,8.9c3.036,7.008,3.249,14.16,1.693,21.564-1.651,7.852-4.312,15.436-5.718,23.35-2.885,16.214-2.71,32.756-2.807,49.162q-.306,50.908.427,101.815.051,3.449.1,6.9.047,2.848.1,5.7a3.493,3.493,0,0,0,.33,1.476h6.294a3.439,3.439,0,0,0,.279-1.476c-.031-1.9-.064-3.8-.088-5.7q-.822-51.471-.57-102.954c.086-17.526-.5-35.411,2.531-52.744,1.465-8.359,4.35-16.353,5.977-24.666,1.649-8.413,1.341-16.527-1.983-24.494a58.545,58.545,0,0,0-7.569-13.477,64.731,64.731,0,0,0,3.949-14.884C2976.932-3520.985,2978.282-3533.15,2979.372-3545.3Zm-20.387,57.122c-3.648,3.584-10.29,6.873-15.157,3.586-3.831-2.588-2.843-8.514.41-11.34,4.643-4.036,12-2.156,16.443,1.2a24.524,24.524,0,0,1,2.061,1.755A24.011,24.011,0,0,1,2958.985-3488.181Z" transform="translate(-2934.473 3634.552)" fill="#fff"/>
        </g>
        <path id="Path_38" data-name="Path 38" d="M2995.763-3644.526v3.786a14.568,14.568,0,0,1-14.569,14.569h-9.7a14.569,14.569,0,0,1-14.57-14.569v-3.786Z" transform="translate(-2928.898 3644.526)" fill="#fff"/>
      </g>
      <g id="Group_41" data-name="Group 41" transform="translate(2740.896 -3644.526)">
        <g id="Group_39" data-name="Group 39" transform="translate(25.925 368.28)">
          <g id="Group_38" data-name="Group 38">
            <g id="Group_37" data-name="Group 37">
              <g id="Group_36" data-name="Group 36">
                <g id="Group_35" data-name="Group 35">
                  <g id="Group_32" data-name="Group 32" transform="translate(0 25.505)">
                    <path id="Path_40" data-name="Path 40" d="M2842.809-3206.21c-6.544-12.231-12.9-29.3-13.073-35.115a9.073,9.073,0,0,0-9.1-8.85l-29.3-.04a9.064,9.064,0,0,0-9.109,8.914c-.15,6.505-5.764,24.152-11.125,34.972a39.193,39.193,0,0,0-4.067,17.559,39.591,39.591,0,0,0,12.016,28.538,39.646,39.646,0,0,0,28.827,11.347,39.652,39.652,0,0,0,27.368-11.852,39.675,39.675,0,0,0,11.577-27.49A36.663,36.663,0,0,0,2842.809-3206.21Zm-3.162,17.888a32.993,32.993,0,0,1-31.943,32.265c-.261.007-.523.011-.784.011a32.478,32.478,0,0,1-22.863-9.317,32.477,32.477,0,0,1-9.855-23.407,32.1,32.1,0,0,1,3.322-14.377c5.332-10.759,11.677-29.7,11.868-37.988a1.934,1.934,0,0,1,1.934-1.908l9.86.013,4.069.007,3.34,0,4.069.005,7.965.011a1.934,1.934,0,0,1,1.937,1.893c.253,8.372,8.391,27.95,13.918,38.285A29.6,29.6,0,0,1,2839.647-3188.322Z" transform="translate(-2767.03 3250.215)" fill="#fff"/>
                  </g>
                  <g id="Group_33" data-name="Group 33" transform="translate(18.45 12.339)">
                    <path id="Path_41" data-name="Path 41" d="M2789.066-3263.381h35.72a3.586,3.586,0,0,1,3.586,3.586,3.586,3.586,0,0,1-3.586,3.586h-35.72a3.585,3.585,0,0,1-3.586-3.586A3.586,3.586,0,0,1,2789.066-3263.381Z" transform="translate(-2785.48 3263.381)" fill="#fff"/>
                  </g>
                  <g id="Group_34" data-name="Group 34" transform="translate(27.768)">
                    <path id="Path_42" data-name="Path 42" d="M2819.054-3272.136a3.586,3.586,0,0,1-3.587,3.587h-17.082a3.586,3.586,0,0,1-3.587-3.587,3.585,3.585,0,0,1,3.587-3.584h17.082A3.585,3.585,0,0,1,2819.054-3272.136Z" transform="translate(-2794.798 3275.72)" fill="#fff"/>
                  </g>
                </g>
              </g>
            </g>
            <path id="Path_43" data-name="Path 43" d="M2826.917-3209.953a8.9,8.9,0,0,0-2.385-1.474,11.944,11.944,0,0,0-3.191-.753,66.491,66.491,0,0,0-6.917-.525l-.738-.018c-.224-2.2-.377-4.4-.5-6.611-.326-5.665-.455-11.34-.5-17.014-.02-2.22-.029-4.446-.016-6.666,0-.53.007-1.057.013-1.587a2.039,2.039,0,0,0-1.781-2,2.189,2.189,0,0,0-.244-.025,1.538,1.538,0,0,0-.361.025h-.02a2.1,2.1,0,0,0-1.647,2c0,.058,0,.113,0,.171-.011.469-.02.942-.027,1.411-.044,3.187.018,6.383.064,9.57.089,6.139.264,12.289.763,18.412.062.765.119,1.545.184,2.33-.893.022-4.466.022-5.359,0,.064-.785.122-1.565.184-2.33.5-6.123.671-12.273.762-18.412.047-3.187.109-6.385.062-9.574-.006-.47-.015-.938-.026-1.407,0-.058,0-.113,0-.171a2.1,2.1,0,0,0-1.689-2.012h-.02a1.841,1.841,0,0,0-.317-.014c-.055,0-.111.007-.166.014h-.007a2.045,2.045,0,0,0-1.855,2.012c.007.523.011,1.048.013,1.571.016,2.228,0,4.455-.015,6.682-.049,5.674-.177,11.349-.5,17.014-.126,2.207-.281,4.413-.5,6.611l-.738.018a66.425,66.425,0,0,0-6.917.525,11.967,11.967,0,0,0-3.193.753,8.9,8.9,0,0,0-2.385,1.474,7.726,7.726,0,0,0-1.9,9.073,7.95,7.95,0,0,0,3.606,3.329,7.276,7.276,0,0,0,3.373.869,9.022,9.022,0,0,0,3.39-.824,12.627,12.627,0,0,0,4.728-3.425,17.441,17.441,0,0,0,2.905-5.188,16.982,16.982,0,0,0,.636-2.28c.02-.089.038-.175.056-.264,1.063.02,5.325.02,6.391,0,.016.089.036.175.053.264a16.5,16.5,0,0,0,.639,2.28,17.414,17.414,0,0,0,2.9,5.188,12.629,12.629,0,0,0,4.729,3.425,9.021,9.021,0,0,0,3.389.824,7.293,7.293,0,0,0,3.375-.869,7.96,7.96,0,0,0,3.606-3.329A7.728,7.728,0,0,0,2826.917-3209.953Zm-38.312,4.444c-.007.017-.011.026-.016.029A.216.216,0,0,1,2788.6-3205.509Zm10.924-2.95c-.1.346-.2.687-.317,1.024-.065.188-.131.372-.2.556-.029.076-.06.151-.091.226v0c-.186.39-.363.781-.569,1.159s-.424.743-.659,1.1c-.11.164-.223.321-.336.483a.067.067,0,0,0-.014.02l0,0-.016.02a.009.009,0,0,0-.006.009.022.022,0,0,0-.011.011l-.02.022v0c-.011.013-.02.024-.027.031l-.007.011,0,0-.007,0v0c-.024.031-.051.062-.077.095a9.424,9.424,0,0,1-.825.86c-.091.08-.181.162-.277.237-.011,0-.3.222-.405.293-.362.246-.732.478-1.113.693-.219.124-.441.242-.669.35-.084.043-.171.078-.255.12l-.027.013,0,0h0l-.085.026a11.208,11.208,0,0,1-1.079.3c.02-.009-.293.033-.4.035s-.237-.015-.35,0a.16.16,0,0,0-.036,0l-.031-.006c-.2-.047-.4-.1-.6-.169-.023-.006-.042-.013-.056-.018l-.006,0,0,0c-.082-.038-.164-.078-.246-.115a8.139,8.139,0,0,1-1.1-.65,1.439,1.439,0,0,1-.133-.106c-.126-.117-.255-.228-.375-.35-.071-.075-.137-.155-.206-.233l0,0,0,0c-.031-.038-.064-.076-.08-.1-.095-.142-.164-.306-.25-.452-.038-.137-.08-.275-.113-.417-.007-.031-.014-.064-.023-.1v-.027c0-.117-.044-.334-.048-.4-.007-.155-.007-.308,0-.463,0-.08.011-.157.013-.237.066-.279.115-.556.206-.829.018-.049.033-.093.051-.142l0-.009,0,0c.062-.126.175-.341.2-.379.088-.155.188-.3.283-.45l.012-.015v0c.013-.014.028-.029.044-.047.153-.164.507-.665.736-.714-.029.016-.178.12-.2.138.011-.005.049-.027.129-.08l.177-.12c.142-.093.288-.181.435-.263.124-.067.252-.129.379-.187.015,0,.277-.11.4-.148a8.4,8.4,0,0,1,1.115-.264c.095-.015.188-.029.284-.042l.017,0a.051.051,0,0,1,.018,0,.035.035,0,0,1,.018,0l.049-.006.009,0c.328-.042.656-.08.984-.118q1.641-.183,3.291-.277,1.126-.066,2.251-.1c.107,0,.213-.007.319-.009C2799.562-3208.59,2799.546-3208.525,2799.529-3208.459Zm25.734,2.979a.171.171,0,0,1-.033-.069A.717.717,0,0,1,2825.263-3205.48Zm.231,1.595c0,.069-.056.315-.049.421-.007.034-.013.069-.022.1-.031.142-.073.28-.113.417-.087.146-.155.31-.251.452-.015.022-.048.06-.077.1l0,0,0,0c-.069.078-.133.158-.206.233-.12.122-.248.233-.372.35h0c-.043.036-.1.089-.131.106a8.126,8.126,0,0,1-1.1.65c-.079.037-.161.077-.246.115l-.011,0a.443.443,0,0,1-.055.018,6.045,6.045,0,0,1-.6.169l-.031.006a.205.205,0,0,0-.038,0c-.113-.011-.233.006-.35,0s-.4-.044-.4-.035a10.7,10.7,0,0,1-1.077-.3l-.086-.026-.009,0-.024-.013c-.084-.042-.173-.077-.257-.12-.226-.108-.45-.226-.67-.35-.381-.215-.749-.447-1.11-.693-.1-.071-.386-.286-.4-.293l.006.009c-.1-.08-.192-.162-.288-.246a9.859,9.859,0,0,1-.824-.86c-.027-.033-.051-.064-.078-.095v0l0,0,0,0-.009-.011a.176.176,0,0,0-.026-.031v0l-.02-.022,0-.007,0,0-.007-.009a.089.089,0,0,1-.015-.02l0,0a.067.067,0,0,0-.014-.02c-.113-.162-.228-.319-.337-.483q-.355-.535-.66-1.1c-.206-.378-.381-.769-.567-1.159l-.009-.02c-.029-.068-.056-.139-.082-.208-.071-.184-.14-.368-.2-.556-.115-.337-.222-.678-.315-1.024-.018-.066-.035-.131-.051-.2.106,0,.213.006.319.009q1.128.033,2.252.1,1.652.1,3.293.277c.328.038.656.076.984.118l.076.011a.035.035,0,0,1,.015,0h0l.014,0,.013,0c.091.014.182.025.275.04a8.379,8.379,0,0,1,1.114.264c.12.04.379.148.4.148h0c.126.058.253.118.377.187.148.082.292.17.434.263l.18.12c.08.053.117.075.128.08-.02-.018-.168-.122-.2-.138.228.049.581.55.734.714l.044.047,0,0,.009.015c.095.151.2.295.284.45.024.036.133.246.2.372.018.054.038.107.055.16.091.273.142.55.206.827.005.082.014.159.016.239C2825.5-3204.193,2825.5-3204.04,2825.494-3203.885Z" transform="translate(-2767.03 3275.72)" fill="#fff"/>
          </g>
        </g>
        <g id="Group_40" data-name="Group 40" transform="translate(0 10.056)">
          <path id="Path_44" data-name="Path 44" d="M2793.111-3406.443a.075.075,0,0,1-.035.009C2792.619-3406.4,2792.961-3406.446,2793.111-3406.443Z" transform="translate(-2741.105 3634.47)" fill="#fff"/>
          <path id="Path_45" data-name="Path 45" d="M2900.98-3469.356c-2.048-5.21-5.6-9.641-10.8-11.941-5.359-2.367-11.322-2.653-17.093-2.172q-.9.074-1.8.173c.033-.643.053-1.283.062-1.926a20.2,20.2,0,0,0,10.041-7.914,30.194,30.194,0,0,0,4.519-17.774,16.736,16.736,0,0,0-5.447-11.855c-3.393-2.905-7.626-4.49-11.919-5.538-9.94-2.424-20.312-2.639-30.09-5.824a30.056,30.056,0,0,1-12.027-6.928,22.02,22.02,0,0,1-2.134-2.451,37.314,37.314,0,0,1-2.052-3.194,47.221,47.221,0,0,1-3.34-7.222c-4.8-12.919-6.5-27.018-7-40.717-.379-10.573-.219-21.308,1.986-31.532q.435-2.028.984-4.024c1.179-4.289-5.479-6.119-6.658-1.835q-.8,2.895-1.372,5.859c-2.01,10.237-2.211,20.977-1.852,31.286.478,13.7,2.121,27.8,6.553,40.836a51.622,51.622,0,0,0,7.376,14.816,31.91,31.91,0,0,0,12.342,9.674c9.43,4.255,19.731,5.061,29.8,6.779,2.243.381,4.477.811,6.676,1.4.986.264,1.97.559,2.934.9.368.128.733.268,1.095.414,0,0,.011,0,.013.005h0c.107.062.924.421,1.095.507a23.96,23.96,0,0,1,2.216,1.305c.084.056.33.251.4.3a2.134,2.134,0,0,1,.175.151c.361.334.718.658,1.048,1.021.138.149.269.3.4.459l.005.007c.013.02.031.046.049.071.223.343.452.684.651,1.046.084.15.372.795.415.853l0-.022a12.423,12.423,0,0,1,.395,1.227c.119.453.212.907.294,1.368.009.042.016.08.02.113s.007.084.014.14c.015.2.035.405.051.609a23.87,23.87,0,0,1-.116,4.051c-.075.678-.376,2.323-.653,3.477a23.9,23.9,0,0,1-1.434,4.324,13.469,13.469,0,0,1-5.856,6.505c-1.518-12.189-7.413-23.7-19.239-28.982a26.663,26.663,0,0,0-11.885-2.5,34.78,34.78,0,0,0-13.76,3.973c-5.816,2.839-11.414,6.175-17.021,9.408-.078.042-.153.089-.231.131.1-.443.2-.887.313-1.325,2.216-8.91,6.451-17.531,5.849-26.921-.6-9.35-4.471-18.948-13.462-23.071-8.053-3.692-17.45-2.69-25.5.506-19.137,7.592-34.4,27-31.921,48.311.705,6.039,2.347,12.4,6.055,17.324a20.492,20.492,0,0,0,13.7,8.131c12.409,1.764,25.165-4.441,35.852-10.006l.365-.193a107.119,107.119,0,0,0-.028,12.023c.2,3.987.808,7.846-.592,11.689a24.852,24.852,0,0,1-5.7,8.268c-2.671,2.81-5.516,5.477-8.311,8.165-.148.142-.3.286-.454.425a44.774,44.774,0,0,0-5.226-16.717c-2.877-5.019-7.464-9.523-13.386-10.44-7.107-1.1-13.572,2.713-18.57,7.437-4.51,4.262-7.55,9.867-6.469,16.2,2,11.708,16.108,17.4,26.641,17.256a32.791,32.791,0,0,0,10.55-1.9,62.419,62.419,0,0,1-.734,6.4,160.994,160.994,0,0,0-2.272,15.961c-.365,5.562-.157,11.859,2.819,16.768,4.16,6.863,17.156,10.622,21.728,2.1,1.709-3.189,1.917-7.041,1.886-10.585-.038-4.153-.481-8.293-.8-12.431a74.454,74.454,0,0,1-.2-12.6c.018-.168.122-.948.122-1h0c.049-.319.1-.641.166-.955a23.646,23.646,0,0,1,.767-2.855c.049-.142.106-.279.16-.419.008-.017.017-.035.024-.053.177-.337.337-.676.527-1,.142-.241.293-.467.452-.7-.223.35.437-.532.61-.709s.348-.335.536-.49c-.068.08.612-.421.794-.525.159-.095.831-.379.888-.426l-.028.007c.372-.133.746-.25,1.132-.348.352-.089.711-.159,1.07-.219-.159.042.882-.071,1.075-.08.865-.049,1.731-.073,2.593-.062-1.015,4.652.417,9.833,2.287,14.068a18.934,18.934,0,0,0,6.651,8.32,108.667,108.667,0,0,1-6.95,13.45c-2.285,3.868-4.716,7.644-7.231,11.361-1.926,2.836-4.023,5.569-5.672,8.583-5.392,9.882-6.788,21.358-6.75,32.459.049,14.327,2.2,28.62,4.231,42.77,2.052,14.271,4.179,28.525,5.868,42.842q.423,3.583.8,7.172h6.906q-.375-3.591-.8-7.172c-1.844-15.675-4.209-31.275-6.432-46.9-1.979-13.9-3.989-28-3.632-42.072a66.02,66.02,0,0,1,2.147-16.387,41.134,41.134,0,0,1,6.5-13.758,196.172,196.172,0,0,0,14.029-22.621c1.35-2.626,2.662-5.328,3.783-8.1a16.564,16.564,0,0,0,4.6-1.429c2.054-.862,4.153-1.618,6.274-2.3a87.476,87.476,0,0,1,11.081-2.757,123.165,123.165,0,0,1,19.489-1.669c5.315-.1,10.662.049,15.961-.45,4.561-.43,9.186-1.31,12.843-4.257s5.1-7.422,5.57-11.93A42.248,42.248,0,0,0,2900.98-3469.356Zm-131.765,18.951a24.959,24.959,0,0,1-15.074-3.73,12.3,12.3,0,0,1-2.585-2.015c-.4-.381-.773-.789-1.147-1.2-.1-.113-.2-.229-.293-.351,0-.017-.47-.658-.523-.738-.282-.436-.539-.888-.78-1.347,0,0-.1-.23-.182-.394a.036.036,0,0,0-.009-.02.143.143,0,0,0-.009-.025c-.059-.166-.159-.425-.159-.425-.155-.483-.279-.964-.392-1.459-.02-.079-.034-.144-.047-.188,0-.027,0-.053,0-.084-.027-.3-.047-.6-.049-.909s.018-.614.029-.917c0-.058,0-.107,0-.149v0l0-.018a16.025,16.025,0,0,1,.423-1.722,11.927,11.927,0,0,1,1.565-2.978,24.74,24.74,0,0,1,6.884-6.27,12.836,12.836,0,0,1,7.213-2.336,9.119,9.119,0,0,1,5.45,2.055,18.457,18.457,0,0,1,4.667,5.932,35.4,35.4,0,0,1,3.178,8.987,50.991,50.991,0,0,1,1.128,7.868A24.9,24.9,0,0,1,2769.215-3450.405Zm58.674-23.842c-.551.066-1.1.1-1.664.115-.474.009-.953,0-1.427-.031-.18-.011-.355-.029-.532-.049-.14-.02-.275-.046-.412-.075-.41-.1-.822-.186-1.228-.31-.237-.074-.465-.158-.7-.238a.106.106,0,0,1-.031-.011.179.179,0,0,1-.029-.013c-.348-.179-.7-.348-1.033-.55-.2-.117-.946-.7-.844-.587a14.185,14.185,0,0,1-1.244-1.239c0-.017-.4-.534-.5-.684-.241-.377-.45-.774-.664-1.166-.032-.058-.06-.115-.089-.173l-.005,0a.046.046,0,0,0-.008-.017l-.005-.011a.418.418,0,0,0-.02-.045c-.006-.015-.015-.031-.022-.046s-.016-.033-.024-.051a.068.068,0,0,0,.011.018c-.018-.036-.038-.078-.06-.131,0,.006,0,.013,0,.018a.275.275,0,0,0-.022-.051.2.2,0,0,0-.013-.036c-.013-.033-.025-.066-.033-.089-.118-.359-.251-.713-.357-1.077s-.2-.735-.275-1.1c-.047-.227-.078-.453-.126-.676a.092.092,0,0,1-.007-.027,20.518,20.518,0,0,1-.084-2.507c.018-.387.055-.769.091-1.154.051-.268.095-.532.15-.8a21.859,21.859,0,0,1,.681-2.327c.031-.1.053-.166.068-.219s.069-.111.127-.222c.257-.468.485-.946.773-1.4.14-.217.282-.43.435-.642-.1.15.421-.517.54-.645.288-.311.6-.59.9-.88a3.167,3.167,0,0,1,.255-.217c-.06.051-.1.082-.115.1.086-.065.423-.328.534-.4.334-.2.665-.41,1.01-.6.171-.1.357-.18.537-.266.452-.16.9-.313,1.365-.43.241-.062,1.307-.231,1.152-.231a16.656,16.656,0,0,1,2.527-.035c.2.011.4.029.6.049,0,0,.009,0,.011,0l.036,0c.139.022.523.076.58.087.656.133,1.306.27,1.95.447a29.659,29.659,0,0,1,7.626,3.473c7.675,4.581,17.07,7.963,26.17,7.464-.023.53-.051,1.066-.094,1.607-4.1.709-8.175,1.622-12.222,2.562-7.61,1.771-15.185,3.712-22.849,5.25C2829.113-3474.478,2827.774-3474.247,2827.889-3474.247Zm-52.012-21.008a30.09,30.09,0,0,1-7.659,1.091,16.589,16.589,0,0,1-6.414-.947,2.928,2.928,0,0,1-.982-.394c-.534-.271-1.061-.55-1.571-.869a8.914,8.914,0,0,1-1.044-.729,16.555,16.555,0,0,1-1.491-1.412,19.321,19.321,0,0,1-3.686-6.265,35.139,35.139,0,0,1-2.2-15.456,31.214,31.214,0,0,1,1.283-6.908,31.359,31.359,0,0,1,2.378-6.1,40.657,40.657,0,0,1,8.08-11.161q1.287-1.293,2.662-2.487c.414-.359.833-.713,1.261-1.059.208-.173.425-.344.638-.512a.12.12,0,0,1,.033-.024.085.085,0,0,1,.025-.02c.013-.009.024-.022.04-.034.124-.09.248-.186.374-.279a52.8,52.8,0,0,1,5.831-3.736q1.449-.8,2.95-1.49c.162-.073.993-.432,1.055-.465h0c.505-.211,1.022-.406,1.538-.6a39.309,39.309,0,0,1,6.139-1.718c.423-.084.849-.155,1.279-.221l0,0,.016,0c.126-.011.866-.109,1.022-.124a29.551,29.551,0,0,1,3.02-.138c.938.007,1.864.08,2.8.164a.369.369,0,0,1,.055,0h.016a.072.072,0,0,0,.029.006.082.082,0,0,0,.022,0c.095.012.2.029.261.04l-.055,0c.146.024.288.046.432.075.5.091,1.006.2,1.5.33.82.211,1.613.484,2.407.774l.009,0c.181.087.363.164.54.251.45.219.889.454,1.321.709.357.213.709.434,1.051.669.144.1.29.2.43.308,0,0-.007-.009-.011-.011s.024.018.035.029a.208.208,0,0,1,.038.029.036.036,0,0,1,.017.011l0,.006c.035.025.066.054.091.073a23.862,23.862,0,0,1,2.1,2.062c.115.128.224.263.337.4a.239.239,0,0,0,.033.038l.011.016c.018.024.038.053.062.088.262.368.517.736.756,1.12a21.049,21.049,0,0,1,1.363,2.559c0,.027.337.849.4,1.04.193.54.364,1.086.521,1.637a31.406,31.406,0,0,1,.8,3.764c.009.064.018.117.026.164v.015l.005.018c.006.044.011.077.015.106,0-.013,0-.029-.009-.042.043.324.074.645.1.971.058.6.1,1.2.127,1.808a28.643,28.643,0,0,1-.038,3.26c-.035.523-.089,1.046-.148,1.567a.292.292,0,0,0-.007.047v.006l0,.014c-.047.279-.091.558-.14.835-.179,1.02-.408,2.032-.665,3.036-1.1,4.331-2.684,8.522-3.891,12.823a87.452,87.452,0,0,0-2.263,10.465C2792.958-3501.564,2784.709-3497.447,2775.877-3495.255Zm39.759,38.995a35.64,35.64,0,0,0-4.377-.22c-4.455.031-8.885.809-12.211,4.016-6.1,5.886-5.45,16.083-4.916,23.807.3,4.381.794,8.756.891,13.151.02.862.024,1.728,0,2.59-.013.45-.036.9-.067,1.341-.017.242-.155,1.359-.115,1.17a14.916,14.916,0,0,1-.357,1.693c-.077.277-.173.552-.266.823a.993.993,0,0,0,.036-.129c-.013,0-.2.448-.33.716a2.189,2.189,0,0,1-.262.361l-.009.009,0,0c-.029.029-.058.058-.086.089a.292.292,0,0,1,.031-.027c-.029.031-.054.056-.065.067l0-.007a.012.012,0,0,0-.009.011l0,0,0,0a3.037,3.037,0,0,0-.207.224.673.673,0,0,1-.2.124c.111,0,.118.029-.321.128-.3.069-.607.133-.909.2,1.122-.259-.062-.035-.414-.035a10.262,10.262,0,0,1-1.035-.065c.412.034-.884-.173-1.126-.23-.483-.12-.962-.257-1.436-.4a4.6,4.6,0,0,1-1.407-.647c-.678-.366-.324-.1-.88-.645-.233-.226-.459-.455-.678-.7-.073-.08-.118-.129-.146-.155-.005,0-.007,0-.007-.009-.022-.04-.058-.091-.106-.166a12.57,12.57,0,0,1-.911-1.583c-.045-.088-.2-.465-.206-.465-.1-.262-.184-.528-.271-.794a23.211,23.211,0,0,1-.756-3.419c-.667-5.816.164-11.451,1.1-16.9a105.618,105.618,0,0,0,1.87-16.522q.776-.519,1.521-1.086a99.791,99.791,0,0,0,8.986-8.313,51.311,51.311,0,0,0,7.613-8.825,23.28,23.28,0,0,0,3.67-11.272c.27-4.552-.5-9.2-.481-13.776a89.888,89.888,0,0,1,.541-9.609c2.885-1.627,5.753-3.291,8.625-4.942q3.63-2.088,7.307-4.092c4.058-2.216,8.1-4.572,12.615-5.746,7.978-2.075,15.908,1.474,21.22,7.457,4.455,5.016,6.565,11.609,7.192,18.249-.217.011-.437.02-.656.026a31.88,31.88,0,0,1-3.992-.173,25.609,25.609,0,0,1-2.91-.489c-1.258-.264-2.508-.59-3.74-.958a47.476,47.476,0,0,1-6.312-2.362,58.982,58.982,0,0,1-5.31-2.835c-8.107-4.8-19.527-7.652-26.852.122-5.365,5.694-6.418,14.725-2.992,21.668a15.41,15.41,0,0,0,8.575,7.626c5.19,1.9,10.635.452,15.815-.689,7.349-1.623,14.638-3.509,21.989-5.131,1.791-.4,3.572-.78,5.35-1.13-1.055,4.189-2.943,8.118-6.232,10.813-6.777,5.556-16.773,2.178-24.64,2.176C2826.566-3462.142,2819.916-3460.447,2815.636-3456.26Zm8.442,17.078c-.014.23-.111,1.157-.111,1.247l0-.013a33.334,33.334,0,0,1-.822,3.9,10.8,10.8,0,0,1-.9-1.031,20.672,20.672,0,0,1-3.11-6.744c-.636-2.307-1.061-3.783-.647-6.01a6.177,6.177,0,0,1,.189-.747c.2.064.41.133.613.2l.171.053c.04.025.091.056.162.093.357.193.718.366,1.066.574.084.054.4.266.6.4h0a.1.1,0,0,1,.018.014c.173.146.463.385.534.454.231.222.435.463.656.691a1.52,1.52,0,0,0,.12.116l0,0c.031.057.078.142.14.25.164.279.328.559.489.838.06.106.107.222.16.332v0c.226.729.428,1.431.592,2.176.022.1.04.173.051.222,0,.068,0,.175.009.339.019.447.053.895.053,1.343C2824.12-3440.042,2824.1-3439.612,2824.078-3439.182Zm72.519-12.744c-.029.577-.069,1.16-.138,1.734-.026.086-.171.984-.2,1.136-.1.479-.215.953-.356,1.419-.071.23-.5,1.281-.415,1.152a12.329,12.329,0,0,1-.942,1.631c.065-.119-.512.574-.658.718s-.284.258-.421.4c-.044.042-.082.08-.111.111l0,0c-.02.013-.053.029-.093.058a16.7,16.7,0,0,1-1.74,1c-.029,0-.722.306-.871.355-.492.168-.991.312-1.494.443-.944.242-1.9.41-2.865.561l-.027,0-.02.005a.306.306,0,0,0-.044,0h-.016c-.3.033-.6.069-.9.1-.625.064-1.252.113-1.884.155-2.431.164-4.869.206-7.306.237-6,.075-12,.1-17.987.627a98.272,98.272,0,0,0-21.5,4.133q-2.91.932-5.745,2.081c-.239.093-.474.2-.713.3.051-.233.1-.466.153-.7,1.524-7.269.571-15.435-6.235-19.414a22.913,22.913,0,0,1,8.535-1.553c8.936.073,18.346,2.823,26.55-2.176,6.593-4.016,10.015-11.54,11.347-18.9,2-.242,4.012-.4,6.048-.444a30.856,30.856,0,0,1,7.163.555,14.13,14.13,0,0,1,6.061,2.584l.12.082.016.013a.7.7,0,0,0,.057.044c.209.171.41.346.61.525a15.933,15.933,0,0,1,1.15,1.162c.179.2.354.4.518.605l0,0c.006,0,.011.009.009.011.046.076.239.337.283.408a19.819,19.819,0,0,1,1.106,1.826,26.472,26.472,0,0,1,2.453,8.16A44.257,44.257,0,0,1,2896.6-3451.926ZM2793.525-3406.8l0,0,0-.007A.012.012,0,0,0,2793.525-3406.8Z" transform="translate(-2741.105 3634.47)" fill="#fff"/>
        </g>
        <path id="Path_46" data-name="Path 46" d="M2829.133-3644.526v3.786a14.57,14.57,0,0,1-14.57,14.569h-9.7a14.57,14.57,0,0,1-14.569-14.569v-3.786Z" transform="translate(-2741.105 3644.526)" fill="#fff"/>
      </g>
      <g id="Group_51" data-name="Group 51" transform="translate(2530.213 -3644.526)">
        <g id="Group_49" data-name="Group 49" transform="translate(49.949 368.278)">
          <g id="Group_48" data-name="Group 48">
            <g id="Group_47" data-name="Group 47">
              <g id="Group_46" data-name="Group 46">
                <g id="Group_45" data-name="Group 45">
                  <g id="Group_42" data-name="Group 42" transform="translate(0 25.507)">
                    <path id="Path_48" data-name="Path 48" d="M2655.941-3206.21c-6.544-12.231-12.9-29.3-13.071-35.115a9.076,9.076,0,0,0-9.1-8.85l-29.3-.04a9.066,9.066,0,0,0-9.111,8.914c-.15,6.505-5.764,24.152-11.123,34.972a39.207,39.207,0,0,0-4.069,17.559,39.6,39.6,0,0,0,12.017,28.538A39.646,39.646,0,0,0,2621-3148.885a39.657,39.657,0,0,0,27.37-11.852,39.667,39.667,0,0,0,11.575-27.49A36.625,36.625,0,0,0,2655.941-3206.21Zm-35.887,50.164a32.472,32.472,0,0,1-22.862-9.317,32.472,32.472,0,0,1-9.858-23.407,32.1,32.1,0,0,1,3.324-14.377c5.33-10.759,11.675-29.7,11.868-37.988a1.934,1.934,0,0,1,1.935-1.908l9.86.013,4.067.007,3.342,0,4.069.005,7.962.011a1.938,1.938,0,0,1,1.94,1.893c.25,8.372,8.388,27.95,13.917,38.285a29.583,29.583,0,0,1,3.161,14.5,32.992,32.992,0,0,1-31.94,32.265C2620.577-3156.05,2620.316-3156.046,2620.054-3156.046Z" transform="translate(-2580.162 3250.215)" fill="#fff"/>
                  </g>
                  <g id="Group_43" data-name="Group 43" transform="translate(18.451 12.341)">
                    <path id="Path_49" data-name="Path 49" d="M2602.2-3263.381h35.72a3.586,3.586,0,0,1,3.586,3.586,3.585,3.585,0,0,1-3.586,3.586H2602.2a3.586,3.586,0,0,1-3.586-3.586A3.586,3.586,0,0,1,2602.2-3263.381Z" transform="translate(-2598.613 3263.381)" fill="#fff"/>
                  </g>
                  <g id="Group_44" data-name="Group 44" transform="translate(27.769)">
                    <path id="Path_50" data-name="Path 50" d="M2611.517-3275.722H2628.6a3.586,3.586,0,0,1,3.586,3.587,3.586,3.586,0,0,1-3.586,3.586h-17.084a3.586,3.586,0,0,1-3.586-3.586A3.586,3.586,0,0,1,2611.517-3275.722Z" transform="translate(-2607.931 3275.722)" fill="#fff"/>
                  </g>
                </g>
              </g>
            </g>
            <path id="Path_51" data-name="Path 51" d="M2640.051-3209.953a8.9,8.9,0,0,0-2.385-1.474,11.951,11.951,0,0,0-3.193-.753,66.466,66.466,0,0,0-6.917-.525l-.738-.018c-.224-2.2-.377-4.4-.5-6.611-.324-5.665-.452-11.34-.5-17.014-.018-2.22-.029-4.443-.013-6.666q0-.792.013-1.587a2.041,2.041,0,0,0-1.784-2,2.187,2.187,0,0,0-.244-.025,1.535,1.535,0,0,0-.361.025h-.02a2.1,2.1,0,0,0-1.647,2v.171c-.011.469-.02.942-.026,1.411-.047,3.187.015,6.383.062,9.57.091,6.139.263,12.289.764,18.412.062.765.118,1.545.182,2.33-.893.022-4.466.022-5.359,0,.067-.785.122-1.565.184-2.33.5-6.123.672-12.273.763-18.412.046-3.187.108-6.385.062-9.574-.007-.47-.016-.938-.027-1.407v-.171a2.1,2.1,0,0,0-1.691-2.012h-.02a1.84,1.84,0,0,0-.317-.014c-.055,0-.111.007-.166.014h-.007a2.045,2.045,0,0,0-1.855,2.012c.007.525.011,1.048.016,1.571q.019,3.342-.016,6.682c-.048,5.674-.177,11.349-.5,17.014-.126,2.207-.279,4.413-.5,6.611l-.736.018a66.366,66.366,0,0,0-6.916.525,11.94,11.94,0,0,0-3.194.753,8.906,8.906,0,0,0-2.385,1.474,7.729,7.729,0,0,0-1.9,9.073,7.963,7.963,0,0,0,3.606,3.329,7.284,7.284,0,0,0,3.375.869,9.042,9.042,0,0,0,3.391-.824,12.635,12.635,0,0,0,4.725-3.425,17.376,17.376,0,0,0,2.9-5.188,16.814,16.814,0,0,0,.639-2.28c.017-.089.035-.175.053-.264,1.066.02,5.328.02,6.391,0,.018.089.036.175.056.264a16.628,16.628,0,0,0,.636,2.28,17.441,17.441,0,0,0,2.905,5.188,12.626,12.626,0,0,0,4.728,3.425,9.021,9.021,0,0,0,3.39.824,7.283,7.283,0,0,0,3.373-.869,7.952,7.952,0,0,0,3.606-3.329A7.73,7.73,0,0,0,2640.051-3209.953Zm-38.292,4.395a.377.377,0,0,1-.035.078A.574.574,0,0,1,2601.759-3205.558Zm10.9-2.9c-.093.346-.2.687-.315,1.024-.064.188-.133.372-.2.556-.029.076-.06.151-.088.226l0,0c-.186.39-.363.781-.569,1.159s-.423.743-.658,1.1c-.109.164-.224.321-.337.483a.05.05,0,0,0-.013.02l-.005,0a.1.1,0,0,1-.015.02.009.009,0,0,0-.007.009.033.033,0,0,0-.011.011c-.007.007-.013.016-.018.022v0a.281.281,0,0,0-.027.031l-.008.011-.005,0,0,0h0v0c-.025.031-.049.062-.078.095a9.544,9.544,0,0,1-.824.86c-.089.08-.182.162-.277.237-.012,0-.3.222-.406.293-.361.246-.729.478-1.11.693-.22.124-.444.242-.67.35-.086.043-.17.078-.257.12l-.026.013-.005,0h0l-.084.026c-.362.115-.712.226-1.08.3.02-.009-.292.033-.4.035s-.237-.015-.35,0a.181.181,0,0,0-.038,0l-.031-.006a6.06,6.06,0,0,1-.6-.169.443.443,0,0,1-.055-.018l-.007,0,0,0c-.085-.038-.167-.078-.249-.115a8.279,8.279,0,0,1-1.1-.65c-.026-.017-.088-.07-.131-.106h0c-.124-.117-.252-.228-.372-.35-.071-.075-.138-.155-.206-.233l-.005,0,0,0c-.029-.038-.062-.076-.077-.1-.1-.142-.167-.306-.251-.452-.04-.137-.082-.275-.113-.417-.009-.031-.015-.064-.022-.1v-.02c0-.115-.047-.341-.049-.406a4.436,4.436,0,0,1,0-.463c0-.08.011-.157.015-.237.065-.279.114-.556.207-.829.017-.051.035-.1.053-.151v0c.062-.126.177-.341.2-.379.089-.155.188-.3.286-.45l.009-.015,0,0,.044-.047c.153-.164.506-.665.734-.714-.029.016-.177.12-.2.138.011-.005.048-.027.128-.08l.18-.12c.142-.093.286-.181.434-.263.124-.067.251-.129.377-.187.015,0,.277-.11.4-.148a8.382,8.382,0,0,1,1.114-.264c.1-.015.189-.029.284-.042l.018,0h0a.036.036,0,0,1,.015,0,.045.045,0,0,1,.02,0l.049-.006.007,0c.328-.042.656-.08.984-.118q1.643-.183,3.293-.277,1.123-.066,2.252-.1c.106,0,.212-.007.319-.009C2612.7-3208.59,2612.679-3208.525,2612.661-3208.459Zm25.735,2.979c-.007,0-.018-.031-.034-.069C2638.38-3205.514,2638.393-3205.487,2638.4-3205.48Zm.232,1.595c0,.069-.055.315-.049.421-.006.034-.015.069-.022.1-.033.142-.075.28-.115.417-.084.146-.153.31-.248.452l-.08.1,0,0-.005,0c-.068.078-.133.158-.206.233-.117.122-.246.233-.372.35-.044.036-.106.089-.131.106a8.3,8.3,0,0,1-1.1.65c-.082.037-.164.077-.246.115l-.014,0a.533.533,0,0,1-.053.018c-.2.067-.394.122-.6.169l-.033.006a.175.175,0,0,0-.036,0c-.115-.011-.234.006-.35,0s-.4-.042-.4-.035a10.668,10.668,0,0,1-1.079-.3l-.085-.026-.008,0-.027-.013c-.084-.042-.171-.077-.255-.12-.228-.108-.452-.226-.669-.35q-.572-.322-1.113-.693c-.1-.071-.383-.286-.4-.293l.007.009c-.1-.08-.193-.162-.286-.246a9.728,9.728,0,0,1-.825-.86c-.026-.033-.053-.064-.077-.095l0,0,0,0,0,0-.007-.011-.029-.031v0a.147.147,0,0,0-.018-.022l0-.007-.007,0a.009.009,0,0,0-.006-.009.241.241,0,0,0-.016-.02l0,0a.067.067,0,0,0-.014-.02c-.113-.162-.228-.319-.334-.483q-.355-.535-.661-1.1c-.206-.378-.383-.769-.569-1.159a.1.1,0,0,0-.009-.02l-.082-.208c-.071-.184-.14-.368-.2-.556-.117-.337-.224-.678-.317-1.024-.017-.066-.035-.131-.051-.2.109,0,.213.006.322.009q1.124.033,2.251.1,1.65.1,3.291.277c.328.038.659.076.987.118l.073.011a.053.053,0,0,1,.018,0h0l.011,0,.013,0c.091.014.184.025.275.04a8.4,8.4,0,0,1,1.115.264c.119.04.381.148.4.148.127.058.255.118.379.187.149.082.293.17.435.263l.177.12a1.5,1.5,0,0,0,.129.08c-.02-.018-.169-.122-.2-.138.229.049.583.55.734.714l.046.047v0l.012.015c.095.151.2.295.283.45.022.036.131.246.2.372.018.054.038.107.058.16.091.273.139.55.206.827,0,.082.011.159.013.239C2638.635-3204.193,2638.635-3204.04,2638.628-3203.885Z" transform="translate(-2580.162 3275.722)" fill="#fff"/>
          </g>
        </g>
        <g id="Group_50" data-name="Group 50" transform="translate(0 9.972)">
          <path id="Path_52" data-name="Path 52" d="M2628.7-3632.029c-3.849,17.476-7.732,36.718-2.51,54.317,2.319,7.814,6.4,15.344,12.448,20.9,6.544,6,14.874,8.31,22.7,12.087a112.982,112.982,0,0,1,16.525,9.751,68.711,68.711,0,0,1,7.514,6.151c1.2,1.139,2.361,2.328,3.448,3.578a24.974,24.974,0,0,1,2.527,3.321,16.932,16.932,0,0,1,2.991,7.108c.028.151.053.3.074.457-.008-.055-.055-.56-.033-.155.017.306.048.611.058.918s.009.612,0,.918c-.008.244-.095,1.207-.056.921.048-.352-.093.475-.123.615q-.1.464-.23.92c-.089.311-.194.614-.3.92-.052.154-.112.308-.173.459.14-.344.044-.1-.053.094a6.577,6.577,0,0,1-2.382,3.117,8.612,8.612,0,0,1-4.418.786,45.187,45.187,0,0,1-6.083-.825l-7.872-1.29-15.44-2.53a99.2,99.2,0,0,0-12.935-1.607c-7.844-.241-16.742,2.175-20.345,9.887-3.172,6.789-1.676,15.033,2.676,20.972,5.167,7.051,13.583,10.086,22.1,10.451,9.422.4,18.488-2.438,27.441-4.973,7.863-2.226,16.889-4.857,24.855-2.257a9.626,9.626,0,0,1,6.668,6.38c1.076,3.689.439,7.8-.614,11.427-1.839,6.333-6.094,12.97-12.633,14.341-6.9,1.447-13.566-4.669-19-8.656a46.317,46.317,0,0,0-11.446-6.337,53.946,53.946,0,0,0-13.3-2.822,113.76,113.76,0,0,0-13.469-.407,80.883,80.883,0,0,0-11.812.835c-7.135,1.178-14.411,4.582-16.954,11.841a31.275,31.275,0,0,0-.478,19.176,26.528,26.528,0,0,0,8.744,12.49c6.995,5.589,15.624,8.357,24.253,10.265a30.233,30.233,0,0,0,6.038.922,47.955,47.955,0,0,0,10.707-1.22,32.822,32.822,0,0,0,19.036-12.5,24.7,24.7,0,0,0,4.806-10.5c.758-4.373-.028-8.348-1.224-12.563-2.631-9.273-6.149-18.29-8.268-27.707a66.293,66.293,0,0,1-.462-25.631c1.337-8.123,3.772-16.134,8.188-23.136a45.942,45.942,0,0,1,7.522-8.893,61.945,61.945,0,0,0,8.277-8.792,15.477,15.477,0,0,0,3-11.261,14.486,14.486,0,0,0-6.2-9.491c-6.768-4.959-16.219-4.92-24.021-2.938-8.723,2.216-16.443,7.157-23.459,12.64-13.1,10.241-24.35,24.76-40.775,29.862-3.464,1.076-7.785,2.2-11.4,1.3a13.223,13.223,0,0,1-3.932-2.139c-1.4-.915-2.8-1.832-4.173-2.785a35.75,35.75,0,0,1-3.735-2.836,17.892,17.892,0,0,1-1.286-1.289c.421.46,0,0-.164-.221-.244-.334-.486-.67-.722-1.01a45.387,45.387,0,0,1-4.069-7.28,32.743,32.743,0,0,1-2.485-17.894,33.065,33.065,0,0,1,11.907-19.938c6.252-4.873,13.992-4.484,21.077-1.866a28.237,28.237,0,0,1,8.61,4.848,22.779,22.779,0,0,1,5.552,7.4c3.124,6.283,3.849,14.007,3.813,21.193-.037,7.533-.326,15.944-4.716,22.391-1.785,2.621-3.878,5.106-5.791,7.645-.627.833-1.616,2.079-2.588,3.178a38.4,38.4,0,0,1-3.629,3.613c-4.178,3.621-9.476,5.557-14.508,7.849-.787.358-1.575.714-2.368,1.059l-.591.254c-.351.151.344-.145.325-.138-.135.055-.268.113-.4.167-.446.18-.892.36-1.342.532a43.078,43.078,0,0,1-5.706,1.765q-.783.179-1.574.323-.371.068-.743.126c-.343.055-.932.113-.217.037-1.139.121-2.274.219-3.421.236a31.592,31.592,0,0,1-3.493-.144c-.291-.028-.58-.062-.87-.1-.405-.048.142.017.184.024-.148-.023-.3-.043-.444-.069-.708-.127-1.414-.251-2.115-.41-6.34-1.437-11.722-4.443-17.14-8.4a91.416,91.416,0,0,1-10.331-8.991c-.414-.411-.8-.831-1.2-1.256-.448-.482.174.263.058.077-.129-.206-.281-.4-.413-.6a19.153,19.153,0,0,1-1.421-2.693c.244.553.078.189-.04-.134-.092-.251-.186-.5-.272-.754q-.317-.924-.561-1.871c-.148-.567-.276-1.14-.387-1.715-.057-.3-.106-.595-.157-.892-.1-.572.021.343-.062-.459a30.119,30.119,0,0,1-.154-4.194c.025-.674.076-1.347.146-2.018.018-.17.037-.341.06-.511-.01.073-.068.471,0,.063.076-.461.158-.921.255-1.378a25.979,25.979,0,0,1,10.818-15.9,34.058,34.058,0,0,1,11.733-5.611,18.924,18.924,0,0,1,4.633-.572,17.317,17.317,0,0,1,4.311.395,21.333,21.333,0,0,1,7.561,3.055q.824.5,1.618,1.05.453.312.9.638.188.138.373.279c.429.324-.388-.309.026.023q1.414,1.134,2.734,2.375c.806.76,1.585,1.549,2.344,2.356.334.356.683.708.992,1.087-.29-.355.284.442.361.57a8.938,8.938,0,0,1,.564,1.082c-.182-.428.117.382.156.506.11.348.205.7.288,1.057a8.13,8.13,0,0,1,.282,1.912,28.311,28.311,0,0,1-.182,5.349,63.283,63.283,0,0,1-2.416,10.282,50.736,50.736,0,0,1-3.844,9.952c-3.864,6.923-9.954,11.872-16.561,16.036-6.107,3.849-12.826,7.547-17.465,13.216-5.2,6.359-6.631,14.486-2.891,21.986,4.228,8.476,13.23,12.646,22.235,13.739,7.391.9,15.067-.123,22.284-1.786a100.518,100.518,0,0,0,20.526-7.247c12.58-5.983,24.862-14.916,31.931-27.178,3.311-5.743,5.624-12.318,4.723-19-1.013-7.511-4.275-14.732-7.756-21.4-1.436-2.749-2.874-5.8-5.078-8.022a20.592,20.592,0,0,0-8.777-4.909,35.223,35.223,0,0,0-20.464.069c-13.637,4.556-17.989,21.32-18.514,34.156a92.244,92.244,0,0,0,1.136,18.615c1.005,6.145,2.8,12.543,6.844,17.415,5.323,6.41,14.374,9.175,22.056,11.443,7.258,2.143,14.75,3.718,21.835,6.4,5.92,2.241,12.213,6.143,14.327,12.173a18.767,18.767,0,0,1-3.315,17.824c-2.5,3.025-5.676,4.535-8.958,6.749a84.225,84.225,0,0,0-10.728,8.456c-3.564,3.362-6.716,7.034-7.467,11.971-1.639,10.776-1.911,21.828-2.365,32.7-.467,11.2-.867,70.278-.742,81.492.049,4.44,6.953,4.452,6.9,0-.13-11.667.3-71.2.8-82.85.268-6.213.586-12.426,1.031-18.63.174-2.44.368-4.878.612-7.312.1-.989.215-1.976.332-2.963.082-.7-.052.326-.02.127.031-.183.052-.368.079-.552.053-.359.109-.717.172-1.074.1-.542.225-1.071.351-1.606.07-.3.247-.587,0-.077a13.97,13.97,0,0,1,1.095-1.857,11.572,11.572,0,0,1,1.063-1.346c.6-.7,1.235-1.368,1.885-2.02a62.734,62.734,0,0,1,4.7-4.224,120.905,120.905,0,0,1,10.9-7.5,25.115,25.115,0,0,0,7.791-8.127c3.8-6.32,5.055-14.615,2.331-21.581-2.8-7.167-8.821-12.093-15.732-15.114-7.044-3.08-14.568-4.648-21.917-6.8s-16.244-4.127-21.646-10.02c-.2-.219-.4-.446-.583-.677.367.45-.074-.107-.192-.279q-.583-.854-1.083-1.756c-.322-.583-.612-1.18-.89-1.784-.175-.38-.388-.925-.68-1.758a51.714,51.714,0,0,1-2.218-9.244c-.144-.929-.146-.956-.239-1.738q-.157-1.318-.272-2.642-.2-2.286-.286-4.58c-.1-2.733-.1-5.475.043-8.207.053-.972.127-1.942.23-2.909.021-.189.045-.378.068-.567-.1.812.078-.482.113-.709q.216-1.366.485-2.724a43.927,43.927,0,0,1,3.083-9.986,19.744,19.744,0,0,1,5.868-7.78,14.636,14.636,0,0,1,3.75-1.935c.642-.207,1.295-.379,1.953-.527.405-.092.812-.173,1.22-.246a6.685,6.685,0,0,0,.722-.125,33.5,33.5,0,0,1,9.475.136c3.193.566,5.8,1.309,8.261,3.226-.387-.3.236.225.339.32.283.263.546.543.806.827.11.12.219.246.317.375-.044-.057-.27-.368-.059-.043s.4.634.591.957q1.213,2.043,2.324,4.142a88.71,88.71,0,0,1,4.474,9.612c.662,1.711,1.265,3.446,1.771,5.21.251.873.478,1.753.672,2.64.087.4.167.79.24,1.187.031.168.19,1.165.143.813a19.624,19.624,0,0,1,.161,2.194c.008.4,0,.805-.018,1.207-.012.208-.136,1.181-.031.545a29.535,29.535,0,0,1-1.109,4.352,25.722,25.722,0,0,1-1.585,3.92,41.846,41.846,0,0,1-2.382,4.219,44.777,44.777,0,0,1-5.844,7.295c-9.641,9.98-22.626,16.8-35.871,20.733a72.093,72.093,0,0,1-19.6,3.309c-7.92.153-17.012-1.68-21.625-8.8a13.118,13.118,0,0,1-2.075-9.535,15.509,15.509,0,0,1,4.418-7.662c4.872-4.987,11.278-8.208,17.128-12.073,7.082-4.68,13.54-10.808,17.3-18.527a69.985,69.985,0,0,0,3.831-10.5,67.4,67.4,0,0,0,2.455-11.3,24.209,24.209,0,0,0-.722-10.708,18.821,18.821,0,0,0-4.844-7.1,39.069,39.069,0,0,0-13.928-9.36c-7.087-2.65-14.786-1.928-21.656,1-7.679,3.274-14.875,8.917-18.879,16.355a31.154,31.154,0,0,0-3.531,18.294c.585,4.931,2.076,10.035,5.424,13.831a73.9,73.9,0,0,0,9.7,8.79,72.451,72.451,0,0,0,9.909,6.729,43.631,43.631,0,0,0,17.576,5.54c8.793.69,16.586-2.58,24.409-6.1q.51-.231,1.024-.456c.166-.073.336-.14.5-.216-.585.271-.483.2-.007.007a51.575,51.575,0,0,0,5.907-2.752,38.87,38.87,0,0,0,8.979-6.96,78.163,78.163,0,0,0,6.328-7.856c.958-1.3,1.528-2.076,2.335-3.077a28.37,28.37,0,0,0,3.458-5.116c3.79-7.583,4.218-16.395,4.166-24.724-.049-7.771-1.145-15.663-4.5-22.739a29.9,29.9,0,0,0-15.082-14.53c-7.414-3.3-16.045-5.113-23.878-2.085-8.269,3.2-14.84,10.828-18.391,18.814a37.2,37.2,0,0,0-2.583,21.951,44.014,44.014,0,0,0,7.25,17.143,27.824,27.824,0,0,0,6.91,6.727,80.5,80.5,0,0,0,8.078,5.391c4.168,2.3,9.154,1.849,13.656,1.014a46.418,46.418,0,0,0,12.027-4.173c7.716-3.816,14.465-9.406,20.861-15.1,6.506-5.789,12.744-11.9,19.984-16.788,6.9-4.664,14.778-8.48,23.272-8.536a18.747,18.747,0,0,1,9.886,2.317c2.556,1.5,4.365,3.7,4.346,6.6-.017,2.83-2.068,5.629-4.237,7.946-2.707,2.891-5.8,5.389-8.471,8.319a56.661,56.661,0,0,0-12.047,22.215,83.069,83.069,0,0,0-3.522,25.784c.316,9.616,3.141,18.931,6.068,28.02,1.483,4.6,3.018,9.192,4.3,13.855,1.015,3.688,1.471,6.7.318,10.334a21.873,21.873,0,0,1-5.729,8.767,28.825,28.825,0,0,1-4.5,3.6q-1.213.784-2.489,1.467-.537.288-1.085.554c-.46.223.379-.116-.376.138a42.322,42.322,0,0,1-9.485,1.975,31.82,31.82,0,0,1-4.609.118c-.3-.016-.9-.12-.255,0-.238-.044-.473-.092-.709-.142-.313-.066-.625-.138-.937-.206a103.8,103.8,0,0,1-10.535-2.751q-1.527-.507-3.026-1.091c-.245-.1-.488-.2-.733-.293-.623-.242.46.211-.154-.063-.571-.254-1.143-.506-1.707-.776a38.157,38.157,0,0,1-5.969-3.513c-.1-.074-.737-.555-.415-.305s-.3-.247-.4-.327q-.738-.61-1.432-1.27a25.783,25.783,0,0,1-2.319-2.524c.377.468.032.043-.126-.183-.187-.264-.373-.53-.55-.8q-.5-.762-.934-1.564c-.272-.5-.52-1.015-.753-1.535.248.554,0-.01-.09-.249-.136-.369-.268-.74-.386-1.115-.182-.576-.34-1.161-.474-1.75-.069-.3-.131-.607-.188-.912-.028-.155-.054-.31-.08-.465-.011-.066-.1-.712-.052-.331.038.311-.048-.524-.06-.674-.032-.388-.055-.778-.07-1.167-.028-.755-.022-1.51.011-2.264.12-2.685.593-6.409,1.855-8.689a8.784,8.784,0,0,1,2.427-2.764,15.514,15.514,0,0,1,3.778-1.981,33.374,33.374,0,0,1,9.884-1.818c8.532-.444,17.5-.621,25.851,1.408a36.07,36.07,0,0,1,11.62,5.044c3.309,2.2,6.357,4.767,9.662,6.974,6.79,4.533,15,6.655,22.515,2.467,6.833-3.808,11.17-11.5,12.894-18.922,1-4.327,1.434-9.09.173-13.412a16.076,16.076,0,0,0-7.921-9.7c-7.818-4.14-17.209-2.924-25.466-.99-9.031,2.116-17.839,5.709-27.159,6.385-7.573.548-16.045-.73-21.006-6.7a16.658,16.658,0,0,1-3.6-8.352,10.962,10.962,0,0,1,1.851-7.86c1.741-2.361,5.071-3.808,8.253-4.3a38.328,38.328,0,0,1,10.808.306c10.163,1.443,20.284,3.3,30.414,4.963,4.139.678,8.428,1.377,12.453-.243,3.791-1.527,5.989-4.778,7.333-8.508,2.109-5.852.473-12.229-2.706-17.356-3.609-5.821-8.814-10.457-14.224-14.558a109.992,109.992,0,0,0-16.74-10.365c-7.152-3.626-15.534-5.612-21.819-10.75-5.894-4.818-9.8-11.6-11.985-18.823-2.387-7.914-2.582-16.145-1.933-24.335a195.57,195.57,0,0,1,4.376-26.536,3.53,3.53,0,0,0-2.411-4.246,3.489,3.489,0,0,0-4.246,2.411Z" transform="translate(-2530.213 3634.553)" fill="#fff"/>
        </g>
        <path id="Path_53" data-name="Path 53" d="M2652.189-3644.526v3.786a14.569,14.569,0,0,1-14.569,14.569h-9.7c-.162,0-.324,0-.486-.009a14.568,14.568,0,0,1-14.084-14.56v-3.786Z" transform="translate(-2530.213 3644.526)" fill="#fff"/>
      </g>
    </g>
    <ellipse id="Ellipse_43" data-name="Ellipse 43" cx="364.5" cy="2.5" rx="364.5" ry="2.5" transform="translate(1038 3014)" fill="#fff"/>
  </g>
</svg>
