<svg xmlns="http://www.w3.org/2000/svg" width="100" height="100" viewBox="0 0 100 100">
  <g id="prize_icon" transform="translate(-206.347 303.772)">
    <g id="Group_79" data-name="Group 79" transform="translate(222.185 -303.772)">
      <path id="Path_78" data-name="Path 78" d="M285.5-298.772v7.329c0,35.554-17.722,51.037-29.163,55.016-11.44-3.979-29.161-19.462-29.161-55.016v-7.329H285.5m1.356-5H225.817a3.643,3.643,0,0,0-3.644,3.644v8.685c0,37.294,19.007,55.993,34.161,60.255,15.156-4.262,34.163-22.961,34.163-60.255v-8.685a3.643,3.643,0,0,0-3.644-3.644Z" transform="translate(-222.173 303.772)" fill="#fff"/>
    </g>
    <g id="Group_80" data-name="Group 80" transform="translate(206.347 -297.388)">
      <path id="Path_79" data-name="Path 79" d="M225.995-255.459a18.673,18.673,0,0,1-10.109-2.882,20.654,20.654,0,0,1-8.965-12.727c-1.463-7-1.361-19.738,15.755-26.32l1.795,4.667c-10.42,4.007-14.678,10.948-12.655,20.631a15.7,15.7,0,0,0,6.743,9.524,14.552,14.552,0,0,0,11.592,1.591l1.172,4.861A22.806,22.806,0,0,1,225.995-255.459Z" transform="translate(-206.347 297.388)" fill="#fff"/>
    </g>
    <g id="Group_81" data-name="Group 81" transform="translate(281.371 -297.388)">
      <path id="Path_80" data-name="Path 80" d="M286.675-255.459a22.753,22.753,0,0,1-5.328-.655l1.172-4.861a14.547,14.547,0,0,0,11.592-1.591,15.7,15.7,0,0,0,6.743-9.524c2.022-9.683-2.235-16.624-12.655-20.631l1.795-4.667c17.116,6.582,17.217,19.316,15.755,26.32a20.654,20.654,0,0,1-8.965,12.727A18.682,18.682,0,0,1,286.675-255.459Z" transform="translate(-281.347 297.388)" fill="#fff"/>
    </g>
    <g id="Group_82" data-name="Group 82" transform="translate(237.988 -228.438)">
      <path id="Path_81" data-name="Path 81" d="M263.649-223.438v6.608a5,5,0,0,0,5,5h1.045v3.058H242.976v-3.058h1.045a5,5,0,0,0,5-5v-6.608h14.628m2.328-5H246.693a2.673,2.673,0,0,0-2.672,2.673v8.935h-3.373a2.672,2.672,0,0,0-2.672,2.672v7.713a2.672,2.672,0,0,0,2.672,2.673h31.374a2.672,2.672,0,0,0,2.672-2.673v-7.713a2.672,2.672,0,0,0-2.672-2.672h-3.373v-8.935a2.673,2.673,0,0,0-2.672-2.673Z" transform="translate(-237.976 228.438)" fill="#fff"/>
    </g>
    <g id="Group_85" data-name="Group 85" transform="translate(247.954 -237.009)">
      <g id="Group_83" data-name="Group 83" transform="translate(10.563)">
        <path id="Path_82" data-name="Path 82" d="M261.577-223.884,259-228.172a2.176,2.176,0,0,0,.688-1.526,4.749,4.749,0,0,0-1.187-3.812l3.571-3.5a9.782,9.782,0,0,1,2.575,7.947A6.908,6.908,0,0,1,261.577-223.884Z" transform="translate(-258.505 237.009)" fill="#fff"/>
      </g>
      <g id="Group_84" data-name="Group 84">
        <path id="Path_83" data-name="Path 83" d="M251.093-223.884a6.908,6.908,0,0,1-3.074-5.178,9.782,9.782,0,0,1,2.575-7.947l3.571,3.5a4.75,4.75,0,0,0-1.187,3.812,2.173,2.173,0,0,0,.688,1.526Z" transform="translate(-247.942 237.009)" fill="#fff"/>
      </g>
    </g>
    <g id="Group_86" data-name="Group 86" transform="translate(241.533 -216.83)">
      <path id="Path_84" data-name="Path 84" d="M268.649-211.83H244.021a2.5,2.5,0,0,1-2.5-2.5,2.5,2.5,0,0,1,2.5-2.5h24.628a2.5,2.5,0,0,1,2.5,2.5A2.5,2.5,0,0,1,268.649-211.83Z" transform="translate(-241.521 216.83)" fill="#fff"/>
    </g>
    <g id="Group_87" data-name="Group 87" transform="translate(223.859 -292.199)">
      <path id="Path_85" data-name="Path 85" d="M286.323-287.2H226.347a2.5,2.5,0,0,1-2.5-2.5,2.5,2.5,0,0,1,2.5-2.5h59.976a2.5,2.5,0,0,1,2.5,2.5A2.5,2.5,0,0,1,286.323-287.2Z" transform="translate(-223.847 292.199)" fill="#fff"/>
    </g>
  </g>
</svg>
