<svg xmlns="http://www.w3.org/2000/svg" width="100" height="100" viewBox="0 0 100 100">
  <g id="Question_Answer_icon" data-name="Question/Answer_icon" transform="translate(-99.996 303.77)">
    <g id="Group_71" data-name="Group 71">
      <path id="Path_73" data-name="Path 73" d="M143.806-303.77H114a14,14,0,0,0-14,14v29.81a14,14,0,0,0,14,14h29.81a13.514,13.514,0,0,0,3.39-.42v-1.2a8.925,8.925,0,0,1,1.36-4.74,8.96,8.96,0,0,1-4.75,1.36H114a9.014,9.014,0,0,1-9-9v-29.81a9.014,9.014,0,0,1,9-9h29.81a9.007,9.007,0,0,1,9,9v29.81a8.88,8.88,0,0,1-1.37,4.75,8.889,8.889,0,0,1,4.76-1.37h1.2a13.907,13.907,0,0,0,.41-3.38v-29.81A14,14,0,0,0,143.806-303.77Z" fill="#fff"/>
    </g>
    <g id="Group_73" data-name="Group 73">
      <g id="Group_72" data-name="Group 72">
        <path id="Path_74" data-name="Path 74" d="M186-261.58H156.2a13.989,13.989,0,0,0-3.39.41,14.038,14.038,0,0,0-10.2,10.21,13.906,13.906,0,0,0-.41,3.38v29.81a14,14,0,0,0,14,14H186a14,14,0,0,0,14-14v-29.81A14,14,0,0,0,186-261.58Zm9,43.81a9.007,9.007,0,0,1-9,9H156.2a9.007,9.007,0,0,1-9-9v-29.81a8.925,8.925,0,0,1,1.36-4.74,8.935,8.935,0,0,1,2.88-2.89,8.889,8.889,0,0,1,4.76-1.37H186a9.007,9.007,0,0,1,9,9Z" fill="#fff"/>
      </g>
    </g>
    <g id="Group_74" data-name="Group 74">
      <path id="Path_75" data-name="Path 75" d="M128.085-284.069c3.279,0,4.32.62,4.56.81.394.311.639,1.4.639,2.85v9.334c0,1.447-.245,2.538-.639,2.849-.24.19-1.281.811-4.56.811-2.091,0-3.205-.4-3.523-.737a4.687,4.687,0,0,1-.557-2.783v-9.614a4.687,4.687,0,0,1,.557-2.783c.318-.34,1.432-.737,3.523-.737m0-6c-7.63,0-10.08,3.85-10.08,9.52v9.614c0,5.67,2.45,9.52,10.08,9.52,7.139,0,11.2-2.38,11.2-9.66v-9.334c0-7.28-4.06-9.66-11.2-9.66Z" fill="#fff"/>
    </g>
    <g id="Group_75" data-name="Group 75">
      <path id="Path_76" data-name="Path 76" d="M136.965-255.951c-3.569-1.689-6.205-4.251-7.227-7.1l5.648-2.024c.471,1.312,1.978,2.656,4.011,3.642a2.023,2.023,0,0,1,.987,2.485l-.642,1.858A2.013,2.013,0,0,1,136.965-255.951Z" fill="#fff"/>
    </g>
    <g id="Group_76" data-name="Group 76">
      <path id="Path_77" data-name="Path 77" d="M163.173-218.556h-2.1a2,2,0,0,1-1.9-2.619l8.25-25.317a2,2,0,0,1,1.9-1.381h3.339a2,2,0,0,1,1.909,1.4l7.925,25.3a2,2,0,0,1-1.919,2.6l-2.1-.011a2,2,0,0,1-1.9-1.4l-5.628-17.973-5.872,18.02A2,2,0,0,1,163.173-218.556Z" fill="#fff"/>
    </g>
    <g id="Group_77" data-name="Group 77">
      <rect id="Rectangle_45" data-name="Rectangle 45" width="12.89" height="6" transform="translate(164.475 -230.65)" fill="#fff"/>
    </g>
  </g>
</svg>
