<svg xmlns="http://www.w3.org/2000/svg" width="90" height="100" viewBox="0 0 90 100">
  <g id="Quiz_icon" transform="translate(-7.049 303.73)">
    <g id="Group_66" data-name="Group 66" transform="translate(17.792 -303.61)">
      <path id="Path_70" data-name="Path 70" d="M95.849-247.808c-1.148-2.2-9.6-16.236-9.6-17.067.277-2.861.712-15.006-3.335-21.7C79.275-292.586,71.369-303.6,51-303.61q-1.173,0-2.4.06a29.529,29.529,0,0,1,5.62,5.052c14.378.94,20.631,8.183,24.47,14.536,2.879,4.752,3.018,14.6,2.642,18.607a3.91,3.91,0,0,0-.03.48c0,1.721,0,1.9,7.075,14.016,1.276,2.2,2.6,4.472,3.028,5.262a12.28,12.28,0,0,1-2.315.2c-.524,0-1.088-.03-1.672-.08-.129-.01-.267-.01-.406-.01a4.926,4.926,0,0,0-3.948,1.991,5.024,5.024,0,0,0-.742,4.582,91.278,91.278,0,0,1,.841,12.465A10.184,10.184,0,0,1,83-224.258c-.356.22-1.108.57-1.484.75-.119.05-1.257.48-5.512.48-1.554,0-3.137-.05-4.522-.1-1.138-.04-2.127-.07-2.939-.07-7.035,0-8.3,4.432-8.431,7.063v.06a33.657,33.657,0,0,0,.336,4.432c.109.91.228,2.021.307,2.911H34.065c-.247-5.342-.94-12.115-1.178-14.346-.594-5.632-3.216-12.4-6.541-20.968-.732-1.891-1.474-3.812-2.236-5.8a29.176,29.176,0,0,1-6.2-2.481c4.75,12.975,9.341,22.909,10.063,29.782.613,5.752,1.2,12.735,1.227,16.747a2.074,2.074,0,0,0,2.068,2.071H63.71a2.076,2.076,0,0,0,2.068-2.081v-1.651c0-1.931-.782-7.263-.732-8.363s.059-2.371,3.493-2.371c1.682,0,4.572.17,7.461.17,2.988,0,5.977-.18,7.58-.94,3.166-1.481,4.532-2.261,4.532-7.483s-.6-12.715-1.1-14.036c.594.05,1.306.09,2.078.09,2.781,0,6.372-.52,7.906-3.011C97.432-244.066,97-245.607,95.849-247.808Z" transform="translate(-17.906 303.61)" fill="#fff"/>
    </g>
    <g id="Group_68" data-name="Group 68" transform="translate(7.049 -303.73)">
      <g id="Group_67" data-name="Group 67">
        <path id="Path_71" data-name="Path 71" d="M31.743-298.73A19.86,19.86,0,0,1,51.49-278.8a19.86,19.86,0,0,1-19.747,19.925A19.859,19.859,0,0,1,12-278.8,19.859,19.859,0,0,1,31.743-298.73m0-5A24.811,24.811,0,0,0,7.049-278.8a24.811,24.811,0,0,0,24.694,24.925A24.811,24.811,0,0,0,56.437-278.8,24.811,24.811,0,0,0,31.743-303.73Z" transform="translate(-7.049 303.73)" fill="#fff"/>
      </g>
    </g>
    <g id="Group_69" data-name="Group 69" transform="translate(24.61 -289.91)">
      <path id="Path_72" data-name="Path 72" d="M40.184-282.957c0,3.576-2.855,6.391-6.857,6.623l-.042.489a1.986,1.986,0,0,1-1.971,1.828H29.179a1.986,1.986,0,0,1-1.955-1.689l-.556-3.576.36-.629a7.676,7.676,0,0,0,3.478.8c2.329,0,3.807-1.092,3.807-2.947,0-1.722-1.51-2.947-3.938-2.947a8.756,8.756,0,0,0-2.936.53,1.982,1.982,0,0,1-2.642-1.878v-.561a2.019,2.019,0,0,1,1.187-1.838,15.523,15.523,0,0,1,6.065-1.153C37.035-289.91,40.184-287.229,40.184-282.957Zm-6.4,13.609A3.272,3.272,0,0,1,30.275-266a3.272,3.272,0,0,1-3.51-3.344,3.265,3.265,0,0,1,3.51-3.311A3.247,3.247,0,0,1,33.786-269.348Z" transform="translate(-24.796 289.91)" fill="#fff"/>
    </g>
  </g>
</svg>
